  0
SECTION
  2
HEADER
  9
$ACADVER
  1
AC1014
  9
$ACADMAINTVER
 70
     0
  9
$DWGCODEPAGE
  3
ANSI_1252
  9
$INSBASE
 10
0.0
 20
0.0
 30
0.0
  9
$EXTMIN
 10
-1636.684994125
 20
-1290.0
 30
0.0
  9
$EXTMAX
 10
1903.1312
 20
624.9194
 30
0.0
  9
$LIMMIN
 10
0.0
 20
0.0
  9
$LIMMAX
 10
12.0
 20
9.0
  9
$ORTHOMODE
 70
     0
  9
$REGENMODE
 70
     1
  9
$FILLMODE
 70
     1
  9
$QTEXTMODE
 70
     0
  9
$MIRRTEXT
 70
     1
  9
$DRAGMODE
 70
     2
  9
$LTSCALE
 40
1.0
  9
$OSMODE
 70
     0
  9
$ATTMODE
 70
     1
  9
$TEXTSIZE
 40
0.2
  9
$TRACEWID
 40
0.05
  9
$TEXTSTYLE
  7
STANDARD
  9
$CLAYER
  8
0
  9
$CELTYPE
  6
BYLAYER
  9
$CECOLOR
 62
   256
  9
$CELTSCALE
 40
1.0
  9
$DELOBJ
 70
     1
  9
$DISPSILH
 70
     0
  9
$DIMSCALE
 40
10.0
  9
$DIMASZ
 40
2.5
  9
$DIMEXO
 40
0.625
  9
$DIMDLI
 40
3.75
  9
$DIMRND
 40
0.0
  9
$DIMDLE
 40
1.0
  9
$DIMEXE
 40
1.25
  9
$DIMTP
 40
0.0
  9
$DIMTM
 40
0.0
  9
$DIMTXT
 40
2.0
  9
$DIMCEN
 40
2.5
  9
$DIMTSZ
 40
0.0
  9
$DIMTOL
 70
     0
  9
$DIMLIM
 70
     0
  9
$DIMTIH
 70
     0
  9
$DIMTOH
 70
     0
  9
$DIMSE1
 70
     0
  9
$DIMSE2
 70
     0
  9
$DIMTAD
 70
     1
  9
$DIMZIN
 70
     0
  9
$DIMBLK
  1

  9
$DIMASO
 70
     1
  9
$DIMSHO
 70
     1
  9
$DIMPOST
  1

  9
$DIMAPOST
  1
ction
  9
$DIMALT
 70
     0
  9
$DIMALTD
 70
     2
  9
$DIMALTF
 40
1.0
  9
$DIMLFAC
 40
1.0
  9
$DIMTOFL
 70
     1
  9
$DIMTVP
 40
0.0
  9
$DIMTIX
 70
     1
  9
$DIMSOXD
 70
     0
  9
$DIMSAH
 70
     1
  9
$DIMBLK1
  1
_OBLIQUE
  9
$DIMBLK2
  1
_OBLIQUE
  9
$DIMSTYLE
  2
ISO-25
  9
$DIMCLRD
 70
     7
  9
$DIMCLRE
 70
     7
  9
$DIMCLRT
 70
     4
  9
$DIMTFAC
 40
1.0
  9
$DIMGAP
 40
1.0
  9
$DIMJUST
 70
     0
  9
$DIMSD1
 70
     0
  9
$DIMSD2
 70
     0
  9
$DIMTOLJ
 70
     1
  9
$DIMTZIN
 70
     0
  9
$DIMALTZ
 70
     0
  9
$DIMALTTZ
 70
     0
  9
$DIMFIT
 70
     3
  9
$DIMUPT
 70
     0
  9
$DIMUNIT
 70
     2
  9
$DIMDEC
 70
     0
  9
$DIMTDEC
 70
     0
  9
$DIMALTU
 70
     2
  9
$DIMALTTD
 70
     2
  9
$DIMTXSTY
  7
STANDARD
  9
$DIMAUNIT
 70
     0
  9
$LUNITS
 70
     2
  9
$LUPREC
 70
     4
  9
$SKETCHINC
 40
0.1
  9
$FILLETRAD
 40
0.5
  9
$AUNITS
 70
     0
  9
$AUPREC
 70
     0
  9
$MENU
  1
.
  9
$ELEVATION
 40
0.0
  9
$PELEVATION
 40
0.0
  9
$THICKNESS
 40
0.0
  9
$LIMCHECK
 70
     0
  9
$BLIPMODE
 70
     0
  9
$CHAMFERA
 40
0.5
  9
$CHAMFERB
 40
0.5
  9
$CHAMFERC
 40
1.0
  9
$CHAMFERD
 40
0.0
  9
$SKPOLY
 70
     1
  9
$TDCREATE
 40
2454155.48207772
  9
$TDUPDATE
 40
2454155.485982523
  9
$TDINDWG
 40
0.003904803
  9
$TDUSRTIMER
 40
0.003904803
  9
$USRTIMER
 70
     1
  9
$ANGBASE
 50
0.0
  9
$ANGDIR
 70
     0
  9
$PDMODE
 70
     0
  9
$PDSIZE
 40
0.0
  9
$PLINEWID
 40
0.0
  9
$COORDS
 70
     1
  9
$SPLFRAME
 70
     0
  9
$SPLINETYPE
 70
     6
  9
$SPLINESEGS
 70
     8
  9
$ATTDIA
 70
     0
  9
$ATTREQ
 70
     1
  9
$HANDLING
 70
     1
  9
$HANDSEED
  5
45A
  9
$SURFTAB1
 70
     6
  9
$SURFTAB2
 70
     6
  9
$SURFTYPE
 70
     6
  9
$SURFU
 70
     6
  9
$SURFV
 70
     6
  9
$UCSNAME
  2

  9
$UCSORG
 10
0.0
 20
0.0
 30
0.0
  9
$UCSXDIR
 10
1.0
 20
0.0
 30
0.0
  9
$UCSYDIR
 10
0.0
 20
1.0
 30
0.0
  9
$PUCSNAME
  2

  9
$PUCSORG
 10
0.0
 20
0.0
 30
0.0
  9
$PUCSXDIR
 10
1.0
 20
0.0
 30
0.0
  9
$PUCSYDIR
 10
0.0
 20
1.0
 30
0.0
  9
$USERI1
 70
     0
  9
$USERI2
 70
     0
  9
$USERI3
 70
     0
  9
$USERI4
 70
     0
  9
$USERI5
 70
     0
  9
$USERR1
 40
0.0
  9
$USERR2
 40
0.0
  9
$USERR3
 40
0.0
  9
$USERR4
 40
0.0
  9
$USERR5
 40
0.0
  9
$WORLDVIEW
 70
     1
  9
$SHADEDGE
 70
     3
  9
$SHADEDIF
 70
    70
  9
$TILEMODE
 70
     1
  9
$MAXACTVP
 70
    48
  9
$PINSBASE
 10
0.0
 20
0.0
 30
0.0
  9
$PLIMCHECK
 70
     0
  9
$PEXTMIN
 10
100000000000000000000.0
 20
100000000000000000000.0
 30
100000000000000000000.0
  9
$PEXTMAX
 10
-100000000000000000000.0
 20
-100000000000000000000.0
 30
-100000000000000000000.0
  9
$PLIMMIN
 10
0.0
 20
0.0
  9
$PLIMMAX
 10
12.0
 20
9.0
  9
$UNITMODE
 70
     0
  9
$VISRETAIN
 70
     1
  9
$PLINEGEN
 70
     0
  9
$PSLTSCALE
 70
     1
  9
$TREEDEPTH
 70
  3020
  9
$PICKSTYLE
 70
     1
  9
$CMLSTYLE
  2
STANDARD
  9
$CMLJUST
 70
     0
  9
$CMLSCALE
 40
1.0
  9
$PROXYGRAPHICS
 70
     1
  9
$MEASUREMENT
 70
     0
  0
ENDSEC
  0
SECTION
  2
CLASSES
  0
ENDSEC
  0
SECTION
  2
TABLES
  0
TABLE
  2
VPORT
  5
448
100
AcDbSymbolTable
 70
     1
  0
VPORT
  5
100
100
AcDbSymbolTableRecord
100
AcDbViewportTableRecord
  2
*ACTIVE
 70
     0
 10
0.0
 20
0.0
 11
1.0
 21
1.0
 12
133.223102937
 22
-332.5403
 13
0.0
 23
0.0
 14
0.5
 24
0.5
 15
0.5
 25
0.5
 16
0.0
 26
0.0
 36
1.0
 17
0.0
 27
0.0
 37
0.0
 40
4247.77943295
 41
1.84854579
 42
50.0
 43
0.0
 44
0.0
 50
0.0
 51
0.0
 71
     0
 72
   100
 73
     1
 74
     1
 75
     0
 76
     0
 77
     0
 78
     0
  0
ENDTAB
  0
TABLE
  2
LTYPE
  5
449
100
AcDbSymbolTable
 70
     6
  0
LTYPE
  5
101
100
AcDbSymbolTableRecord
100
AcDbLinetypeTableRecord
  2
BYBLOCK
 70
     0
  3

 72
    65
 73
     0
 40
0.0
  0
LTYPE
  5
102
100
AcDbSymbolTableRecord
100
AcDbLinetypeTableRecord
  2
BYLAYER
 70
     0
  3

 72
    65
 73
     0
 40
0.0
  0
LTYPE
  5
103
100
AcDbSymbolTableRecord
100
AcDbLinetypeTableRecord
  2
CONTINUOUS
 70
     0
  3
Solid line
 72
    65
 73
     0
 40
0.0
  0
LTYPE
  5
104
100
AcDbSymbolTableRecord
100
AcDbLinetypeTableRecord
  2
ACAD_ISO04W100
 70
     0
  3
ISO long-dash dot ____ . ____ . ____ . ____ . _
 72
    65
 73
     4
 40
30.5
 49
24.0
 74
     0
 49
-3.0
 74
     0
 49
0.5
 74
     0
 49
-3.0
 74
     0
  0
LTYPE
  5
105
100
AcDbSymbolTableRecord
100
AcDbLinetypeTableRecord
  2
ACAD_ISO07W100
 70
     0
  3
ISO dot . . . . . . . . . . . . . . . . . . . .
 72
    65
 73
     2
 40
3.0
 49
0.0
 74
     0
 49
-3.0
 74
     0
  0
LTYPE
  5
106
100
AcDbSymbolTableRecord
100
AcDbLinetypeTableRecord
  2
ACAD_ISO01W100
 70
     0
  3
ISO little dash __ __ __ __ __ __ __ __ __ __ _
 72
    65
 73
     2
 40
5.0
 49
4.0
 74
     0
 49
-1.0
 74
     0
  0
ENDTAB
  0
TABLE
  2
LAYER
  5
44A
100
AcDbSymbolTable
 70
    11
  0
LAYER
  5
107
100
AcDbSymbolTableRecord
100
AcDbLayerTableRecord
  2
0
 70
     0
 62
     7
  6
Continuous
  0
LAYER
  5
108
100
AcDbSymbolTableRecord
100
AcDbLayerTableRecord
  2
PERFIL
 70
     0
 62
     1
  6
Continuous
  0
LAYER
  5
109
100
AcDbSymbolTableRecord
100
AcDbLayerTableRecord
  2
FAB-CHAPA
 70
     0
 62
     2
  6
Continuous
  0
LAYER
  5
10A
100
AcDbSymbolTableRecord
100
AcDbLayerTableRecord
  2
EIXO
 70
     0
 62
     5
  6
ACAD_ISO04W100
  0
LAYER
  5
10B
100
AcDbSymbolTableRecord
100
AcDbLayerTableRecord
  2
G-SIMBOLO
 70
     0
 62
     4
  6
Continuous
  0
LAYER
  5
10C
100
AcDbSymbolTableRecord
100
AcDbLayerTableRecord
  2
DIM-1
 70
     0
 62
     4
  6
Continuous
  0
LAYER
  5
10D
100
AcDbSymbolTableRecord
100
AcDbLayerTableRecord
  2
L-HIDDEN
 70
     0
 62
     7
  6
ACAD_ISO01W100
  0
LAYER
  5
10E
100
AcDbSymbolTableRecord
100
AcDbLayerTableRecord
  2
REGUA120
 70
     0
 62
     2
  6
Continuous
  0
LAYER
  5
10F
100
AcDbSymbolTableRecord
100
AcDbLayerTableRecord
  2
REGUA80
 70
     0
 62
     4
  6
Continuous
  0
LAYER
  5
110
100
AcDbSymbolTableRecord
100
AcDbLayerTableRecord
  2
DEFPOINTS
 70
     0
 62
     7
  6
ACAD_ISO01W100
  0
LAYER
  5
111
100
AcDbSymbolTableRecord
100
AcDbLayerTableRecord
  2
CHU-CHUMBADOR
 70
     0
 62
     1
  6
Continuous
  0
ENDTAB
  0
TABLE
  2
STYLE
  5
44B
100
AcDbSymbolTable
 70
     5
  0
STYLE
  5
112
100
AcDbSymbolTableRecord
100
AcDbTextStyleTableRecord
  2
STANDARD
 70
     0
 40
0.0
 41
1.0
 50
0.0
 71
     0
 42
0.2
  3
txt
  4

  0
STYLE
  5
113
100
AcDbSymbolTableRecord
100
AcDbTextStyleTableRecord
  2
REGUA100
 70
     0
 40
2.54
 41
1.0
 50
0.0
 71
     0
 42
2.54
  3
ROMANS.SHX
  4

  0
STYLE
  5
114
100
AcDbSymbolTableRecord
100
AcDbTextStyleTableRecord
  2
REGUA120
 70
     0
 40
3.05
 41
1.0
 50
0.0
 71
     0
 42
3.05
  3
ROMANS.SHX
  4

  0
STYLE
  5
115
100
AcDbSymbolTableRecord
100
AcDbTextStyleTableRecord
  2
REGUA
 70
     0
 40
0.0
 41
1.0
 50
0.0
 71
     0
 42
0.2
  3
txt
  4

  0
STYLE
  5
116
100
AcDbSymbolTableRecord
100
AcDbTextStyleTableRecord
  2
ROMANS
 70
     0
 40
1.0
 41
1.0
 50
0.0
 71
     0
 42
1.0
  3
ROMANS.SHX
  4

  0
ENDTAB
  0
TABLE
  2
VIEW
  5
44C
100
AcDbSymbolTable
 70
     0
  0
ENDTAB
  0
TABLE
  2
UCS
  5
44D
100
AcDbSymbolTable
 70
     0
  0
ENDTAB
  0
TABLE
  2
APPID
  5
44E
100
AcDbSymbolTable
 70
     1
  0
APPID
  5
117
100
AcDbSymbolTableRecord
100
AcDbRegAppTableRecord
  2
ACAD
 70
     0
  0
ENDTAB
  0
TABLE
  2
DIMSTYLE
  5
44F
100
AcDbSymbolTable
 70
     2
  0
DIMSTYLE
105
118
100
AcDbSymbolTableRecord
100
AcDbDimStyleTableRecord
  2
STANDARD
 70
     0
  3

  4

  5

  6

  7

 40
1.0
 41
0.18
 42
0.0625
 43
0.38
 44
0.18
 45
0.0
 46
0.0
 47
0.0
 48
0.0
140
0.18
141
0.09
142
0.0
143
25.4
144
1.0
145
0.0
146
1.0
147
0.09
 71
     0
 72
     0
 73
     1
 74
     1
 75
     0
 76
     0
 77
     0
 78
     0
170
     0
171
     2
172
     0
173
     0
174
     0
175
     0
176
     0
177
     0
178
     4
270
     2
271
     4
272
     4
273
     2
274
     2
340
112
275
     0
280
     0
281
     0
282
     0
283
     3
284
     0
285
     0
286
     0
287
     3
288
     0
  0
DIMSTYLE
105
119
100
AcDbSymbolTableRecord
100
AcDbDimStyleTableRecord
  2
ISO-25
 70
     0
  3

  4

  5

  6

  7

 40
1.0
 41
2.5
 42
0.625
 43
3.75
 44
1.25
 45
0.0
 46
0.0
 47
0.0
 48
0.0
140
2.5
141
2.5
142
0.0
143
0.039370079
144
1.0
145
0.0
146
1.0
147
0.625
 71
     0
 72
     0
 73
     0
 74
     0
 75
     0
 76
     0
 77
     1
 78
     8
170
     0
171
     3
172
     1
173
     0
174
     0
175
     0
176
     0
177
     0
178
     4
270
     2
271
     2
272
     2
273
     3
274
    44
340
112
275
     0
280
     0
281
     0
282
     0
283
     0
284
     8
285
     0
286
     0
287
     3
288
     0
  0
ENDTAB
  0
TABLE
  2
BLOCK_RECORD
  5
450
100
AcDbSymbolTable
 70
    27
  0
BLOCK_RECORD
  5
11A
100
AcDbSymbolTableRecord
100
AcDbBlockTableRecord
  2
*MODEL_SPACE
 70
     0
  0
BLOCK_RECORD
  5
11D
100
AcDbSymbolTableRecord
100
AcDbBlockTableRecord
  2
*PAPER_SPACE
 70
     0
  0
BLOCK_RECORD
  5
120
100
AcDbSymbolTableRecord
100
AcDbBlockTableRecord
  2
_OBLIQUE
 70
     0
  0
BLOCK_RECORD
  5
128
100
AcDbSymbolTableRecord
100
AcDbBlockTableRecord
  2
nivel_ve
 70
     0
  0
BLOCK_RECORD
  5
131
100
AcDbSymbolTableRecord
100
AcDbBlockTableRecord
  2
nomepec2
 70
     0
  0
BLOCK_RECORD
  5
137
100
AcDbSymbolTableRecord
100
AcDbBlockTableRecord
  2
LOGO_STABILE
 70
     0
  0
BLOCK_RECORD
  5
22A
100
AcDbSymbolTableRecord
100
AcDbBlockTableRecord
  2
*D0
 70
     0
  0
BLOCK_RECORD
  5
236
100
AcDbSymbolTableRecord
100
AcDbBlockTableRecord
  2
*D1
 70
     0
  0
BLOCK_RECORD
  5
242
100
AcDbSymbolTableRecord
100
AcDbBlockTableRecord
  2
*D2
 70
     0
  0
BLOCK_RECORD
  5
284
100
AcDbSymbolTableRecord
100
AcDbBlockTableRecord
  2
*D3
 70
     0
  0
BLOCK_RECORD
  5
296
100
AcDbSymbolTableRecord
100
AcDbBlockTableRecord
  2
*D4
 70
     0
  0
BLOCK_RECORD
  5
2A2
100
AcDbSymbolTableRecord
100
AcDbBlockTableRecord
  2
*D5
 70
     0
  0
BLOCK_RECORD
  5
2CA
100
AcDbSymbolTableRecord
100
AcDbBlockTableRecord
  2
*D6
 70
     0
  0
BLOCK_RECORD
  5
2DA
100
AcDbSymbolTableRecord
100
AcDbBlockTableRecord
  2
*D7
 70
     0
  0
BLOCK_RECORD
  5
2E6
100
AcDbSymbolTableRecord
100
AcDbBlockTableRecord
  2
*D8
 70
     0
  0
BLOCK_RECORD
  5
2F9
100
AcDbSymbolTableRecord
100
AcDbBlockTableRecord
  2
*D9
 70
     0
  0
BLOCK_RECORD
  5
306
100
AcDbSymbolTableRecord
100
AcDbBlockTableRecord
  2
*D10
 70
     0
  0
BLOCK_RECORD
  5
320
100
AcDbSymbolTableRecord
100
AcDbBlockTableRecord
  2
*D11
 70
     0
  0
BLOCK_RECORD
  5
32C
100
AcDbSymbolTableRecord
100
AcDbBlockTableRecord
  2
*D12
 70
     0
  0
BLOCK_RECORD
  5
33D
100
AcDbSymbolTableRecord
100
AcDbBlockTableRecord
  2
*D13
 70
     0
  0
BLOCK_RECORD
  5
349
100
AcDbSymbolTableRecord
100
AcDbBlockTableRecord
  2
*D14
 70
     0
  0
BLOCK_RECORD
  5
355
100
AcDbSymbolTableRecord
100
AcDbBlockTableRecord
  2
*D15
 70
     0
  0
BLOCK_RECORD
  5
361
100
AcDbSymbolTableRecord
100
AcDbBlockTableRecord
  2
*D16
 70
     0
  0
BLOCK_RECORD
  5
36E
100
AcDbSymbolTableRecord
100
AcDbBlockTableRecord
  2
*D17
 70
     0
  0
BLOCK_RECORD
  5
37B
100
AcDbSymbolTableRecord
100
AcDbBlockTableRecord
  2
*D18
 70
     0
  0
BLOCK_RECORD
  5
388
100
AcDbSymbolTableRecord
100
AcDbBlockTableRecord
  2
*D19
 70
     0
  0
BLOCK_RECORD
  5
394
100
AcDbSymbolTableRecord
100
AcDbBlockTableRecord
  2
*D20
 70
     0
  0
ENDTAB
  0
ENDSEC
  0
SECTION
  2
BLOCKS
  0
BLOCK
  5
11B
100
AcDbEntity
  8
0
100
AcDbBlockBegin
  2
*MODEL_SPACE
 70
     0
 10
0.0
 20
0.0
 30
0.0
  3
*MODEL_SPACE
  1

  0
ENDBLK
  5
11C
100
AcDbEntity
  8
0
100
AcDbBlockEnd
  0
BLOCK
  5
11E
100
AcDbEntity
 67
     1
  8
0
100
AcDbBlockBegin
  2
*PAPER_SPACE
 70
     0
 10
0.0
 20
0.0
 30
0.0
  3
*PAPER_SPACE
  1

  0
ENDBLK
  5
11F
100
AcDbEntity
  8
0
100
AcDbBlockEnd
  0
BLOCK
  5
121
100
AcDbEntity
 67
     1
  8
0
100
AcDbBlockBegin
  2
_OBLIQUE
 70
     0
 10
0.0
 20
0.0
 30
0.0
  3
_OBLIQUE
  1

  0
LINE
  5
122
100
AcDbEntity
  8
0
  6
BYBLOCK
 62
     0
100
AcDbLine
 10
-0.5
 20
-0.5
 30
0.0
 11
0.5
 21
0.5
 31
0.0
  0
ENDBLK
  5
123
100
AcDbEntity
  8
0
100
AcDbBlockEnd
  0
BLOCK
  5
129
100
AcDbEntity
  8
0
100
AcDbBlockBegin
  2
nivel_ve
 70
     0
 10
0.0
 20
0.0
 30
0.0
  3
nivel_ve
  1

  0
LWPOLYLINE
  5
12A
100
AcDbEntity
  8
G-SIMBOLO
100
AcDbPolyline
 90
        3
 70
     1
 43
0.0
 10
-7.094565096
 20
0.0
 10
-5.781804986
 20
5.162627882
 10
-8.407325205
 20
5.162627882
  0
LINE
  5
12B
100
AcDbEntity
  8
G-SIMBOLO
  6
Continuous
 62
     4
100
AcDbLine
 10
-7.094565096
 20
0.0
 30
0.0
 11
-7.094565096
 21
11.812760109
 31
0.0
  0
TEXT
  5
12C
100
AcDbEntity
  8
G-SIMBOLO
  6
Continuous
 62
     2
100
AcDbText
 10
-18.755005455
 20
10.740829177
 30
0.0
 40
2.5
  1
0000
 50
0.0
  7
REGUA100
 72
     0
100
AcDbText
  0
LINE
  5
12D
100
AcDbEntity
  8
G-SIMBOLO
  6
Continuous
 62
     4
100
AcDbLine
 10
-5.281804986
 20
10.0
 30
0.0
 11
-18.897197984
 21
10.0
 31
0.0
  0
LINE
  5
12E
100
AcDbEntity
  8
G-SIMBOLO
  6
Continuous
 62
     4
100
AcDbLine
 10
-9.428930121
 20
0.0
 30
0.0
 11
0.0
 21
0.0
 31
0.0
  0
TRACE
  5
12F
100
AcDbEntity
  8
G-SIMBOLO
 62
     4
100
AcDbTrace
 10
-7.094565096
 20
0.0
 30
0.0
 11
-5.781804986
 21
5.162627882
 31
0.0
 12
-7.094565096
 22
5.162627882
 32
0.0
 13
-7.094565096
 23
5.162627882
 33
0.0
  0
ENDBLK
  5
130
100
AcDbEntity
  8
0
100
AcDbBlockEnd
  0
BLOCK
  5
132
100
AcDbEntity
  8
0
100
AcDbBlockBegin
  2
nomepec2
 70
     2
 10
0.0
 20
0.0
 30
0.0
  3
nomepec2
  1

  0
ATTDEF
  5
133
100
AcDbEntity
  8
REGUA80
100
AcDbText
 10
0.986130717
 20
4.557276463
 30
0.0
 40
2.03
  1

100
AcDbAttributeDefinition
  3
QUAL E O COMENTARIO:
  2
COMENTARIO
 70
     0
  0
ATTDEF
  5
134
100
AcDbEntity
  8
REGUA80
100
AcDbText
 10
0.986130717
 20
1.558088807
 30
0.0
 40
2.03
  1

100
AcDbAttributeDefinition
  3
QUAL E O COMENTARIO:
  2
COMENTARIO
 70
     0
  0
ATTDEF
  5
135
100
AcDbEntity
  8
REGUA80
100
AcDbText
 10
0.986130717
 20
-1.436097574
 30
0.0
 40
2.03
  1

100
AcDbAttributeDefinition
  3
QUAL E O COMENTARIO:
  2
COMENTARIO
 70
     0
  0
ENDBLK
  5
136
100
AcDbEntity
  8
0
100
AcDbBlockEnd
  0
BLOCK
  5
138
100
AcDbEntity
 67
     1
  8
0
100
AcDbBlockBegin
  2
LOGO_STABILE
 70
     0
 10
0.0
 20
0.0
 30
0.0
  3
LOGO_STABILE
  1

  0
LWPOLYLINE
  5
139
100
AcDbEntity
  8
0
100
AcDbPolyline
 90
       17
 70
     1
 43
0.0
 10
15.944634538
 20
5.151660004
 10
18.518145523
 20
5.151660004
 42
-0.414214
 10
18.942139082
 20
4.727666402
 10
18.942139082
 20
1.281981875
 42
-0.414214
 10
18.51814548
 20
0.857988317
 10
15.944634538
 20
0.857988317
 10
15.944634538
 20
0.019276823
 10
18.797175392
 20
0.019276823
 42
0.15405482
 10
19.961389641
 20
0.365738223
 42
0.205514349
 10
20.62500203
 20
1.292469712
 42
0.147792947
 10
20.586429467
 20
2.387736184
 42
0.205256512
 10
19.703676766
 20
3.189148562
 42
0.198980206
 10
20.393556451
 20
3.862758718
 42
0.093017852
 10
20.494070094
 20
4.439906503
 42
0.130114669
 10
20.218264392
 20
5.351902432
 42
0.225637245
 10
18.941918151
 20
5.942180107
 10
15.944634538
 20
5.942180107
  0
LWPOLYLINE
  5
13A
100
AcDbEntity
  8
0
100
AcDbPolyline
 90
       18
 70
     1
 43
0.0
 10
16.044587765
 20
5.251613231
 10
18.518145453
 20
5.251613231
 42
-0.414214
 10
19.042092309
 20
4.727666402
 10
19.042092309
 20
1.281981945
 42
-0.414214
 10
18.51814548
 20
0.75803509
 10
16.044587765
 20
0.75803509
 10
16.044587765
 20
0.11923005
 10
18.798008459
 20
0.11923005
 42
0.15450503
 10
19.907489316
 20
0.449954053
 42
0.206412395
 10
20.527821252
 20
1.315949146
 42
0.14737923
 10
20.493441651
 20
2.350714945
 42
0.204336916
 10
19.671075032
 20
3.094661661
 42
-0.694724661
 10
19.666542959
 20
3.281947959
 42
0.19846073
 10
20.300755257
 20
3.899966522
 42
0.092437314
 10
20.394139241
 20
4.437511614
 42
0.128933953
 10
20.136888406
 20
5.293407042
 42
0.22452034
 10
18.942459426
 20
5.84222688
 10
16.044587765
 20
5.84222688
  0
LWPOLYLINE
  5
13B
100
AcDbEntity
  8
0
100
AcDbPolyline
 90
       18
 70
     1
 43
0.0
 10
16.144540992
 20
5.351566458
 10
18.518145376
 20
5.351566458
 42
-0.414214
 10
19.142045536
 20
4.727666402
 10
19.142045536
 20
1.281982022
 42
-0.414214
 10
18.51814548
 20
0.658081863
 10
16.144540992
 20
0.658081863
 10
16.144540992
 20
0.219183277
 10
18.798863534
 20
0.219183277
 42
0.155005985
 10
19.853611912
 20
0.534190082
 42
0.207444341
 10
20.430632339
 20
1.339408949
 42
0.146913743
 10
20.400451963
 20
2.313649698
 42
0.203285532
 10
19.638473299
 20
3.000174759
 42
-0.694724661
 10
19.629409153
 20
3.374747356
 42
0.197849228
 10
20.2079585
 20
3.93719842
 42
0.091769971
 10
20.294207407
 20
4.435122766
 42
0.127605527
 10
20.055502623
 20
5.234866089
 42
0.223250711
 10
18.943018602
 20
5.742273653
 10
16.144540992
 20
5.742273653
  0
LWPOLYLINE
  5
13C
100
AcDbEntity
  8
0
100
AcDbPolyline
 90
        6
 70
     0
 43
0.0
 10
19.312140808
 20
0.809855011
 42
0.058862902
 10
19.584816018
 20
0.955891189
 42
0.216310171
 10
19.944474169
 20
1.456192401
 42
0.143310918
 10
19.935455245
 20
2.12718862
 42
0.194491703
 10
19.475464631
 20
2.527740252
 42
-0.012804229
 10
19.441905217
 20
2.540290036
 42
-0.313272344
  0
LWPOLYLINE
  5
13D
100
AcDbEntity
  8
0
100
AcDbPolyline
 90
        6
 70
     0
 43
0.0
 10
19.380065324
 20
0.949677076
 42
0.036233381
 10
19.531270998
 20
1.040420146
 42
0.219543534
 10
19.847163573
 20
1.479358511
 42
0.142154086
 10
19.842438456
 20
2.089486338
 42
0.191392869
 10
19.442862897
 20
2.43325335
 42
-0.000316807
 10
19.441905217
 20
2.433584467
 42
-0.313272344
  0
LWPOLYLINE
  5
13E
100
AcDbEntity
  8
0
100
AcDbPolyline
 90
        5
 70
     0
 43
0.0
 10
19.421170283
 20
1.087358096
 42
0.015224582
 10
19.477863969
 20
1.125070716
 42
0.223818134
 10
19.749800947
 20
1.502399039
 42
0.140736227
 10
19.749410503
 20
2.051521629
 42
0.173165576
 10
19.441905217
 20
2.32686297
 42
-0.313272344
  0
LWPOLYLINE
  5
13F
100
AcDbEntity
  8
0
100
AcDbPolyline
 90
        4
 70
     0
 43
0.0
 10
19.439713311
 20
1.218382817
 42
0.219566471
 10
19.652360539
 20
1.525251836
 42
0.138956293
 10
19.656366254
 20
2.013173889
 42
0.147105589
 10
19.441905217
 20
2.217103075
 42
-0.313272344
  0
LWPOLYLINE
  5
140
100
AcDbEntity
  8
0
100
AcDbPolyline
 90
        6
 70
     0
 43
0.0
 10
19.210693691
 20
0.670664152
 42
0.083884247
 10
19.638459438
 20
0.871448949
 42
0.213775524
 10
20.041748136
 20
1.432937886
 42
0.144273162
 10
20.028464034
 20
2.16470286
 42
0.196961606
 10
19.508066364
 20
2.622227153
 42
-0.029870065
 10
19.441905217
 20
2.649575612
 42
-0.313272344
  0
LWPOLYLINE
  5
141
100
AcDbEntity
  8
0
100
AcDbPolyline
 90
        6
 70
     0
 43
0.0
 10
19.064180102
 20
0.536878828
 42
0.112731583
 10
19.692175672
 20
0.787070881
 42
0.211733407
 10
20.138995294
 20
1.409618663
 42
0.145086363
 10
20.121466887
 20
2.202077566
 42
0.198977414
 10
19.540668098
 20
2.716714055
 42
-0.054815495
 10
19.441905217
 20
2.76342348
 42
-0.313272344
  0
LWPOLYLINE
  5
142
100
AcDbEntity
  8
0
100
AcDbPolyline
 90
        6
 70
     0
 43
0.0
 10
18.801525367
 20
0.419073828
 42
0.156062126
 10
19.745947392
 20
0.702741713
 42
0.210051961
 10
20.236222213
 20
1.386250593
 42
0.145782815
 10
20.21446521
 20
2.239345789
 42
0.200654394
 10
19.573269831
 20
2.811200956
 42
-0.095686206
 10
19.441905217
 20
2.886946614
 42
-0.313272344
  0
LWPOLYLINE
  5
143
100
AcDbEntity
  8
0
100
AcDbPolyline
 90
        6
 70
     0
 43
0.0
 10
19.441905217
 20
3.491350511
 42
-0.083492011
 10
19.555141541
 20
3.560346149
 42
0.196230559
 10
20.022383621
 20
4.011763373
 42
0.090082379
 10
20.094339906
 20
4.430368714
 42
0.124378352
 10
19.892692841
 20
5.117606461
 42
0.219987038
 10
18.944776745
 20
5.542374154
 42
0.219987038
  0
LWPOLYLINE
  5
144
100
AcDbEntity
  8
0
100
AcDbPolyline
 90
        6
 70
     0
 43
0.0
 10
19.441905217
 20
3.335406842
 42
-0.17182215
 10
19.592275347
 20
3.467546752
 42
0.197118738
 10
20.115167391
 20
3.974460973
 42
0.090994603
 10
20.194274386
 20
4.432741241
 42
0.126099728
 10
19.974104991
 20
5.176270033
 42
0.221795021
 10
18.943597582
 20
5.642320426
  0
LWPOLYLINE
  5
145
100
AcDbEntity
  8
0
100
AcDbPolyline
 90
        6
 70
     0
 43
0.0
 10
18.799742456
 20
0.319136504
 42
0.155567265
 10
19.799762416
 20
0.618450707
 42
0.20864279
 10
20.333433467
 20
1.362844713
 42
0.146386077
 10
20.307459995
 20
2.276530852
 42
0.2020717
 10
19.605871565
 20
2.905687858
 42
-0.184302793
 10
19.441905217
 20
3.042890283
 42
0.197118738
  0
LWPOLYLINE
  5
146
100
AcDbEntity
  8
0
100
AcDbPolyline
 90
        6
 70
     0
 43
0.0
 10
19.441905217
 20
3.614873645
 42
-0.04268964
 10
19.518007735
 20
3.653145546
 42
0.195127036
 10
19.929609643
 20
4.049118934
 42
0.088993059
 10
19.994403606
 20
4.428007411
 42
0.122391322
 10
19.811262632
 20
5.058858911
 42
0.178854627
 10
19.116275889
 20
5.43163547
 42
0.217874946
  0
LWPOLYLINE
  5
147
100
AcDbEntity
  8
0
100
AcDbPolyline
 90
        6
 70
     0
 43
0.0
 10
19.441905217
 20
3.728721513
 42
-0.017766099
 10
19.480873929
 20
3.745944943
 42
0.19371824
 10
19.836849151
 20
4.086547712
 42
0.087668623
 10
19.894464993
 20
4.425660364
 42
0.12007166
 10
19.729809565
 20
5.000005062
 42
0.141608124
 10
19.240202611
 20
5.303831248
 42
0.215374622
  0
LWPOLYLINE
  5
148
100
AcDbEntity
  8
0
100
AcDbPolyline
 90
        6
 70
     0
 43
0.0
 10
19.441905217
 20
3.838007089
 42
-0.000706573
 10
19.443740122
 20
3.838744339
 42
0.191855446
 10
19.744107995
 20
4.124081462
 42
0.086021986
 10
19.794523382
 20
4.423331812
 42
0.117327646
 10
19.648326964
 20
4.941013865
 42
0.104671872
 10
19.33149877
 20
5.165603394
 42
0.212367597
  0
LWPOLYLINE
  5
149
100
AcDbEntity
  8
0
100
AcDbPolyline
 90
        5
 70
     0
 43
0.0
 10
19.441905217
 20
3.94742352
 42
0.167549176
 10
19.651396051
 20
4.161773807
 42
0.083915543
 10
19.694577781
 20
4.421027865
 42
0.11403013
 10
19.566805247
 20
4.881840765
 42
0.066490482
 10
19.394081651
 20
5.021040097
 42
0.208681437
  0
LWPOLYLINE
  5
14A
100
AcDbEntity
  8
0
100
AcDbPolyline
 90
        5
 70
     0
 43
0.0
 10
19.441905217
 20
4.063471279
 42
0.126705274
 10
19.558731523
 20
4.199723571
 42
0.081116393
 10
19.594626704
 20
4.418757683
 42
0.109991046
 10
19.485230142
 20
4.822419388
 42
0.025222556
 10
19.430442317
 20
4.872741102
 42
0.20405482
  0
ARC
  5
14B
100
AcDbEntity
  8
0
  6
CONTINUOUS
100
AcDbCircle
 10
16.357488286
 20
2.605900856
 30
0.0
 40
0.067734086
100
AcDbArc
 50
180.000036494
 51
270.000122103
  0
LINE
  5
14C
100
AcDbEntity
  8
0
100
AcDbLine
 10
16.2897542
 20
3.376963262
 30
0.0
 11
16.2897542
 21
2.605900813
 31
0.0
  0
ARC
  5
14D
100
AcDbEntity
  8
0
  6
CONTINUOUS
100
AcDbCircle
 10
16.357488286
 20
3.376963406
 30
0.0
 40
0.067734086
100
AcDbArc
 50
90.000036494
 51
180.000122103
  0
LINE
  5
14E
100
AcDbEntity
  8
0
100
AcDbLine
 10
17.128550692
 20
3.444697492
 30
0.0
 11
16.357488243
 21
3.444697492
 31
0.0
  0
ARC
  5
14F
100
AcDbEntity
  8
0
  6
CONTINUOUS
100
AcDbCircle
 10
17.128550836
 20
3.376963406
 30
0.0
 40
0.067734086
100
AcDbArc
 50
0.000036494
 51
90.000122103
  0
LINE
  5
150
100
AcDbEntity
  8
0
100
AcDbLine
 10
17.196284923
 20
2.605901
 30
0.0
 11
17.196284923
 21
3.37696345
 31
0.0
  0
ARC
  5
151
100
AcDbEntity
  8
0
  6
CONTINUOUS
100
AcDbCircle
 10
17.128550836
 20
2.605900856
 30
0.0
 40
0.067734086
100
AcDbArc
 50
270.000036494
 51
0.000122103
  0
LINE
  5
152
100
AcDbEntity
  8
0
100
AcDbLine
 10
16.35748843
 20
2.53816677
 30
0.0
 11
17.12855088
 21
2.53816677
 31
0.0
  0
LINE
  5
153
100
AcDbEntity
  8
0
100
AcDbLine
 10
11.456736416
 20
2.532639167
 30
0.0
 11
13.132693928
 21
2.532639167
 31
0.0
  0
LINE
  5
154
100
AcDbEntity
  8
0
100
AcDbLine
 10
12.294715172
 20
4.959812234
 30
0.0
 11
11.456736416
 21
2.532639167
 31
0.0
  0
LINE
  5
155
100
AcDbEntity
  8
0
100
AcDbLine
 10
13.132693928
 20
2.532639167
 30
0.0
 11
12.294715172
 21
4.959812234
 31
0.0
  0
LINE
  5
156
100
AcDbEntity
  8
0
100
AcDbLine
 10
12.699209612
 20
5.84222688
 30
0.0
 11
11.886623438
 21
5.84222688
 31
0.0
  0
LINE
  5
157
100
AcDbEntity
  8
0
100
AcDbLine
 10
14.824554908
 20
0.11923005
 30
0.0
 11
12.699209612
 21
5.84222688
 31
0.0
  0
LINE
  5
158
100
AcDbEntity
  8
0
100
AcDbLine
 10
14.071610024
 20
0.11923005
 30
0.0
 11
14.824554908
 21
0.11923005
 31
0.0
  0
LINE
  5
159
100
AcDbEntity
  8
0
100
AcDbLine
 10
13.464398492
 20
1.878215835
 30
0.0
 11
14.071610024
 21
0.11923005
 31
0.0
  0
LINE
  5
15A
100
AcDbEntity
  8
0
100
AcDbLine
 10
11.125031851
 20
1.878215835
 30
0.0
 11
13.464398492
 21
1.878215835
 31
0.0
  0
LINE
  5
15B
100
AcDbEntity
  8
0
100
AcDbLine
 10
10.51782032
 20
0.11923005
 30
0.0
 11
11.125031851
 21
1.878215835
 31
0.0
  0
LINE
  5
15C
100
AcDbEntity
  8
0
100
AcDbLine
 10
9.764840173
 20
0.11923005
 30
0.0
 11
10.51782032
 21
0.11923005
 31
0.0
  0
LINE
  5
15D
100
AcDbEntity
  8
0
100
AcDbLine
 10
11.886623438
 20
5.84222688
 30
0.0
 11
9.764840173
 21
0.11923005
 31
0.0
  0
LWPOLYLINE
  5
15E
100
AcDbEntity
  8
0
100
AcDbPolyline
 90
        8
 70
     1
 43
0.0
 10
16.35748843
 20
2.138353862
 10
17.128550649
 20
2.138353862
 42
0.414214
 10
17.596097831
 20
2.605901
 10
17.596097831
 20
3.376963219
 42
0.414214
 10
17.128550692
 20
3.8445104
 10
16.357488473
 20
3.8445104
 42
0.414214
 10
15.889941292
 20
3.376963262
 10
15.889941292
 20
2.605901043
 42
0.414214
  0
LWPOLYLINE
  5
15F
100
AcDbEntity
  8
0
100
AcDbPolyline
 90
        8
 70
     1
 43
0.0
 10
11.817079216
 20
5.942180107
 10
9.621181256
 20
0.019276823
 10
10.589057118
 20
0.019276823
 10
11.196268649
 20
1.778262608
 10
13.393161694
 20
1.778262608
 10
14.000373226
 20
0.019276823
 10
14.968297679
 20
0.019276823
 10
12.768713264
 20
5.942180107
  0
LWPOLYLINE
  5
160
100
AcDbEntity
  8
0
100
AcDbPolyline
 90
        8
 70
     1
 43
0.0
 10
7.183609884
 20
5.15664944
 10
7.183609884
 20
0.000170563
 10
8.082220022
 20
0.000170563
 10
8.082220022
 20
5.15664944
 10
9.954455577
 20
5.15664944
 10
9.954455577
 20
5.922733253
 10
5.308964759
 20
5.922733253
 10
5.308964759
 20
5.15664944
  0
LWPOLYLINE
  5
161
100
AcDbEntity
  8
0
100
AcDbPolyline
 90
       27
 70
     0
 43
0.0
 10
3.875437896
 20
3.182669433
 42
0.062247116
 10
2.862316458
 20
3.519843772
 42
-0.032576094
 10
1.825406239
 20
3.747777369
 42
-0.11140064
 10
1.353878403
 20
4.00024964
 42
-0.339089151
 10
1.183515761
 20
4.752838559
 42
-0.191567159
 10
1.76644482
 20
5.218501455
 42
-0.090150009
 10
2.674558321
 20
5.274593648
 42
-0.191581644
 10
3.395459621
 20
4.880523482
 42
-0.183340275
 10
3.70344215
 20
4.081464154
 10
4.535828004
 20
4.081464154
 42
0.060395587
 10
4.384080474
 20
4.72966833
 42
-0.000963083
 10
4.387720717
 20
4.719654874
 42
-0.000158652
 10
4.388074859
 20
4.718533416
 42
0.000158652
 10
4.387720717
 20
4.719654874
 42
0.000963083
 10
4.384080474
 20
4.72966833
 42
-0.000963083
 10
4.387720717
 20
4.719654874
 42
-0.000158652
 10
4.388074859
 20
4.718533416
 42
0.119155
 10
3.938262228
 20
5.464275409
 42
0.158973366
 10
3.140736901
 20
5.893031
 42
0.068172345
 10
2.170186747
 20
5.962683264
 42
0.037466245
 10
1.333321357
 20
5.799674572
 42
0.116567984
 10
0.692433078
 20
5.408663367
 42
0.155692738
 10
0.354308963
 20
4.805505779
 42
0.085876796
 10
0.31984843
 20
4.092462908
 42
0.129943805
 10
0.6459752
 20
3.455201501
 42
0.156110378
 10
1.684180621
 20
2.947008218
 42
-0.030436656
 10
3.184126418
 20
2.557608563
 42
-0.181495255
  0
LWPOLYLINE
  5
162
100
AcDbEntity
  8
0
100
AcDbPolyline
 90
       18
 70
     0
 43
0.0
 10
3.184126418
 20
2.557608563
 42
-0.181495255
 10
3.756137245
 20
2.170704265
 42
-0.211008927
 10
3.842093852
 20
1.542262942
 42
-0.177978297
 10
3.452148746
 20
1.04504759
 42
-0.146715136
 10
2.697185936
 20
0.813523102
 42
-0.12665884
 10
1.8023859
 20
0.92659949
 42
-0.180279215
 10
1.08212253
 20
1.446754094
 42
-0.089878132
 10
0.864140323
 20
2.21311917
 10
-0.00000053
 20
2.21311917
 42
0.082370144
 10
0.301606245
 20
1.223479891
 42
0.018794684
 10
0.548413441
 20
0.835451552
 42
0.111601419
 10
1.450845608
 20
0.241412076
 42
0.055180181
 10
2.577992656
 20
0.067391156
 42
0.071279
 10
3.431456811
 20
0.184304054
 42
0.130365007
 10
4.235670375
 20
0.63417761
 42
0.162187692
 10
4.687814089
 20
1.454983167
 42
0.156013214
 10
4.593851763
 20
2.404387744
 42
0.200688
 10
3.875437896
 20
3.182669433
 42
0.062247116
  0
LWPOLYLINE
  5
163
100
AcDbEntity
  8
0
100
AcDbPolyline
 90
       18
 70
     0
 43
0.0
 10
3.207460523
 20
2.654799957
 42
-0.182267939
 10
3.839530317
 20
2.225892702
 42
-0.212462081
 10
3.937698348
 20
1.513059623
 42
-0.177939347
 10
3.506206907
 20
0.960956914
 42
-0.145366402
 10
2.703838086
 20
0.713621613
 42
-0.125141712
 10
1.770567748
 20
0.831699048
 42
-0.180503071
 10
0.995300915
 20
1.396815145
 42
-0.080788001
 10
0.775292962
 20
2.113165943
 10
0.116191743
 20
2.113165943
 42
0.072694838
 10
0.389642593
 20
1.270938805
 42
0.018311537
 10
0.626035534
 20
0.898961091
 42
0.110215249
 10
1.48155697
 20
0.336656258
 42
0.054849926
 10
2.580440806
 20
0.167331735
 42
0.07124151
 10
3.405321237
 20
0.280790241
 42
0.130748208
 10
4.166988722
 20
0.706806511
 42
0.162674058
 10
4.589771205
 20
1.474489128
 42
0.156781744
 10
4.500936356
 20
2.367419204
 42
0.201288102
 10
3.833837301
 20
3.091784681
 42
0.201288102
  0
LWPOLYLINE
  5
164
100
AcDbEntity
  8
0
100
AcDbPolyline
 90
       18
 70
     0
 43
0.0
 10
3.230794627
 20
2.751991352
 42
-0.182903444
 10
3.922899175
 20
2.281101646
 42
-0.213631758
 10
4.033297492
 20
1.48384666
 42
-0.177899092
 10
3.560284946
 20
0.876881649
 42
-0.1441865
 10
2.710532611
 20
0.613742253
 42
-0.123788459
 10
1.738704964
 20
0.736830915
 42
-0.180703696
 10
0.908452029
 20
1.346969028
 42
-0.072400313
 10
0.689735392
 20
2.013212716
 10
0.237040462
 20
2.013212716
 42
0.062317
 10
0.477695049
 20
1.318374273
 42
0.017806223
 10
0.703604697
 20
0.962568085
 42
0.108724783
 10
1.512324932
 20
0.431890278
 42
0.054502867
 10
2.582875417
 20
0.267273603
 42
0.071204177
 10
3.379202825
 20
0.377282088
 42
0.131177892
 10
4.098312496
 20
0.779441973
 42
0.163233999
 10
4.491726032
 20
1.493992274
 42
0.157666697
 10
4.408008015
 20
2.330463241
 42
0.201987082
 10
3.792236705
 20
3.00089993
 42
0.201987082
  0
LWPOLYLINE
  5
165
100
AcDbEntity
  8
0
100
AcDbPolyline
 90
       18
 70
     0
 43
0.0
 10
3.254128732
 20
2.849182746
 42
-0.183435393
 10
4.006250008
 20
2.336325855
 42
-0.214593643
 10
4.128892684
 20
1.454626579
 42
-0.17785959
 10
3.614378616
 20
0.792818501
 42
-0.143145344
 10
2.717262678
 20
0.513881452
 42
-0.122573743
 10
1.70680501
 20
0.64198969
 42
-0.180884579
 10
0.821580121
 20
1.297201279
 42
-0.06462539
 10
0.607127171
 20
1.913259489
 10
0.363154809
 20
1.913259489
 42
0.051135355
 10
0.56576487
 20
1.36578447
 42
0.017277055
 10
0.781115886
 20
1.026281822
 42
0.107117363
 10
1.543155152
 20
0.527113121
 42
0.05413762
 10
2.585295335
 20
0.367216868
 42
0.07116738
 10
3.353104217
 20
0.473780466
 42
0.131663231
 10
4.029642928
 20
0.852085485
 42
0.163885614
 10
4.39367801
 20
1.513491915
 42
0.158696745
 10
4.3150634
 20
2.293523103
 42
0.202811622
 10
3.750636109
 20
2.910015179
 42
0.202811622
  0
LWPOLYLINE
  5
166
100
AcDbEntity
  8
0
100
AcDbPolyline
 90
       23
 70
     0
 43
0.0
 10
3.832357129
 20
3.092476889
 42
0.062112015
 10
2.844978123
 20
3.421379181
 42
-0.032488662
 10
1.798195964
 20
3.65159743
 42
-0.111104218
 10
1.289173662
 20
3.924060654
 42
-0.340393129
 10
1.094566669
 20
4.798614965
 42
-0.193209903
 10
1.739956762
 20
5.314916397
 42
-0.090403659
 10
2.686690666
 20
5.37380783
 42
-0.191168513
 10
3.471189697
 20
4.945784687
 42
-0.163345843
 10
3.799084358
 20
4.181417381
 10
4.373844451
 20
4.181417381
 42
0.073487916
 10
4.293023708
 20
4.687601348
 42
0.000772062
 10
4.290207989
 20
4.695337525
 42
-0.03203086
 10
4.286591832
 20
4.707609039
 42
0.116376162
 10
3.866574234
 20
5.394616843
 42
0.15941757
 10
3.121591188
 20
5.794916673
 42
0.068090462
 10
2.179264717
 20
5.863107076
 42
0.037237883
 10
1.362082201
 20
5.7039167
 42
0.116412989
 10
0.761685748
 20
5.336573297
 42
0.156262166
 10
0.452055056
 20
4.784596973
 42
0.085407125
 10
0.41848589
 20
4.10930289
 42
0.128331171
 10
0.717891707
 20
3.524724343
 42
0.155911655
 10
1.700992085
 20
3.045566983
 42
-0.030483804
 10
3.215079931
 20
2.652648174
 42
-0.030483804
  0
LWPOLYLINE
  5
167
100
AcDbEntity
  8
0
100
AcDbPolyline
 90
       23
 70
     0
 43
0.0
 10
3.789276361
 20
3.002284344
 42
0.061972857
 10
2.827599141
 20
3.322921444
 42
-0.032402627
 10
1.770968365
 20
3.555422538
 42
-0.110851109
 10
1.224449617
 20
3.847889097
 42
-0.34140649
 10
1.005673956
 20
4.844463539
 42
-0.194577367
 10
1.713537035
 20
5.41134592
 42
-0.090632963
 10
2.698823011
 20
5.473022011
 42
-0.190817355
 10
3.546914347
 20
5.011048325
 42
-0.146202089
 10
3.888169065
 20
4.281370608
 10
4.26962533
 20
4.281370608
 42
0.057794778
 10
4.198318018
 20
4.655566812
 42
0.000564131
 10
4.196335504
 20
4.66100672
 42
-0.025018256
 10
4.190416139
 20
4.680103064
 42
0.115931893
 10
3.794880374
 20
5.324963476
 42
0.159923581
 10
3.102479764
 20
5.696794381
 42
0.068007441
 10
2.188328222
 20
5.763527852
 42
0.036997821
 10
1.39090116
 20
5.608173534
 42
0.116251285
 10
0.830922128
 20
5.26446482
 42
0.156940497
 10
0.549806376
 20
4.763709472
 42
0.08488205
 10
0.517127248
 20
4.126209869
 42
0.126473365
 10
0.789845145
 20
3.594224058
 42
0.155671409
 10
1.717727468
 20
3.144140141
 42
-0.030531722
 10
3.246033444
 20
2.747687784
 42
-0.030531722
  0
LWPOLYLINE
  5
168
100
AcDbEntity
  8
0
100
AcDbPolyline
 90
       23
 70
     0
 43
0.0
 10
3.746195593
 20
2.9120918
 42
0.061829384
 10
2.810178772
 20
3.224470684
 42
-0.032317855
 10
1.743725528
 20
3.459252088
 42
-0.110631962
 10
1.159711323
 20
3.771730403
 42
-0.342217024
 10
0.916822024
 20
4.890364312
 42
-0.195735165
 10
1.687174516
 20
5.50778767
 42
-0.090841476
 10
2.710955357
 20
5.572236193
 42
-0.190515194
 10
3.622634687
 20
5.076313897
 42
-0.131271185
 10
3.971884582
 20
4.381323835
 10
4.158358449
 20
4.381323835
 42
0.040033629
 10
4.103602285
 20
4.623554243
 42
0.000336902
 10
4.102463019
 20
4.626675915
 42
-0.021815057
 10
4.094559845
 20
4.651606599
 42
0.115601795
 10
3.723179327
 20
5.255316479
 42
0.160505671
 10
3.083408522
 20
5.598662755
 42
0.067923723
 10
2.1973762
 20
5.663945369
 42
0.036744977
 10
1.419786205
 20
5.51244709
 42
0.116084274
 10
0.900137495
 20
5.192332603
 42
0.157762866
 10
0.647564274
 20
4.74284879
 42
0.084291076
 10
0.61577336
 20
4.143198532
 42
0.124309234
 10
0.861844003
 20
3.663695332
 42
0.15537931
 10
1.734380893
 20
3.242728804
 42
-0.030580506
 10
3.276986958
 20
2.842727395
 42
-0.030580506
  0
LWPOLYLINE
  5
169
100
AcDbEntity
  8
0
100
AcDbPolyline
 90
       34
 70
     0
 43
0.0
 10
0.48514099
 20
1.913259489
 10
0.615789414
 20
1.48666235
 10
0.752332503
 20
1.259213831
 10
0.949561513
 20
1.001439021
 10
1.131618808
 20
0.834643441
 10
1.359190545
 20
0.698174329
 10
1.617105242
 20
0.592031866
 10
2.041905755
 20
0.501052458
 10
2.436363541
 20
0.440399519
 10
2.618420836
 20
0.440399519
 10
3.08873579
 20
0.485889223
 10
3.422507889
 20
0.576868631
 10
3.680422352
 20
0.683011095
 10
4.014194451
 20
1.001439021
 10
4.150737305
 20
1.244050597
 10
4.241766187
 20
1.48666235
 10
4.272108914
 20
1.835416568
 10
4.196251746
 20
2.153844316
 10
4.059708657
 20
2.441945773
 10
3.847308401
 20
2.654230879
 10
3.589393704
 20
2.805863225
 10
2.967364181
 20
3.018148331
 10
2.3908491
 20
3.169780678
 10
1.768819811
 20
3.306249789
 10
1.344019065
 20
3.427555666
 10
1.02541868
 20
3.609514303
 10
0.813018424
 20
3.89761576
 10
0.691646815
 20
4.140227335
 10
0.676475335
 20
4.458655083
 10
0.706818296
 20
4.655777133
 10
0.813018424
 20
4.928715178
 10
0.964732759
 20
5.125837228
 10
1.344019065
 20
5.413938507
 10
1.465390673
 20
5.474591445
  0
LWPOLYLINE
  5
16A
100
AcDbEntity
  8
0
100
AcDbPolyline
 90
       23
 70
     0
 43
0.0
 10
3.832136921
 20
0.743664033
 10
4.044537177
 20
0.925622848
 10
4.196251746
 20
1.183397658
 10
4.302451874
 20
1.48666235
 10
4.347966315
 20
1.714110691
 10
4.317623355
 20
2.002212148
 10
4.272108914
 20
2.259986958
 10
4.150737305
 20
2.472272243
 10
3.923165569
 20
2.699720583
 10
3.680422352
 20
2.866516164
 10
3.225278879
 20
3.018148331
 10
2.952192935
 20
3.109127739
 10
2.451535021
 20
3.230433616
 10
1.920534146
 20
3.336576258
 10
1.510905114
 20
3.457882135
 10
1.237818936
 20
3.594351068
 10
1.02541868
 20
3.745983414
 10
0.904047072
 20
3.943105464
 10
0.797846944
 20
4.15539057
 10
0.767503983
 20
4.382839089
 10
0.767503983
 20
4.61028743
 10
0.84336115
 20
4.822572714
 10
0.964732759
 20
5.065184289
  0
LWPOLYLINE
  5
16B
100
AcDbEntity
  8
0
100
AcDbPolyline
 90
        6
 70
     0
 43
0.0
 10
4.065121515
 20
4.381323835
 10
3.96868001
 20
4.686103603
 10
3.80179396
 20
5.004531351
 10
3.619736665
 20
5.23197987
 10
3.346650487
 20
5.429101741
 10
3.043221583
 20
5.550407618
  0
LWPOLYLINE
  5
16C
100
AcDbEntity
  8
0
100
AcDbPolyline
 90
        8
 70
     1
 43
0.0
 10
7.283563111
 20
5.256602667
 10
7.283563111
 20
0.10012379
 10
7.982266795
 20
0.10012379
 10
7.982266795
 20
5.256602667
 10
9.85450235
 20
5.256602667
 10
9.85450235
 20
5.822780026
 10
5.408917986
 20
5.822780026
 10
5.408917986
 20
5.256602667
  0
LWPOLYLINE
  5
16D
100
AcDbEntity
  8
0
100
AcDbPolyline
 90
        8
 70
     1
 43
0.0
 10
7.383516338
 20
5.356555894
 10
7.383516338
 20
0.200077017
 10
7.882313568
 20
0.200077017
 10
7.882313568
 20
5.356555894
 10
9.754549123
 20
5.356555894
 10
9.754549123
 20
5.722826799
 10
5.508871213
 20
5.722826799
 10
5.508871213
 20
5.356555894
  0
LWPOLYLINE
  5
16E
100
AcDbEntity
  8
0
100
AcDbPolyline
 90
        4
 70
     0
 43
0.0
 10
7.483469565
 20
5.456509121
 10
7.483469565
 20
0.300030244
 10
7.782360341
 20
0.300030244
 10
7.782360341
 20
5.456509121
  0
LWPOLYLINE
  5
16F
100
AcDbEntity
  8
0
100
AcDbPolyline
 90
        6
 70
     0
 43
0.0
 10
7.782360341
 20
5.456509121
 10
9.654595896
 20
5.456509121
 10
9.654595896
 20
5.622873572
 10
5.60882444
 20
5.622873572
 10
5.60882444
 20
5.456509121
 10
7.483469565
 20
5.456509121
  0
LWPOLYLINE
  5
170
100
AcDbEntity
  8
0
100
AcDbPolyline
 90
        4
 70
     0
 43
0.0
 10
7.583422792
 20
5.456509121
 10
7.583422792
 20
0.399983471
 10
7.682407114
 20
0.399983471
 10
7.682407114
 20
5.456509121
  0
LINE
  5
171
100
AcDbEntity
  8
0
100
AcDbLine
 10
5.60882444
 20
5.539691347
 30
0.0
 11
9.654595896
 21
5.539691347
 31
0.0
  0
LWPOLYLINE
  5
172
100
AcDbEntity
  8
0
100
AcDbPolyline
 90
        8
 70
     1
 43
0.0
 10
11.956167659
 20
5.742273653
 10
9.90849909
 20
0.219183277
 10
10.446583522
 20
0.219183277
 10
11.053795053
 20
1.978169062
 10
13.535635291
 20
1.978169062
 10
14.142846822
 20
0.219183277
 10
14.680812137
 20
0.219183277
 10
12.62970596
 20
5.742273653
  0
LWPOLYLINE
  5
173
100
AcDbEntity
  8
0
100
AcDbPolyline
 90
        8
 70
     1
 43
0.0
 10
12.025711881
 20
5.642320426
 10
10.052158008
 20
0.319136504
 10
10.375346724
 20
0.319136504
 10
10.982558255
 20
2.078122289
 10
13.606872089
 20
2.078122289
 10
14.21408362
 20
0.319136504
 10
14.537069366
 20
0.319136504
 10
12.560202307
 20
5.642320426
  0
LWPOLYLINE
  5
174
100
AcDbEntity
  8
0
100
AcDbPolyline
 90
        8
 70
     1
 43
0.0
 10
12.095256102
 20
5.542367199
 10
10.195816925
 20
0.419089731
 10
10.304109925
 20
0.419089731
 10
10.911321457
 20
2.178075516
 10
13.678108887
 20
2.178075516
 10
14.285320418
 20
0.419089731
 10
14.393326594
 20
0.419089731
 10
12.490698655
 20
5.542367199
  0
LWPOLYLINE
  5
175
100
AcDbEntity
  8
0
100
AcDbPolyline
 90
        3
 70
     1
 43
0.0
 10
13.272945281
 20
2.43268594
 10
12.294715172
 20
5.26609163
 10
11.316485062
 20
2.43268594
  0
LWPOLYLINE
  5
176
100
AcDbEntity
  8
0
100
AcDbPolyline
 90
        2
 70
     0
 43
0.0
 10
13.413196635
 20
2.332732713
 10
12.305073959
 20
5.542367199
  0
LWPOLYLINE
  5
177
100
AcDbEntity
  8
0
100
AcDbPolyline
 90
        3
 70
     0
 43
0.0
 10
12.284356384
 20
5.542367199
 10
11.176233709
 20
2.332732713
 10
13.413196635
 20
2.332732713
  0
LWPOLYLINE
  5
178
100
AcDbEntity
  8
0
100
AcDbPolyline
 90
        2
 70
     0
 43
0.0
 10
13.591083145
 20
2.24474036
 10
12.410816574
 20
5.542367199
  0
LWPOLYLINE
  5
179
100
AcDbEntity
  8
0
100
AcDbPolyline
 90
        3
 70
     0
 43
0.0
 10
12.178613769
 20
5.542367199
 10
11.006595329
 20
2.245810162
 10
13.553447988
 20
2.232779486
  0
LWPOLYLINE
  5
17A
100
AcDbEntity
  8
0
100
AcDbPolyline
 90
        2
 70
     0
 43
0.0
 10
16.244494219
 20
5.451519685
 10
18.518145293
 20
5.451519685
 42
-0.414214
  0
LWPOLYLINE
  5
17B
100
AcDbEntity
  8
0
100
AcDbPolyline
 90
        3
 70
     0
 43
0.0
 10
18.943597582
 20
5.642320426
 10
16.244494219
 20
5.642320426
 10
16.244494219
 20
5.451519685
  0
LINE
  5
17C
100
AcDbEntity
  8
0
100
AcDbLine
 10
16.244494219
 20
5.546920055
 30
0.0
 11
18.518546444
 21
5.546920055
 31
0.0
  0
LWPOLYLINE
  5
17D
100
AcDbEntity
  8
0
100
AcDbPolyline
 90
        7
 70
     0
 43
0.0
 10
18.518145293
 20
5.451519685
 42
-0.414214
 10
19.241998763
 20
4.727666402
 10
19.241998763
 20
1.281982105
 42
-0.414214
 10
18.51814548
 20
0.558128636
 10
16.244494219
 20
0.558128636
 10
16.244494219
 20
0.319136504
 10
18.799742456
 20
0.319136504
 42
0.155567265
  0
LWPOLYLINE
  5
17E
100
AcDbEntity
  8
0
100
AcDbPolyline
 90
        7
 70
     0
 43
0.0
 10
18.518145206
 20
5.551472912
 42
-0.414214
 10
19.34195199
 20
4.727666402
 10
19.34195199
 20
1.281982193
 42
-0.414214
 10
18.51814548
 20
0.458175409
 10
16.344447446
 20
0.458175409
 10
16.344447446
 20
0.419089731
 10
18.799742456
 20
0.419089731
  0
LWPOLYLINE
  5
17F
100
AcDbEntity
  8
0
100
AcDbPolyline
 90
        4
 70
     0
 43
0.0
 10
19.441905217
 20
1.342873456
 42
0.174375409
 10
19.554795372
 20
1.547803515
 42
0.136652389
 10
19.56329675
 20
1.974232496
 42
0.107419856
 10
19.441905217
 20
2.101396055
 42
-0.313272344
  0
LWPOLYLINE
  5
180
100
AcDbEntity
  8
0
100
AcDbPolyline
 90
        4
 70
     0
 43
0.0
 10
19.441905217
 20
1.511819334
 42
0.061215367
 10
19.457007926
 20
1.569818702
 42
0.133547604
 10
19.470184607
 20
1.934288873
 42
0.03645268
 10
19.441905217
 20
1.970202942
 42
-0.313272344
  0
LWPOLYLINE
  5
181
100
AcDbEntity
  8
0
100
AcDbPolyline
 90
        4
 70
     0
 43
0.0
 10
19.441905217
 20
4.200141585
 42
0.043445067
 10
19.46615252
 20
4.238137645
 42
0.077189413
 10
19.494667816
 20
4.416535665
 42
0.076844264
 10
19.441905217
 20
4.674641542
 42
0.198071216
  0
LWPOLYLINE
  5
182
100
AcDbEntity
  8
0
100
AcDbPolyline
 90
        4
 70
     0
 43
0.0
 10
18.944776745
 20
5.542374154
 42
-0.286898938
 10
19.441905217
 20
4.727666402
 10
19.441905217
 20
1.281982284
 42
-0.23899429
 10
19.064180102
 20
0.536878828
  0
LWPOLYLINE
  5
183
100
AcDbEntity
  8
0
100
AcDbPolyline
 90
        8
 70
     1
 43
0.0
 10
16.35748843
 20
2.238307089
 10
17.128550728
 20
2.238307089
 42
0.414214
 10
17.496144604
 20
2.605901
 10
17.496144604
 20
3.376963298
 42
0.414214
 10
17.128550692
 20
3.744557173
 10
16.357488394
 20
3.744557173
 42
0.414214
 10
15.989894519
 20
3.376963262
 10
15.989894519
 20
2.605900964
 42
0.414214
  0
LWPOLYLINE
  5
184
100
AcDbEntity
  8
0
100
AcDbPolyline
 90
        8
 70
     1
 43
0.0
 10
16.35748843
 20
2.338260316
 10
17.128550798
 20
2.338260316
 42
0.414214
 10
17.396191377
 20
2.605901
 10
17.396191377
 20
3.376963368
 42
0.414214
 10
17.128550692
 20
3.644603946
 10
16.357488324
 20
3.644603946
 42
0.414214
 10
16.089847746
 20
3.376963262
 10
16.089847746
 20
2.605900894
 42
0.414214
  0
LWPOLYLINE
  5
185
100
AcDbEntity
  8
0
100
AcDbPolyline
 90
        8
 70
     1
 43
0.0
 10
16.35748843
 20
2.438213543
 10
17.128550853
 20
2.438213543
 42
0.414214
 10
17.29623815
 20
2.605901
 10
17.29623815
 20
3.376963423
 42
0.414214
 10
17.128550692
 20
3.544650719
 10
16.357488269
 20
3.544650719
 42
0.414214
 10
16.189800973
 20
3.376963262
 10
16.189800973
 20
2.605900839
 42
0.414214
  0
LWPOLYLINE
  5
186
100
AcDbEntity
  8
0
100
AcDbPolyline
 90
        4
 70
     1
 43
0.0
 10
16.389707427
 20
2.638119997
 10
17.096331696
 20
2.638119997
 10
17.096331696
 20
3.344744265
 10
16.389707427
 20
3.344744265
  0
LWPOLYLINE
  5
187
100
AcDbEntity
  8
0
100
AcDbPolyline
 90
        4
 70
     1
 43
0.0
 10
16.489660654
 20
2.738073224
 10
16.996378469
 20
2.738073224
 10
16.996378469
 20
3.244791038
 10
16.489660654
 20
3.244791038
  0
LWPOLYLINE
  5
188
100
AcDbEntity
  8
0
100
AcDbPolyline
 90
        4
 70
     1
 43
0.0
 10
16.589613881
 20
2.838026451
 10
16.896425242
 20
2.838026451
 10
16.896425242
 20
3.144837811
 10
16.589613881
 20
3.144837811
  0
LWPOLYLINE
  5
189
100
AcDbEntity
  8
0
100
AcDbPolyline
 90
        4
 70
     1
 43
0.0
 10
16.689567108
 20
2.937979678
 10
16.796472015
 20
2.937979678
 10
16.796472015
 20
3.044884584
 10
16.689567108
 20
3.044884584
  0
LWPOLYLINE
  5
18A
100
AcDbEntity
  8
0
100
AcDbPolyline
 90
        3
 70
     0
 43
0.0
 10
16.689567108
 20
3.037932905
 10
16.696518788
 20
3.037932905
 10
16.696518788
 20
3.044884584
  0
LWPOLYLINE
  5
18B
100
AcDbEntity
  8
0
100
AcDbPolyline
 90
       12
 70
     1
 43
0.0
 10
29.057512131
 20
0.019276823
 10
29.057512131
 20
5.966275802
 10
33.196856003
 20
5.966275802
 10
33.196856003
 20
5.034069026
 10
29.989718907
 20
5.034069026
 10
29.989718907
 20
3.371408342
 10
32.409643651
 20
3.371408342
 10
32.409643651
 20
2.614144282
 10
29.989718907
 20
2.614144282
 10
29.989718907
 20
0.951473642
 10
33.196856003
 20
0.951473642
 10
33.196856003
 20
0.019276823
  0
LWPOLYLINE
  5
18C
100
AcDbEntity
  8
0
100
AcDbPolyline
 90
        6
 70
     1
 43
0.0
 10
28.142056979
 20
0.019276823
 10
28.142056979
 20
0.857988317
 10
24.973472996
 20
0.857988317
 10
24.973472996
 20
5.942180107
 10
24.074522263
 20
5.942180107
 10
24.074522263
 20
0.019276823
  0
LWPOLYLINE
  5
18D
100
AcDbEntity
  8
0
100
AcDbPolyline
 90
        4
 70
     1
 43
0.0
 10
22.780764689
 20
0.000000266
 10
22.780764689
 20
5.92290355
 10
21.881813955
 20
5.92290355
 10
21.881813955
 20
0.000000266
  0
LWPOLYLINE
  5
18E
100
AcDbEntity
  8
0
100
AcDbPolyline
 90
        4
 70
     1
 43
0.0
 10
22.680811462
 20
0.099953493
 10
22.680811462
 20
5.822950323
 10
21.981767182
 20
5.822950323
 10
21.981767182
 20
0.099953493
  0
LWPOLYLINE
  5
18F
100
AcDbEntity
  8
0
100
AcDbPolyline
 90
        4
 70
     1
 43
0.0
 10
22.580858235
 20
0.19990672
 10
22.580858235
 20
5.722997096
 10
22.081720409
 20
5.722997096
 10
22.081720409
 20
0.19990672
  0
LWPOLYLINE
  5
190
100
AcDbEntity
  8
0
100
AcDbPolyline
 90
        4
 70
     1
 43
0.0
 10
22.480905008
 20
0.299859947
 10
22.480905008
 20
5.623043869
 10
22.181673636
 20
5.623043869
 10
22.181673636
 20
0.299859947
  0
LWPOLYLINE
  5
191
100
AcDbEntity
  8
0
100
AcDbPolyline
 90
        4
 70
     1
 43
0.0
 10
22.380951781
 20
0.399813174
 10
22.380951781
 20
5.523090642
 10
22.281626863
 20
5.523090642
 10
22.281626863
 20
0.399813174
  0
LWPOLYLINE
  5
192
100
AcDbEntity
  8
0
100
AcDbPolyline
 90
        6
 70
     1
 43
0.0
 10
28.042103752
 20
0.11923005
 10
28.042103752
 20
0.75803509
 10
24.873519769
 20
0.75803509
 10
24.873519769
 20
5.84222688
 10
24.17447549
 20
5.84222688
 10
24.17447549
 20
0.11923005
  0
LWPOLYLINE
  5
193
100
AcDbEntity
  8
0
100
AcDbPolyline
 90
        6
 70
     1
 43
0.0
 10
27.942150525
 20
0.219183277
 10
27.942150525
 20
0.658081863
 10
24.773566542
 20
0.658081863
 10
24.773566542
 20
5.742273653
 10
24.274428717
 20
5.742273653
 10
24.274428717
 20
0.219183277
  0
LWPOLYLINE
  5
194
100
AcDbEntity
  8
0
100
AcDbPolyline
 90
        6
 70
     1
 43
0.0
 10
27.842197298
 20
0.319136504
 10
27.842197298
 20
0.558128636
 10
24.673613315
 20
0.558128636
 10
24.673613315
 20
5.642320426
 10
24.374381944
 20
5.642320426
 10
24.374381944
 20
0.319136504
  0
LWPOLYLINE
  5
195
100
AcDbEntity
  8
0
100
AcDbPolyline
 90
        6
 70
     1
 43
0.0
 10
27.742244071
 20
0.419089731
 10
27.742244071
 20
0.458175409
 10
24.573660088
 20
0.458175409
 10
24.573660088
 20
5.542367199
 10
24.474335171
 20
5.542367199
 10
24.474335171
 20
0.419089731
  0
LWPOLYLINE
  5
196
100
AcDbEntity
  8
0
100
AcDbPolyline
 90
       12
 70
     1
 43
0.0
 10
29.157465358
 20
0.11923005
 10
29.157465358
 20
5.866322575
 10
33.096902776
 20
5.866322575
 10
33.096902776
 20
5.134022253
 10
29.88976568
 20
5.134022253
 10
29.88976568
 20
3.271455115
 10
32.309690424
 20
3.271455115
 10
32.309690424
 20
2.714097509
 10
29.88976568
 20
2.714097509
 10
29.88976568
 20
0.851520415
 10
33.096902776
 20
0.851520415
 10
33.096902776
 20
0.11923005
  0
LWPOLYLINE
  5
197
100
AcDbEntity
  8
0
100
AcDbPolyline
 90
       12
 70
     1
 43
0.0
 10
29.257418585
 20
0.219183277
 10
29.257418585
 20
5.766369348
 10
32.996949549
 20
5.766369348
 10
32.996949549
 20
5.23397548
 10
29.789812453
 20
5.23397548
 10
29.789812453
 20
3.171501888
 10
32.209737197
 20
3.171501888
 10
32.209737197
 20
2.814050736
 10
29.789812453
 20
2.814050736
 10
29.789812453
 20
0.751567188
 10
32.996949549
 20
0.751567188
 10
32.996949549
 20
0.219183277
  0
LWPOLYLINE
  5
198
100
AcDbEntity
  8
0
100
AcDbPolyline
 90
       12
 70
     1
 43
0.0
 10
29.357371812
 20
0.319136504
 10
29.357371812
 20
5.666416121
 10
32.896996322
 20
5.666416121
 10
32.896996322
 20
5.333928707
 10
29.689859226
 20
5.333928707
 10
29.689859226
 20
3.071548661
 10
32.10978397
 20
3.071548661
 10
32.10978397
 20
2.914003963
 10
29.689859226
 20
2.914003963
 10
29.689859226
 20
0.651613961
 10
32.896996322
 20
0.651613961
 10
32.896996322
 20
0.319136504
  0
LWPOLYLINE
  5
199
100
AcDbEntity
  8
0
100
AcDbPolyline
 90
       10
 70
     1
 43
0.0
 10
29.457325039
 20
0.419089731
 10
29.457325039
 20
5.566462894
 10
32.797043095
 20
5.566462894
 10
32.797043095
 20
5.433881934
 10
29.589905999
 20
5.433881934
 10
29.589905999
 20
3.01395719
 10
29.589905999
 20
3.01395719
 10
29.589905999
 20
0.551660734
 10
32.797043095
 20
0.551660734
 10
32.797043095
 20
0.419089731
  0
LWPOLYLINE
  5
19A
100
AcDbEntity
  8
0
100
AcDbPolyline
 90
        3
 70
     1
 43
0.0
 10
47.260911075
 20
3.321230949
 10
46.951619741
 20
3.304817235
 10
46.88592948
 20
3.553757668
  0
LWPOLYLINE
  5
19B
100
AcDbEntity
  8
0
100
AcDbPolyline
 90
        3
 70
     1
 43
0.0
 10
47.060401785
 20
3.372648369
 10
46.998677164
 20
3.369372719
 10
46.985567497
 20
3.419053238
  0
LWPOLYLINE
  5
19C
100
AcDbEntity
  8
0
100
AcDbPolyline
 90
       10
 70
     0
 43
0.0
 10
50.266891558
 20
3.276615766
 42
0.018917768
 10
50.26385806
 20
3.196467386
 10
50.26385806
 20
0.597350712
 42
-0.414214
 10
50.208344923
 20
0.541837782
 10
47.046855034
 20
0.541837782
 42
-0.414214053
 10
46.991342094
 20
0.597350919
 10
46.991342094
 20
3.200930862
 42
-0.414214053
 10
47.046855231
 20
3.256443802
 10
49.759272351
 20
3.256443802
 42
0.004039375
 10
49.773398748
 20
3.256557834
 42
0.004039375
  0
LWPOLYLINE
  5
19D
100
AcDbEntity
  8
0
100
AcDbPolyline
 90
        7
 70
     0
 43
0.0
 10
50.205097854
 20
3.281300112
 42
0.018917768
 10
50.201887059
 20
3.196467386
 10
50.201887059
 20
0.603808783
 10
47.053313095
 20
0.603808783
 10
47.053313095
 20
3.194472801
 10
49.759271939
 20
3.194472801
 42
0.004039375
 10
49.774399584
 20
3.194594915
 42
0.004039375
  0
LWPOLYLINE
  5
19E
100
AcDbEntity
  8
0
100
AcDbPolyline
 90
        7
 70
     0
 43
0.0
 10
50.14330415
 20
3.285984458
 42
0.018917768
 10
50.139916058
 20
3.196467386
 10
50.139916058
 20
0.665779784
 10
47.115284096
 20
0.665779784
 10
47.115284096
 20
3.132501801
 10
49.759271527
 20
3.132501801
 42
0.004039375
 10
49.775400419
 20
3.132631997
 42
0.004039375
  0
LWPOLYLINE
  5
19F
100
AcDbEntity
  8
0
100
AcDbPolyline
 90
        7
 70
     0
 43
0.0
 10
50.081510446
 20
3.290668806
 42
0.018917768
 10
50.077945058
 20
3.196467386
 10
50.077945058
 20
0.727750784
 10
47.177255097
 20
0.727750784
 10
47.177255097
 20
3.0705308
 10
49.759271115
 20
3.0705308
 42
0.004039375
 10
49.776401254
 20
3.070669078
 42
0.004039375
  0
LWPOLYLINE
  5
1A0
100
AcDbEntity
  8
0
100
AcDbPolyline
 90
        7
 70
     0
 43
0.0
 10
50.019716743
 20
3.295353154
 42
0.018917768
 10
50.015974057
 20
3.196467386
 10
50.015974057
 20
0.789721785
 10
47.239226097
 20
0.789721785
 10
47.239226097
 20
3.008559799
 10
49.759270703
 20
3.008559799
 42
0.004039375
 10
49.77740209
 20
3.00870616
 42
0.004039375
  0
LWPOLYLINE
  5
1A1
100
AcDbEntity
  8
0
100
AcDbPolyline
 90
        7
 70
     0
 43
0.0
 10
49.957923039
 20
3.300037504
 42
0.018917768
 10
49.954003056
 20
3.196467386
 10
49.954003056
 20
0.851692786
 10
47.301197098
 20
0.851692786
 10
47.301197098
 20
2.946588798
 10
49.75927029
 20
2.946588798
 42
0.004039375
 10
49.778402925
 20
2.946743241
 42
0.004039375
  0
LWPOLYLINE
  5
1A2
100
AcDbEntity
  8
0
100
AcDbPolyline
 90
        7
 70
     0
 43
0.0
 10
49.896129336
 20
3.304721854
 42
0.018917768
 10
49.892032056
 20
3.196467386
 10
49.892032056
 20
0.913663787
 10
47.363168099
 20
0.913663787
 10
47.363168099
 20
2.884617798
 10
49.759269878
 20
2.884617798
 42
0.004039375
 10
49.77940376
 20
2.884780323
 42
0.004039375
  0
LWPOLYLINE
  5
1A3
100
AcDbEntity
  8
0
100
AcDbPolyline
 90
        5
 70
     0
 43
0.0
 10
49.830061055
 20
2.822646797
 10
49.830061055
 20
0.975634787
 10
47.4251391
 20
0.975634787
 10
47.4251391
 20
2.822646797
 10
49.830061055
 20
2.822646797
  0
LWPOLYLINE
  5
1A4
100
AcDbEntity
  8
0
100
AcDbPolyline
 90
        3
 70
     0
 43
0.0
 10
49.834335632
 20
3.309406204
 42
0.018917768
 10
49.830061055
 20
3.196467386
 10
49.830061055
 20
2.822646797
  0
LWPOLYLINE
  5
1A5
100
AcDbEntity
  8
0
100
AcDbPolyline
 90
        4
 70
     1
 43
0.0
 10
49.768090054
 20
2.760675796
 10
49.768090054
 20
1.037605788
 10
47.4871101
 20
1.037605788
 10
47.4871101
 20
2.760675796
  0
LWPOLYLINE
  5
1A6
100
AcDbEntity
  8
0
100
AcDbPolyline
 90
        4
 70
     1
 43
0.0
 10
49.706119053
 20
2.698704795
 10
49.706119053
 20
1.099576789
 10
47.549081101
 20
1.099576789
 10
47.549081101
 20
2.698704795
  0
LWPOLYLINE
  5
1A7
100
AcDbEntity
  8
0
100
AcDbPolyline
 90
        4
 70
     1
 43
0.0
 10
49.644148053
 20
2.636733795
 10
49.644148053
 20
1.16154779
 10
47.611052102
 20
1.16154779
 10
47.611052102
 20
2.636733795
  0
LWPOLYLINE
  5
1A8
100
AcDbEntity
  8
0
100
AcDbPolyline
 90
        4
 70
     1
 43
0.0
 10
49.582177052
 20
2.574762794
 10
49.582177052
 20
1.22351879
 10
47.673023103
 20
1.22351879
 10
47.673023103
 20
2.574762794
  0
LWPOLYLINE
  5
1A9
100
AcDbEntity
  8
0
100
AcDbPolyline
 90
        4
 70
     1
 43
0.0
 10
49.520206051
 20
2.512791793
 10
49.520206051
 20
1.285489791
 10
47.734994103
 20
1.285489791
 10
47.734994103
 20
2.512791793
  0
LWPOLYLINE
  5
1AA
100
AcDbEntity
  8
0
100
AcDbPolyline
 90
        4
 70
     1
 43
0.0
 10
49.45823505
 20
2.450820792
 10
49.45823505
 20
1.347460792
 10
47.796965104
 20
1.347460792
 10
47.796965104
 20
2.450820792
  0
LWPOLYLINE
  5
1AB
100
AcDbEntity
  8
0
100
AcDbPolyline
 90
        4
 70
     1
 43
0.0
 10
49.39626405
 20
2.388849792
 10
49.39626405
 20
1.409431793
 10
47.858936105
 20
1.409431793
 10
47.858936105
 20
2.388849792
  0
LWPOLYLINE
  5
1AC
100
AcDbEntity
  8
0
100
AcDbPolyline
 90
        4
 70
     1
 43
0.0
 10
49.334293049
 20
2.326878791
 10
49.334293049
 20
1.471402793
 10
47.920907106
 20
1.471402793
 10
47.920907106
 20
2.326878791
  0
LWPOLYLINE
  5
1AD
100
AcDbEntity
  8
0
100
AcDbPolyline
 90
        4
 70
     1
 43
0.0
 10
49.272322048
 20
2.26490779
 10
49.272322048
 20
1.533373794
 10
47.982878106
 20
1.533373794
 10
47.982878106
 20
2.26490779
  0
LWPOLYLINE
  5
1AE
100
AcDbEntity
  8
0
100
AcDbPolyline
 90
        4
 70
     1
 43
0.0
 10
49.210351047
 20
2.202936789
 10
49.210351047
 20
1.595344795
 10
48.044849107
 20
1.595344795
 10
48.044849107
 20
2.202936789
  0
LWPOLYLINE
  5
1AF
100
AcDbEntity
  8
0
100
AcDbPolyline
 90
        4
 70
     1
 43
0.0
 10
49.148380047
 20
2.140965789
 10
49.148380047
 20
1.657315796
 10
48.106820108
 20
1.657315796
 10
48.106820108
 20
2.140965789
  0
LWPOLYLINE
  5
1B0
100
AcDbEntity
  8
0
100
AcDbPolyline
 90
        4
 70
     1
 43
0.0
 10
49.086409046
 20
2.078994788
 10
49.086409046
 20
1.719286796
 10
48.168791109
 20
1.719286796
 10
48.168791109
 20
2.078994788
  0
LWPOLYLINE
  5
1B1
100
AcDbEntity
  8
0
100
AcDbPolyline
 90
        4
 70
     1
 43
0.0
 10
49.024438045
 20
2.017023787
 10
49.024438045
 20
1.781257797
 10
48.230762109
 20
1.781257797
 10
48.230762109
 20
2.017023787
  0
LWPOLYLINE
  5
1B2
100
AcDbEntity
  8
0
100
AcDbPolyline
 90
        4
 70
     1
 43
0.0
 10
48.962467044
 20
1.955052787
 10
48.962467044
 20
1.843228798
 10
48.29273311
 20
1.843228798
 10
48.29273311
 20
1.955052787
  0
LWPOLYLINE
  5
1B3
100
AcDbEntity
  8
0
100
AcDbPolyline
 90
        4
 70
     0
 43
0.0
 10
48.900496044
 20
1.955052787
 10
48.900496044
 20
1.905199798
 10
48.354704111
 20
1.905199798
 10
48.354704111
 20
1.955052787
  0
LWPOLYLINE
  5
1B4
100
AcDbEntity
  8
0
100
AcDbPolyline
 90
        3
 70
     1
 43
0.0
 10
44.284018105
 20
5.448608751
 10
44.332925318
 20
5.372252154
 10
44.235226582
 20
5.372252154
  0
LWPOLYLINE
  5
1B5
100
AcDbEntity
  8
0
100
AcDbPolyline
 90
        3
 70
     1
 43
0.0
 10
44.283956289
 20
5.563602822
 10
44.446211515
 20
5.310281153
 10
44.122084879
 20
5.310281153
  0
LWPOLYLINE
  5
1B6
100
AcDbEntity
  8
0
100
AcDbPolyline
 90
        3
 70
     1
 43
0.0
 10
44.283894474
 20
5.678596893
 10
44.559497711
 20
5.248310152
 10
44.008943177
 20
5.248310152
  0
LWPOLYLINE
  5
1B7
100
AcDbEntity
  8
0
100
AcDbPolyline
 90
        3
 70
     1
 43
0.0
 10
44.283832658
 20
5.793590964
 10
44.672783908
 20
5.186339152
 10
43.895801475
 20
5.186339152
  0
LWPOLYLINE
  5
1B8
100
AcDbEntity
  8
0
100
AcDbPolyline
 90
        3
 70
     1
 43
0.0
 10
44.283770843
 20
5.908585035
 10
44.786070104
 20
5.124368151
 10
43.782659773
 20
5.124368151
  0
LWPOLYLINE
  5
1B9
100
AcDbEntity
  8
0
100
AcDbPolyline
 90
        3
 70
     1
 43
0.0
 10
44.283709027
 20
6.023579106
 10
44.899356301
 20
5.06239715
 10
43.669518071
 20
5.06239715
  0
LWPOLYLINE
  5
1BA
100
AcDbEntity
  8
0
100
AcDbPolyline
 90
        3
 70
     1
 43
0.0
 10
44.283647212
 20
6.138573177
 10
45.012642497
 20
5.00042615
 10
43.556376369
 20
5.00042615
  0
LWPOLYLINE
  5
1BB
100
AcDbEntity
  8
0
100
AcDbPolyline
 90
        3
 70
     1
 43
0.0
 10
44.283585396
 20
6.253567248
 10
45.125928694
 20
4.938455149
 10
43.443234667
 20
4.938455149
  0
LWPOLYLINE
  5
1BC
100
AcDbEntity
  8
0
100
AcDbPolyline
 90
        3
 70
     1
 43
0.0
 10
44.283523581
 20
6.368561319
 10
45.239214891
 20
4.876484148
 10
43.330092965
 20
4.876484148
  0
LWPOLYLINE
  5
1BD
100
AcDbEntity
  8
0
100
AcDbPolyline
 90
        3
 70
     1
 43
0.0
 10
44.283461765
 20
6.48355539
 10
45.352501087
 20
4.814513147
 10
43.216951263
 20
4.814513147
  0
LWPOLYLINE
  5
1BE
100
AcDbEntity
  8
0
100
AcDbPolyline
 90
        3
 70
     1
 43
0.0
 10
44.28339995
 20
6.598549461
 10
45.465787284
 20
4.752542147
 10
43.10380956
 20
4.752542147
  0
LWPOLYLINE
  5
1BF
100
AcDbEntity
  8
0
100
AcDbPolyline
 90
        3
 70
     1
 43
0.0
 10
44.283338134
 20
6.713543532
 10
45.57907348
 20
4.690571146
 10
42.990667858
 20
4.690571146
  0
LWPOLYLINE
  5
1C0
100
AcDbEntity
  8
0
100
AcDbPolyline
 90
        2
 70
     0
 43
0.0
 10
41.796387074
 20
3.757590852
 10
44.28284361
 20
7.633496099
  0
LWPOLYLINE
  5
1C1
100
AcDbEntity
  8
0
100
AcDbPolyline
 90
        2
 70
     0
 43
0.0
 10
41.093689697
 20
3.318520752
 42
0.224400588
 10
41.796387074
 20
3.757590852
  0
LWPOLYLINE
  5
1C2
100
AcDbEntity
  8
0
100
AcDbPolyline
 90
        3
 70
     1
 43
0.0
 10
41.516090138
 20
3.372648369
 10
41.57781476
 20
3.369372719
 10
41.590924427
 20
3.419053238
  0
LWPOLYLINE
  5
1C3
100
AcDbEntity
  8
0
100
AcDbPolyline
 90
        3
 70
     1
 43
0.0
 10
41.315580849
 20
3.321230949
 10
41.624872183
 20
3.304817235
 10
41.690562444
 20
3.553757668
  0
LWPOLYLINE
  5
1C4
100
AcDbEntity
  8
0
100
AcDbPolyline
 90
        4
 70
     0
 43
0.0
 10
40.221787827
 20
1.955052787
 10
40.221787827
 20
1.905199798
 10
39.675995894
 20
1.905199798
 10
39.675995894
 20
1.955052787
  0
LWPOLYLINE
  5
1C5
100
AcDbEntity
  8
0
100
AcDbPolyline
 90
        4
 70
     1
 43
0.0
 10
40.283758828
 20
1.955052787
 10
40.283758828
 20
1.843228798
 10
39.614024893
 20
1.843228798
 10
39.614024893
 20
1.955052787
  0
LWPOLYLINE
  5
1C6
100
AcDbEntity
  8
0
100
AcDbPolyline
 90
        4
 70
     1
 43
0.0
 10
40.345729829
 20
2.017023787
 10
40.345729829
 20
1.781257797
 10
39.552053893
 20
1.781257797
 10
39.552053893
 20
2.017023787
  0
LWPOLYLINE
  5
1C7
100
AcDbEntity
  8
0
100
AcDbPolyline
 90
        4
 70
     1
 43
0.0
 10
40.407700829
 20
2.078994788
 10
40.407700829
 20
1.719286796
 10
39.490082892
 20
1.719286796
 10
39.490082892
 20
2.078994788
  0
LWPOLYLINE
  5
1C8
100
AcDbEntity
  8
0
100
AcDbPolyline
 90
        4
 70
     1
 43
0.0
 10
40.46967183
 20
2.140965789
 10
40.46967183
 20
1.657315796
 10
39.428111891
 20
1.657315796
 10
39.428111891
 20
2.140965789
  0
LWPOLYLINE
  5
1C9
100
AcDbEntity
  8
0
100
AcDbPolyline
 90
        4
 70
     1
 43
0.0
 10
40.531642831
 20
2.202936789
 10
40.531642831
 20
1.595344795
 10
39.366140891
 20
1.595344795
 10
39.366140891
 20
2.202936789
  0
LWPOLYLINE
  5
1CA
100
AcDbEntity
  8
0
100
AcDbPolyline
 90
        4
 70
     1
 43
0.0
 10
40.593613832
 20
2.26490779
 10
40.593613832
 20
1.533373794
 10
39.30416989
 20
1.533373794
 10
39.30416989
 20
2.26490779
  0
LWPOLYLINE
  5
1CB
100
AcDbEntity
  8
0
100
AcDbPolyline
 90
        4
 70
     1
 43
0.0
 10
40.655584832
 20
2.326878791
 10
40.655584832
 20
1.471402793
 10
39.242198889
 20
1.471402793
 10
39.242198889
 20
2.326878791
  0
LWPOLYLINE
  5
1CC
100
AcDbEntity
  8
0
100
AcDbPolyline
 90
        4
 70
     1
 43
0.0
 10
40.717555833
 20
2.388849792
 10
40.717555833
 20
1.409431793
 10
39.180227888
 20
1.409431793
 10
39.180227888
 20
2.388849792
  0
LWPOLYLINE
  5
1CD
100
AcDbEntity
  8
0
100
AcDbPolyline
 90
        4
 70
     1
 43
0.0
 10
40.779526834
 20
2.450820792
 10
40.779526834
 20
1.347460792
 10
39.118256888
 20
1.347460792
 10
39.118256888
 20
2.450820792
  0
LWPOLYLINE
  5
1CE
100
AcDbEntity
  8
0
100
AcDbPolyline
 90
        4
 70
     1
 43
0.0
 10
40.841497835
 20
2.512791793
 10
40.841497835
 20
1.285489791
 10
39.056285887
 20
1.285489791
 10
39.056285887
 20
2.512791793
  0
LWPOLYLINE
  5
1CF
100
AcDbEntity
  8
0
100
AcDbPolyline
 90
        4
 70
     1
 43
0.0
 10
40.903468835
 20
2.574762794
 10
40.903468835
 20
1.22351879
 10
38.994314886
 20
1.22351879
 10
38.994314886
 20
2.574762794
  0
LWPOLYLINE
  5
1D0
100
AcDbEntity
  8
0
100
AcDbPolyline
 90
        4
 70
     1
 43
0.0
 10
40.965439836
 20
2.636733795
 10
40.965439836
 20
1.16154779
 10
38.932343885
 20
1.16154779
 10
38.932343885
 20
2.636733795
  0
LWPOLYLINE
  5
1D1
100
AcDbEntity
  8
0
100
AcDbPolyline
 90
        4
 70
     1
 43
0.0
 10
41.027410837
 20
2.698704795
 10
41.027410837
 20
1.099576789
 10
38.870372885
 20
1.099576789
 10
38.870372885
 20
2.698704795
  0
LWPOLYLINE
  5
1D2
100
AcDbEntity
  8
0
100
AcDbPolyline
 90
        4
 70
     1
 43
0.0
 10
41.089381838
 20
2.760675796
 10
41.089381838
 20
1.037605788
 10
38.808401884
 20
1.037605788
 10
38.808401884
 20
2.760675796
  0
LWPOLYLINE
  5
1D3
100
AcDbEntity
  8
0
100
AcDbPolyline
 90
        5
 70
     0
 43
0.0
 10
41.151352838
 20
2.822646797
 10
41.151352838
 20
0.975634787
 10
38.746430883
 20
0.975634787
 10
38.746430883
 20
2.822646797
 10
41.151352838
 20
2.822646797
  0
LWPOLYLINE
  5
1D4
100
AcDbEntity
  8
0
100
AcDbPolyline
 90
        3
 70
     0
 43
0.0
 10
41.155627416
 20
3.309406204
 42
0.018917768
 10
41.151352838
 20
3.196467386
 10
41.151352838
 20
2.822646797
  0
LWPOLYLINE
  5
1D5
100
AcDbEntity
  8
0
100
AcDbPolyline
 90
        7
 70
     0
 43
0.0
 10
41.217421119
 20
3.304721854
 42
0.018917768
 10
41.213323839
 20
3.196467386
 10
41.213323839
 20
0.913663787
 10
38.684459882
 20
0.913663787
 10
38.684459882
 20
2.884617798
 10
41.080561662
 20
2.884617798
 42
0.004039375
 10
41.100695544
 20
2.884780323
 42
0.004039375
  0
LWPOLYLINE
  5
1D6
100
AcDbEntity
  8
0
100
AcDbPolyline
 90
        7
 70
     0
 43
0.0
 10
41.279214823
 20
3.300037504
 42
0.018917768
 10
41.27529484
 20
3.196467386
 10
41.27529484
 20
0.851692786
 10
38.622488882
 20
0.851692786
 10
38.622488882
 20
2.946588798
 10
41.080562074
 20
2.946588798
 42
0.004039375
 10
41.099694709
 20
2.946743241
 42
0.004039375
  0
LWPOLYLINE
  5
1D7
100
AcDbEntity
  8
0
100
AcDbPolyline
 90
        7
 70
     0
 43
0.0
 10
41.341008526
 20
3.295353154
 42
0.018917768
 10
41.337265841
 20
3.196467386
 10
41.337265841
 20
0.789721785
 10
38.560517881
 20
0.789721785
 10
38.560517881
 20
3.008559799
 10
41.080562486
 20
3.008559799
 42
0.004039375
 10
41.098693873
 20
3.00870616
 42
0.004039375
  0
LWPOLYLINE
  5
1D8
100
AcDbEntity
  8
0
100
AcDbPolyline
 90
        7
 70
     0
 43
0.0
 10
41.40280223
 20
3.290668806
 42
0.018917768
 10
41.399236841
 20
3.196467386
 10
41.399236841
 20
0.727750784
 10
38.49854688
 20
0.727750784
 10
38.49854688
 20
3.0705308
 10
41.080562898
 20
3.0705308
 42
0.004039375
 10
41.097693038
 20
3.070669078
 42
0.004039375
  0
LWPOLYLINE
  5
1D9
100
AcDbEntity
  8
0
100
AcDbPolyline
 90
        7
 70
     0
 43
0.0
 10
41.464595934
 20
3.285984458
 42
0.018917768
 10
41.461207842
 20
3.196467386
 10
41.461207842
 20
0.665779784
 10
38.436575879
 20
0.665779784
 10
38.436575879
 20
3.132501801
 10
41.08056331
 20
3.132501801
 42
0.004039375
 10
41.096692203
 20
3.132631997
 42
0.004039375
  0
LWPOLYLINE
  5
1DA
100
AcDbEntity
  8
0
100
AcDbPolyline
 90
        7
 70
     0
 43
0.0
 10
41.526389637
 20
3.281300112
 42
0.018917768
 10
41.523178843
 20
3.196467386
 10
41.523178843
 20
0.603808783
 10
38.374604879
 20
0.603808783
 10
38.374604879
 20
3.194472801
 10
41.080563723
 20
3.194472801
 42
0.004039375
 10
41.095691367
 20
3.194594915
 42
0.004039375
  0
LWPOLYLINE
  5
1DB
100
AcDbEntity
  8
0
100
AcDbPolyline
 90
       10
 70
     0
 43
0.0
 10
41.588183341
 20
3.276615766
 42
0.018917768
 10
41.585149843
 20
3.196467386
 10
41.585149843
 20
0.597350712
 42
-0.414214
 10
41.529636707
 20
0.541837782
 10
38.368146818
 20
0.541837782
 42
-0.414214053
 10
38.312633878
 20
0.597350919
 10
38.312633878
 20
3.200930862
 42
-0.414214053
 10
38.368147015
 20
3.256443802
 10
41.080564135
 20
3.256443802
 42
0.004039375
 10
41.094690532
 20
3.256557834
 42
0.004039375
  0
LWPOLYLINE
  5
1DC
100
AcDbEntity
  8
0
100
AcDbPolyline
 90
       10
 70
     0
 43
0.0
 10
41.649977045
 20
3.271931421
 42
0.018917768
 10
41.647120844
 20
3.196467386
 10
41.647120844
 20
0.597350701
 42
-0.414214
 10
41.529636707
 20
0.479866781
 10
38.368146797
 20
0.479866781
 42
-0.414214
 10
38.250662877
 20
0.597350919
 10
38.250662877
 20
3.200930883
 42
-0.414214
 10
38.368147015
 20
3.318414803
 10
41.080564547
 20
3.318414803
 42
0.004039375
 10
41.093689697
 20
3.318520752
  0
LWPOLYLINE
  5
1DD
100
AcDbEntity
  8
0
100
AcDbPolyline
 90
        3
 70
     1
 43
0.0
 10
44.283276318
 20
6.828537603
 10
45.692359677
 20
4.628600145
 10
42.877526156
 20
4.628600145
  0
LWPOLYLINE
  5
1DE
100
AcDbEntity
  8
0
100
AcDbPolyline
 90
        3
 70
     1
 43
0.0
 10
44.283214503
 20
6.943531673
 10
45.805645873
 20
4.566629144
 10
42.764384454
 20
4.566629144
  0
LWPOLYLINE
  5
1DF
100
AcDbEntity
  8
0
100
AcDbPolyline
 90
        3
 70
     1
 43
0.0
 10
44.283152687
 20
7.058525744
 10
45.91893207
 20
4.504658144
 10
42.651242752
 20
4.504658144
  0
LWPOLYLINE
  5
1E0
100
AcDbEntity
  8
0
100
AcDbPolyline
 90
        5
 70
     1
 43
0.0
 10
44.283090872
 20
7.173519815
 10
46.035000747
 20
4.438342983
 42
0.020883479
 10
45.93103534
 20
4.442687143
 10
42.64774992
 20
4.442687143
 42
0.023695037
 10
42.536412271
 20
4.440044277
  0
LWPOLYLINE
  5
1E1
100
AcDbEntity
  8
0
100
AcDbPolyline
 90
        5
 70
     1
 43
0.0
 10
44.283029056
 20
7.288513886
 10
46.15979014
 20
4.358412567
 42
0.048634916
 10
45.93103534
 20
4.380716142
 10
42.647007212
 20
4.380716142
 42
0.052908509
 10
42.41274417
 20
4.361599923
  0
LWPOLYLINE
  5
1E2
100
AcDbEntity
  8
0
100
AcDbPolyline
 90
        5
 70
     1
 43
0.0
 10
44.282967241
 20
7.403507957
 10
46.298390985
 20
4.256918962
 42
0.08356298
 10
45.93103534
 20
4.318745141
 10
42.646243532
 20
4.318745141
 42
0.090081752
 10
42.274810745
 20
4.260830962
  0
LWPOLYLINE
  5
1E3
100
AcDbEntity
  8
0
100
AcDbPolyline
 90
        5
 70
     1
 43
0.0
 10
44.282905425
 20
7.518502028
 10
46.464170835
 20
4.11299202
 42
0.132479403
 10
45.93103534
 20
4.256774141
 10
42.645456999
 20
4.256774141
 42
0.143460603
 10
42.107528649
 20
4.114132615
  0
LWPOLYLINE
  5
1E4
100
AcDbEntity
  8
0
100
AcDbPolyline
 90
       13
 70
     0
 43
0.0
 10
44.28284361
 20
7.633496099
 10
46.807016837
 20
3.692619784
 42
0.25564
 10
47.491090447
 20
3.318414803
 10
50.208345141
 20
3.318414803
 42
-0.414214
 10
50.325829061
 20
3.200930665
 10
50.325829061
 20
0.597350701
 42
-0.414214
 10
50.208344923
 20
0.479866781
 10
47.046855013
 20
0.479866781
 42
-0.414214
 10
46.929371094
 20
0.597350919
 10
46.929371094
 20
3.196467042
 42
0.414214
 10
45.93103534
 20
4.19480314
 10
42.645456942
 20
4.19480314
 42
0.392222773
 10
41.649977045
 20
3.271931421
  0
LWPOLYLINE
  5
1E5
100
AcDbEntity
  8
0
100
AcDbPolyline
 90
       21
 70
     1
 43
0.0
 10
44.282781794
 20
7.74849017
 10
46.859200948
 20
3.726044678
 42
0.25564
 10
47.491090447
 20
3.380385804
 10
50.208345131
 20
3.380385804
 42
-0.414214
 10
50.387800061
 20
3.200930665
 10
50.387800061
 20
0.597350712
 42
-0.414214
 10
50.208344923
 20
0.417895781
 10
47.046855024
 20
0.417895781
 42
-0.414214
 10
46.867400093
 20
0.597350919
 10
46.867400093
 20
3.196467098
 42
0.414214
 10
45.93103534
 20
4.132832139
 10
42.645456886
 20
4.132832139
 42
0.414214
 10
41.709091845
 20
3.196467386
 10
41.709091845
 20
0.597350712
 42
-0.414214
 10
41.529636707
 20
0.417895781
 10
38.368146807
 20
0.417895781
 42
-0.414214
 10
38.188691877
 20
0.597350919
 10
38.188691877
 20
3.200930873
 42
-0.414214
 10
38.368147015
 20
3.380385804
 10
41.080564974
 20
3.380385804
 42
0.255927
 10
41.712891187
 20
3.726723884
  0
LWPOLYLINE
  5
1E6
100
AcDbEntity
  8
0
100
AcDbPolyline
 90
       22
 70
     1
 43
0.0
 10
44.236045592
 20
7.790440869
 42
-0.54738
 10
44.32947249
 20
7.790491681
 10
46.911385053
 20
3.75946958
 42
0.25564
 10
47.491090447
 20
3.442356804
 10
50.208345108
 20
3.442356804
 42
-0.414214
 10
50.449771062
 20
3.200930665
 10
50.449771062
 20
0.597350734
 42
-0.414214
 10
50.208344923
 20
0.35592478
 10
47.046855047
 20
0.35592478
 42
-0.414214
 10
46.805429092
 20
0.597350919
 10
46.805429092
 20
3.196467152
 42
0.414214
 10
45.93103534
 20
4.070861138
 10
42.645456832
 20
4.070861138
 42
0.414214
 10
41.771062846
 20
3.196467386
 10
41.771062846
 20
0.597350734
 42
-0.414214
 10
41.529636707
 20
0.35592478
 10
38.36814683
 20
0.35592478
 42
-0.414214
 10
38.126720876
 20
0.597350919
 10
38.126720876
 20
3.20093085
 42
-0.414214
 10
38.368147015
 20
3.442356804
 10
41.080565417
 20
3.442356804
 42
0.255927
 10
41.660670983
 20
3.76009236
  0
LWPOLYLINE
  5
1E7
100
AcDbEntity
  8
0
100
AcDbPolyline
 90
       22
 70
     1
 43
0.0
 10
44.183825233
 20
7.823809103
 42
-0.54738
 10
44.38165679
 20
7.82391628
 10
46.963569152
 20
3.792894493
 42
0.25564
 10
47.491090447
 20
3.504327805
 10
50.208345077
 20
3.504327805
 42
-0.414214
 10
50.511742063
 20
3.200930665
 10
50.511742063
 20
0.597350765
 42
-0.414214
 10
50.208344923
 20
0.293953779
 10
47.046855077
 20
0.293953779
 42
-0.414214
 10
46.743458092
 20
0.597350919
 10
46.743458092
 20
3.196467205
 42
0.414214
 10
45.93103534
 20
4.008890138
 10
42.645456779
 20
4.008890138
 42
0.414214
 10
41.833033846
 20
3.196467386
 10
41.833033846
 20
0.597350765
 42
-0.414214
 10
41.529636707
 20
0.293953779
 10
38.368146861
 20
0.293953779
 42
-0.414214
 10
38.064749875
 20
0.597350919
 10
38.064749875
 20
3.200930819
 42
-0.414214
 10
38.368147015
 20
3.504327805
 10
41.080565879
 20
3.504327805
 42
0.255927
 10
41.608450779
 20
3.793460837
  0
LWPOLYLINE
  5
1E8
100
AcDbEntity
  8
0
100
AcDbPolyline
 90
       22
 70
     1
 43
0.0
 10
44.1316049
 20
7.857177378
 42
-0.54738
 10
44.433841089
 20
7.85734088
 10
47.015753243
 20
3.826319417
 42
0.25564
 10
47.491090447
 20
3.566298806
 10
50.208345041
 20
3.566298806
 42
-0.414214
 10
50.573713064
 20
3.200930665
 10
50.573713064
 20
0.597350801
 42
-0.414214
 10
50.208344923
 20
0.231982779
 10
47.046855113
 20
0.231982779
 42
-0.414214
 10
46.681487091
 20
0.597350919
 10
46.681487091
 20
3.196467257
 42
0.414214
 10
45.93103534
 20
3.946919137
 10
42.645456727
 20
3.946919137
 42
0.414214
 10
41.895004847
 20
3.196467386
 10
41.895004847
 20
0.597350801
 42
-0.414214
 10
41.529636707
 20
0.231982779
 10
38.368146897
 20
0.231982779
 42
-0.414214
 10
38.002778874
 20
0.597350919
 10
38.002778874
 20
3.200930783
 42
-0.414214
 10
38.368147015
 20
3.566298806
 10
41.080566363
 20
3.566298806
 42
0.255927
 10
41.556230574
 20
3.826829313
  0
LWPOLYLINE
  5
1E9
100
AcDbEntity
  8
0
100
AcDbPolyline
 90
       22
 70
     1
 43
0.0
 10
44.079384582
 20
7.890545676
 42
-0.54738
 10
44.486025388
 20
7.890765479
 10
47.067937326
 20
3.859744355
 42
0.25564
 10
47.491090447
 20
3.628269806
 10
50.208345
 20
3.628269806
 42
-0.414214
 10
50.635684064
 20
3.200930665
 10
50.635684064
 20
0.597350842
 42
-0.414214
 10
50.208344923
 20
0.170011778
 10
47.046855154
 20
0.170011778
 42
-0.414214
 10
46.61951609
 20
0.597350919
 10
46.61951609
 20
3.196467307
 42
0.414214
 10
45.93103534
 20
3.884948136
 10
42.645456677
 20
3.884948136
 42
0.414214
 10
41.956975848
 20
3.196467386
 10
41.956975848
 20
0.597350842
 42
-0.414214
 10
41.529636707
 20
0.170011778
 10
38.368146938
 20
0.170011778
 42
-0.414214
 10
37.940807874
 20
0.597350919
 10
37.940807874
 20
3.200930742
 42
-0.414214
 10
38.368147015
 20
3.628269806
 10
41.080566873
 20
3.628269806
 42
0.255927
 10
41.50401037
 20
3.860197789
  0
LWPOLYLINE
  5
1EA
100
AcDbEntity
  8
0
100
AcDbPolyline
 90
       22
 70
     1
 43
0.0
 10
44.027164274
 20
7.92391399
 42
-0.54738
 10
44.538209688
 20
7.924190078
 10
47.120121398
 20
3.893169309
 42
0.25564
 10
47.491090447
 20
3.690240807
 10
50.208344956
 20
3.690240807
 42
-0.414214
 10
50.697655065
 20
3.200930665
 10
50.697655065
 20
0.597350886
 42
-0.414214
 10
50.208344923
 20
0.108040777
 10
47.046855198
 20
0.108040777
 42
-0.414214
 10
46.557545089
 20
0.597350919
 10
46.557545089
 20
3.196467355
 42
0.414214
 10
45.93103534
 20
3.822977135
 10
42.645456629
 20
3.822977135
 42
0.414214
 10
42.018946849
 20
3.196467386
 10
42.018946849
 20
0.597350886
 42
-0.414214
 10
41.529636707
 20
0.108040777
 10
38.368146982
 20
0.108040777
 42
-0.414214
 10
37.878836873
 20
0.597350919
 10
37.878836873
 20
3.200930698
 42
-0.414214
 10
38.368147015
 20
3.690240807
 10
41.080567413
 20
3.690240807
 42
0.255927
 10
41.451790166
 20
3.893566265
  0
LWPOLYLINE
  5
1EB
100
AcDbEntity
  8
0
100
AcDbPolyline
 90
       22
 70
     1
 43
0.0
 10
43.974943973
 20
7.957282314
 42
-0.54738
 10
44.590393987
 20
7.957614677
 10
47.172305457
 20
3.926594284
 42
0.25564
 10
47.491090447
 20
3.752211808
 10
50.208344909
 20
3.752211808
 42
-0.414214
 10
50.759626066
 20
3.200930665
 10
50.759626066
 20
0.597350933
 42
-0.414214
 10
50.208344923
 20
0.046069776
 10
47.046855246
 20
0.046069776
 42
-0.414214
 10
46.495574089
 20
0.597350919
 10
46.495574089
 20
3.1964674
 42
0.414214
 10
45.93103534
 20
3.761006135
 10
42.645456584
 20
3.761006135
 42
0.414214
 10
42.080917849
 20
3.196467386
 10
42.080917849
 20
0.597350933
 42
-0.414214
 10
41.529636707
 20
0.046069776
 10
38.368147029
 20
0.046069776
 42
-0.414214
 10
37.816865872
 20
0.597350919
 10
37.816865872
 20
3.200930651
 42
-0.414214
 10
38.368147015
 20
3.752211808
 10
41.080567991
 20
3.752211808
 42
0.255927
 10
41.399569962
 20
3.926934741
  0
ENDBLK
  5
1EC
100
AcDbEntity
  8
0
100
AcDbBlockEnd
  0
BLOCK
  5
22B
100
AcDbEntity
 67
     1
  8
0
100
AcDbBlockBegin
  2
*D0
 70
     0
 10
0.0
 20
0.0
 30
0.0
  3
*D0
  1

  0
LINE
  5
22C
100
AcDbEntity
  8
0
100
AcDbLine
 10
-1314.524999619
 20
-975.0
 30
0.0
 11
-1566.684994125
 21
-975.0
 31
0.0
  0
LINE
  5
22D
100
AcDbEntity
  8
0
100
AcDbLine
 10
-1314.524999619
 20
-525.0
 30
0.0
 11
-1566.684994125
 21
-525.0
 31
0.0
  0
TRACE
  5
22E
100
AcDbEntity
  8
0
100
AcDbTrace
 10
-1556.684994125
 20
-975.0
 30
0.0
 11
-1560.018327459
 21
-955.0
 31
0.0
 12
-1553.351660792
 22
-955.0
 32
0.0
 13
-1553.351660792
 23
-955.0
 33
0.0
  0
TRACE
  5
22F
100
AcDbEntity
  8
0
100
AcDbTrace
 10
-1556.684994125
 20
-525.0
 30
0.0
 11
-1553.351660792
 21
-545.0
 31
0.0
 12
-1560.018327459
 22
-545.0
 32
0.0
 13
-1560.018327459
 23
-545.0
 33
0.0
  0
LINE
  5
230
100
AcDbEntity
  8
0
100
AcDbLine
 10
-1556.684994125
 20
-955.0
 30
0.0
 11
-1556.684994125
 21
-545.0
 31
0.0
  0
POINT
  5
231
100
AcDbEntity
  8
DEFPOINTS
  6
BYBLOCK
 62
     0
100
AcDbPoint
 10
-1309.524999619
 20
-975.0
 30
0.0
  0
POINT
  5
232
100
AcDbEntity
  8
DEFPOINTS
  6
BYBLOCK
 62
     0
100
AcDbPoint
 10
-1309.524999619
 20
-525.0
 30
0.0
  0
MTEXT
  5
233
100
AcDbEntity
  8
REGUA80
 62
     4
100
AcDbMText
 10
-1566.684994125
 20
-750.0
 30
0.0
 40
20.0
 41
0.0
 71
     8
 72
     1
  1
450
 50
90.0
  0
ENDBLK
  5
234
100
AcDbEntity
  8
0
100
AcDbBlockEnd
  0
BLOCK
  5
237
100
AcDbEntity
 67
     1
  8
0
100
AcDbBlockBegin
  2
*D1
 70
     0
 10
0.0
 20
0.0
 30
0.0
  3
*D1
  1

  0
LINE
  5
238
100
AcDbEntity
  8
0
100
AcDbLine
 10
-1314.524999619
 20
-525.0
 30
0.0
 11
-1566.684994125
 21
-525.0
 31
0.0
  0
LINE
  5
239
100
AcDbEntity
  8
0
100
AcDbLine
 10
-1314.524999619
 20
-375.0
 30
0.0
 11
-1566.684994125
 21
-375.0
 31
0.0
  0
TRACE
  5
23A
100
AcDbEntity
  8
0
100
AcDbTrace
 10
-1556.684994125
 20
-525.0
 30
0.0
 11
-1560.018327459
 21
-505.0
 31
0.0
 12
-1553.351660792
 22
-505.0
 32
0.0
 13
-1553.351660792
 23
-505.0
 33
0.0
  0
TRACE
  5
23B
100
AcDbEntity
  8
0
100
AcDbTrace
 10
-1556.684994125
 20
-375.0
 30
0.0
 11
-1553.351660792
 21
-395.0
 31
0.0
 12
-1560.018327459
 22
-395.0
 32
0.0
 13
-1560.018327459
 23
-395.0
 33
0.0
  0
LINE
  5
23C
100
AcDbEntity
  8
0
100
AcDbLine
 10
-1556.684994125
 20
-505.0
 30
0.0
 11
-1556.684994125
 21
-395.0
 31
0.0
  0
POINT
  5
23D
100
AcDbEntity
  8
DEFPOINTS
  6
BYBLOCK
 62
     0
100
AcDbPoint
 10
-1309.524999619
 20
-525.0
 30
0.0
  0
POINT
  5
23E
100
AcDbEntity
  8
DEFPOINTS
  6
BYBLOCK
 62
     0
100
AcDbPoint
 10
-1309.524999619
 20
-375.0
 30
0.0
  0
MTEXT
  5
23F
100
AcDbEntity
  8
REGUA80
 62
     4
100
AcDbMText
 10
-1566.684994125
 20
-450.0
 30
0.0
 40
20.0
 41
0.0
 71
     8
 72
     1
  1
150
 50
90.0
  0
ENDBLK
  5
240
100
AcDbEntity
  8
0
100
AcDbBlockEnd
  0
BLOCK
  5
243
100
AcDbEntity
 67
     1
  8
0
100
AcDbBlockBegin
  2
*D2
 70
     0
 10
0.0
 20
0.0
 30
0.0
  3
*D2
  1

  0
LINE
  5
244
100
AcDbEntity
  8
0
100
AcDbLine
 10
-1314.524999619
 20
-975.0
 30
0.0
 11
-1636.684994125
 21
-975.0
 31
0.0
  0
LINE
  5
245
100
AcDbEntity
  8
0
100
AcDbLine
 10
-1314.524999619
 20
-375.0
 30
0.0
 11
-1636.684994125
 21
-375.0
 31
0.0
  0
TRACE
  5
246
100
AcDbEntity
  8
0
100
AcDbTrace
 10
-1626.684994125
 20
-975.0
 30
0.0
 11
-1630.018327459
 21
-955.0
 31
0.0
 12
-1623.351660792
 22
-955.0
 32
0.0
 13
-1623.351660792
 23
-955.0
 33
0.0
  0
TRACE
  5
247
100
AcDbEntity
  8
0
100
AcDbTrace
 10
-1626.684994125
 20
-375.0
 30
0.0
 11
-1623.351660792
 21
-395.0
 31
0.0
 12
-1630.018327459
 22
-395.0
 32
0.0
 13
-1630.018327459
 23
-395.0
 33
0.0
  0
LINE
  5
248
100
AcDbEntity
  8
0
100
AcDbLine
 10
-1626.684994125
 20
-955.0
 30
0.0
 11
-1626.684994125
 21
-395.0
 31
0.0
  0
POINT
  5
249
100
AcDbEntity
  8
DEFPOINTS
  6
BYBLOCK
 62
     0
100
AcDbPoint
 10
-1309.524999619
 20
-975.0
 30
0.0
  0
POINT
  5
24A
100
AcDbEntity
  8
DEFPOINTS
  6
BYBLOCK
 62
     0
100
AcDbPoint
 10
-1309.524999619
 20
-375.0
 30
0.0
  0
MTEXT
  5
24B
100
AcDbEntity
  8
REGUA80
 62
     4
100
AcDbMText
 10
-1636.684994125
 20
-675.0
 30
0.0
 40
20.0
 41
0.0
 71
     8
 72
     1
  1
600
 50
90.0
  0
ENDBLK
  5
24C
100
AcDbEntity
  8
0
100
AcDbBlockEnd
  0
BLOCK
  5
285
100
AcDbEntity
 67
     1
  8
0
100
AcDbBlockBegin
  2
*D3
 70
     0
 10
0.0
 20
0.0
 30
0.0
  3
*D3
  1

  0
LINE
  5
286
100
AcDbEntity
  8
0
100
AcDbLine
 10
-76.0
 20
162.5
 30
0.0
 11
-76.0
 21
192.5
 31
0.0
  0
LINE
  5
287
100
AcDbEntity
  8
0
100
AcDbLine
 10
76.0
 20
162.5
 30
0.0
 11
76.0
 21
192.5
 31
0.0
  0
TRACE
  5
288
100
AcDbEntity
  8
0
100
AcDbTrace
 10
-76.0
 20
182.5
 30
0.0
 11
-56.0
 21
185.833333333
 31
0.0
 12
-56.0
 22
179.166666667
 32
0.0
 13
-56.0
 23
179.166666667
 33
0.0
  0
TRACE
  5
289
100
AcDbEntity
  8
0
100
AcDbTrace
 10
76.0
 20
182.5
 30
0.0
 11
56.0
 21
179.166666667
 31
0.0
 12
56.0
 22
185.833333333
 32
0.0
 13
56.0
 23
185.833333333
 33
0.0
  0
LINE
  5
28A
100
AcDbEntity
  8
0
100
AcDbLine
 10
-56.0
 20
182.5
 30
0.0
 11
56.0
 21
182.5
 31
0.0
  0
MTEXT
  5
28B
100
AcDbEntity
  8
REGUA80
 62
     4
100
AcDbMText
 10
0.0
 20
192.5
 30
0.0
 40
20.0
 41
0.0
 71
     8
 72
     1
  1
152
 50
0.0
  0
POINT
  5
28C
100
AcDbEntity
  8
DEFPOINTS
 62
     0
100
AcDbPoint
 10
-76.0
 20
157.5
 30
0.0
  0
POINT
  5
28D
100
AcDbEntity
  8
DEFPOINTS
 62
     0
100
AcDbPoint
 10
76.0
 20
157.5
 30
0.0
  0
POINT
  5
28E
100
AcDbEntity
  8
DEFPOINTS
 62
     0
100
AcDbPoint
 10
0.0
 20
192.5
 30
0.0
  0
ENDBLK
  5
28F
100
AcDbEntity
  8
0
100
AcDbBlockEnd
  0
BLOCK
  5
297
100
AcDbEntity
 67
     1
  8
0
100
AcDbBlockBegin
  2
*D4
 70
     0
 10
0.0
 20
0.0
 30
0.0
  3
*D4
  1

  0
LINE
  5
298
100
AcDbEntity
  8
0
100
AcDbLine
 10
-155.0
 20
-37.940000057
 30
0.0
 11
-270.0
 21
-37.940000057
 31
0.0
  0
LINE
  5
299
100
AcDbEntity
  8
0
100
AcDbLine
 10
-155.0
 20
-7.940000057
 30
0.0
 11
-270.0
 21
-7.940000057
 31
0.0
  0
TRACE
  5
29A
100
AcDbEntity
  8
0
100
AcDbTrace
 10
-260.0
 20
-37.940000057
 30
0.0
 11
-263.333333333
 21
-17.940000057
 31
0.0
 12
-256.666666667
 22
-17.940000057
 32
0.0
 13
-256.666666667
 23
-17.940000057
 33
0.0
  0
TRACE
  5
29B
100
AcDbEntity
  8
0
100
AcDbTrace
 10
-260.0
 20
-7.940000057
 30
0.0
 11
-256.666666667
 21
-27.940000057
 31
0.0
 12
-263.333333333
 22
-27.940000057
 32
0.0
 13
-263.333333333
 23
-27.940000057
 33
0.0
  0
LINE
  5
29C
100
AcDbEntity
  8
0
100
AcDbLine
 10
-260.0
 20
-17.940000057
 30
0.0
 11
-260.0
 21
-27.940000057
 31
0.0
  0
POINT
  5
29D
100
AcDbEntity
  8
DEFPOINTS
  6
BYBLOCK
 62
     0
100
AcDbPoint
 10
-150.0
 20
-37.940000057
 30
0.0
  0
POINT
  5
29E
100
AcDbEntity
  8
DEFPOINTS
  6
BYBLOCK
 62
     0
100
AcDbPoint
 10
-150.0
 20
-7.940000057
 30
0.0
  0
MTEXT
  5
29F
100
AcDbEntity
  8
REGUA80
 62
     4
100
AcDbMText
 10
-270.0
 20
-22.940000057
 30
0.0
 40
20.0
 41
0.0
 71
     8
 72
     1
  1
30
 50
90.0
  0
ENDBLK
  5
2A0
100
AcDbEntity
  8
0
100
AcDbBlockEnd
  0
BLOCK
  5
2A3
100
AcDbEntity
 67
     1
  8
0
100
AcDbBlockBegin
  2
*D5
 70
     0
 10
0.0
 20
0.0
 30
0.0
  3
*D5
  1

  0
LINE
  5
2A4
100
AcDbEntity
  8
0
100
AcDbLine
 10
-155.0
 20
-7.940000057
 30
0.0
 11
-270.0
 21
-7.940000057
 31
0.0
  0
LINE
  5
2A5
100
AcDbEntity
  8
0
100
AcDbLine
 10
-155.0
 20
7.940000057
 30
0.0
 11
-270.0
 21
7.940000057
 31
0.0
  0
TRACE
  5
2A6
100
AcDbEntity
  8
0
100
AcDbTrace
 10
-260.0
 20
-7.940000057
 30
0.0
 11
-263.333333333
 21
12.059999943
 31
0.0
 12
-256.666666667
 22
12.059999943
 32
0.0
 13
-256.666666667
 23
12.059999943
 33
0.0
  0
TRACE
  5
2A7
100
AcDbEntity
  8
0
100
AcDbTrace
 10
-260.0
 20
7.940000057
 30
0.0
 11
-256.666666667
 21
-12.059999943
 31
0.0
 12
-263.333333333
 22
-12.059999943
 32
0.0
 13
-263.333333333
 23
-12.059999943
 33
0.0
  0
LINE
  5
2A8
100
AcDbEntity
  8
0
100
AcDbLine
 10
-260.0
 20
12.059999943
 30
0.0
 11
-260.0
 21
-12.059999943
 31
0.0
  0
POINT
  5
2A9
100
AcDbEntity
  8
DEFPOINTS
  6
BYBLOCK
 62
     0
100
AcDbPoint
 10
-150.0
 20
-7.940000057
 30
0.0
  0
POINT
  5
2AA
100
AcDbEntity
  8
DEFPOINTS
  6
BYBLOCK
 62
     0
100
AcDbPoint
 10
-150.0
 20
7.940000057
 30
0.0
  0
MTEXT
  5
2AB
100
AcDbEntity
  8
REGUA80
 62
     4
100
AcDbMText
 10
-270.0
 20
0.0
 30
0.0
 40
20.0
 41
0.0
 71
     8
 72
     1
  1
16
 50
90.0
  0
ENDBLK
  5
2AC
100
AcDbEntity
  8
0
100
AcDbBlockEnd
  0
BLOCK
  5
2CB
100
AcDbEntity
 67
     1
  8
0
100
AcDbBlockBegin
  2
*D6
 70
     0
 10
0.0
 20
0.0
 30
0.0
  3
*D6
  1

  0
LINE
  5
2CC
100
AcDbEntity
  8
0
100
AcDbLine
 10
1224.0
 20
162.5
 30
0.0
 11
1224.0
 21
192.5
 31
0.0
  0
LINE
  5
2CD
100
AcDbEntity
  8
0
100
AcDbLine
 10
1376.0
 20
162.5
 30
0.0
 11
1376.0
 21
192.5
 31
0.0
  0
TRACE
  5
2CE
100
AcDbEntity
  8
0
100
AcDbTrace
 10
1224.0
 20
182.5
 30
0.0
 11
1244.0
 21
185.833333333
 31
0.0
 12
1244.0
 22
179.166666667
 32
0.0
 13
1244.0
 23
179.166666667
 33
0.0
  0
TRACE
  5
2CF
100
AcDbEntity
  8
0
100
AcDbTrace
 10
1376.0
 20
182.5
 30
0.0
 11
1356.0
 21
179.166666667
 31
0.0
 12
1356.0
 22
185.833333333
 32
0.0
 13
1356.0
 23
185.833333333
 33
0.0
  0
LINE
  5
2D0
100
AcDbEntity
  8
0
100
AcDbLine
 10
1244.0
 20
182.5
 30
0.0
 11
1356.0
 21
182.5
 31
0.0
  0
MTEXT
  5
2D1
100
AcDbEntity
  8
REGUA80
 62
     4
100
AcDbMText
 10
1300.0
 20
192.5
 30
0.0
 40
20.0
 41
0.0
 71
     8
 72
     1
  1
152
 50
0.0
  0
POINT
  5
2D2
100
AcDbEntity
  8
DEFPOINTS
 62
     0
100
AcDbPoint
 10
1224.0
 20
157.5
 30
0.0
  0
POINT
  5
2D3
100
AcDbEntity
  8
DEFPOINTS
 62
     0
100
AcDbPoint
 10
1376.0
 20
157.5
 30
0.0
  0
POINT
  5
2D4
100
AcDbEntity
  8
DEFPOINTS
 62
     0
100
AcDbPoint
 10
1300.0
 20
192.5
 30
0.0
  0
ENDBLK
  5
2D5
100
AcDbEntity
  8
0
100
AcDbBlockEnd
  0
BLOCK
  5
2DB
100
AcDbEntity
 67
     1
  8
0
100
AcDbBlockBegin
  2
*D7
 70
     0
 10
0.0
 20
0.0
 30
0.0
  3
*D7
  1

  0
LINE
  5
2DC
100
AcDbEntity
  8
0
100
AcDbLine
 10
1145.0
 20
-37.940000057
 30
0.0
 11
1030.0
 21
-37.940000057
 31
0.0
  0
LINE
  5
2DD
100
AcDbEntity
  8
0
100
AcDbLine
 10
1145.0
 20
-7.940000057
 30
0.0
 11
1030.0
 21
-7.940000057
 31
0.0
  0
TRACE
  5
2DE
100
AcDbEntity
  8
0
100
AcDbTrace
 10
1040.0
 20
-37.940000057
 30
0.0
 11
1036.666666667
 21
-17.940000057
 31
0.0
 12
1043.333333333
 22
-17.940000057
 32
0.0
 13
1043.333333333
 23
-17.940000057
 33
0.0
  0
TRACE
  5
2DF
100
AcDbEntity
  8
0
100
AcDbTrace
 10
1040.0
 20
-7.940000057
 30
0.0
 11
1043.333333333
 21
-27.940000057
 31
0.0
 12
1036.666666667
 22
-27.940000057
 32
0.0
 13
1036.666666667
 23
-27.940000057
 33
0.0
  0
LINE
  5
2E0
100
AcDbEntity
  8
0
100
AcDbLine
 10
1040.0
 20
-17.940000057
 30
0.0
 11
1040.0
 21
-27.940000057
 31
0.0
  0
POINT
  5
2E1
100
AcDbEntity
  8
DEFPOINTS
  6
BYBLOCK
 62
     0
100
AcDbPoint
 10
1150.0
 20
-37.940000057
 30
0.0
  0
POINT
  5
2E2
100
AcDbEntity
  8
DEFPOINTS
  6
BYBLOCK
 62
     0
100
AcDbPoint
 10
1150.0
 20
-7.940000057
 30
0.0
  0
MTEXT
  5
2E3
100
AcDbEntity
  8
REGUA80
 62
     4
100
AcDbMText
 10
1030.0
 20
-22.940000057
 30
0.0
 40
20.0
 41
0.0
 71
     8
 72
     1
  1
30
 50
90.0
  0
ENDBLK
  5
2E4
100
AcDbEntity
  8
0
100
AcDbBlockEnd
  0
BLOCK
  5
2E7
100
AcDbEntity
 67
     1
  8
0
100
AcDbBlockBegin
  2
*D8
 70
     0
 10
0.0
 20
0.0
 30
0.0
  3
*D8
  1

  0
LINE
  5
2E8
100
AcDbEntity
  8
0
100
AcDbLine
 10
1145.0
 20
-7.940000057
 30
0.0
 11
1030.0
 21
-7.940000057
 31
0.0
  0
LINE
  5
2E9
100
AcDbEntity
  8
0
100
AcDbLine
 10
1145.0
 20
7.940000057
 30
0.0
 11
1030.0
 21
7.940000057
 31
0.0
  0
TRACE
  5
2EA
100
AcDbEntity
  8
0
100
AcDbTrace
 10
1040.0
 20
-7.940000057
 30
0.0
 11
1036.666666667
 21
12.059999943
 31
0.0
 12
1043.333333333
 22
12.059999943
 32
0.0
 13
1043.333333333
 23
12.059999943
 33
0.0
  0
TRACE
  5
2EB
100
AcDbEntity
  8
0
100
AcDbTrace
 10
1040.0
 20
7.940000057
 30
0.0
 11
1043.333333333
 21
-12.059999943
 31
0.0
 12
1036.666666667
 22
-12.059999943
 32
0.0
 13
1036.666666667
 23
-12.059999943
 33
0.0
  0
LINE
  5
2EC
100
AcDbEntity
  8
0
100
AcDbLine
 10
1040.0
 20
12.059999943
 30
0.0
 11
1040.0
 21
-12.059999943
 31
0.0
  0
POINT
  5
2ED
100
AcDbEntity
  8
DEFPOINTS
  6
BYBLOCK
 62
     0
100
AcDbPoint
 10
1150.0
 20
-7.940000057
 30
0.0
  0
POINT
  5
2EE
100
AcDbEntity
  8
DEFPOINTS
  6
BYBLOCK
 62
     0
100
AcDbPoint
 10
1150.0
 20
7.940000057
 30
0.0
  0
MTEXT
  5
2EF
100
AcDbEntity
  8
REGUA80
 62
     4
100
AcDbMText
 10
1030.0
 20
0.0
 30
0.0
 40
20.0
 41
0.0
 71
     8
 72
     1
  1
16
 50
90.0
  0
ENDBLK
  5
2F0
100
AcDbEntity
  8
0
100
AcDbBlockEnd
  0
BLOCK
  5
2FA
100
AcDbEntity
 67
     1
  8
0
100
AcDbBlockBegin
  2
*D9
 70
     0
 10
0.0
 20
0.0
 30
0.0
  3
*D9
  1

  0
LINE
  5
2FB
100
AcDbEntity
  8
0
100
AcDbLine
 10
1300.0
 20
-12.940000057
 30
0.0
 11
1300.0
 21
-127.940000057
 31
0.0
  0
LINE
  5
2FC
100
AcDbEntity
  8
0
100
AcDbLine
 10
1150.0
 20
-12.940000057
 30
0.0
 11
1150.0
 21
-127.940000057
 31
0.0
  0
TRACE
  5
2FD
100
AcDbEntity
  8
0
100
AcDbTrace
 10
1300.0
 20
-117.940000057
 30
0.0
 11
1280.0
 21
-121.273333391
 31
0.0
 12
1280.0
 22
-114.606666724
 32
0.0
 13
1280.0
 23
-114.606666724
 33
0.0
  0
TRACE
  5
2FE
100
AcDbEntity
  8
0
100
AcDbTrace
 10
1150.0
 20
-117.940000057
 30
0.0
 11
1170.0
 21
-114.606666724
 31
0.0
 12
1170.0
 22
-121.273333391
 32
0.0
 13
1170.0
 23
-121.273333391
 33
0.0
  0
LINE
  5
2FF
100
AcDbEntity
  8
0
100
AcDbLine
 10
1280.0
 20
-117.940000057
 30
0.0
 11
1170.0
 21
-117.940000057
 31
0.0
  0
MTEXT
  5
300
100
AcDbEntity
  8
REGUA80
 62
     4
100
AcDbMText
 10
1225.0
 20
-107.940000057
 30
0.0
 40
20.0
 41
0.0
 71
     8
 72
     1
  1
150
 50
0.0
  0
POINT
  5
301
100
AcDbEntity
  8
DEFPOINTS
 62
     0
100
AcDbPoint
 10
1300.0
 20
-7.940000057
 30
0.0
  0
POINT
  5
302
100
AcDbEntity
  8
DEFPOINTS
 62
     0
100
AcDbPoint
 10
1150.0
 20
-7.940000057
 30
0.0
  0
POINT
  5
303
100
AcDbEntity
  8
DEFPOINTS
 62
     0
100
AcDbPoint
 10
1225.0
 20
-107.940000057
 30
0.0
  0
ENDBLK
  5
304
100
AcDbEntity
  8
0
100
AcDbBlockEnd
  0
BLOCK
  5
307
100
AcDbEntity
 67
     1
  8
0
100
AcDbBlockBegin
  2
*D10
 70
     0
 10
0.0
 20
0.0
 30
0.0
  3
*D10
  1

  0
LINE
  5
308
100
AcDbEntity
  8
0
100
AcDbLine
 10
1450.0
 20
-12.940000057
 30
0.0
 11
1450.0
 21
-127.940000057
 31
0.0
  0
LINE
  5
309
100
AcDbEntity
  8
0
100
AcDbLine
 10
1300.0
 20
-12.940000057
 30
0.0
 11
1300.0
 21
-127.940000057
 31
0.0
  0
TRACE
  5
30A
100
AcDbEntity
  8
0
100
AcDbTrace
 10
1450.0
 20
-117.940000057
 30
0.0
 11
1430.0
 21
-121.273333391
 31
0.0
 12
1430.0
 22
-114.606666724
 32
0.0
 13
1430.0
 23
-114.606666724
 33
0.0
  0
TRACE
  5
30B
100
AcDbEntity
  8
0
100
AcDbTrace
 10
1300.0
 20
-117.940000057
 30
0.0
 11
1320.0
 21
-114.606666724
 31
0.0
 12
1320.0
 22
-121.273333391
 32
0.0
 13
1320.0
 23
-121.273333391
 33
0.0
  0
LINE
  5
30C
100
AcDbEntity
  8
0
100
AcDbLine
 10
1430.0
 20
-117.940000057
 30
0.0
 11
1320.0
 21
-117.940000057
 31
0.0
  0
MTEXT
  5
30D
100
AcDbEntity
  8
REGUA80
 62
     4
100
AcDbMText
 10
1375.0
 20
-107.940000057
 30
0.0
 40
20.0
 41
0.0
 71
     8
 72
     1
  1
150
 50
0.0
  0
POINT
  5
30E
100
AcDbEntity
  8
DEFPOINTS
 62
     0
100
AcDbPoint
 10
1450.0
 20
-7.940000057
 30
0.0
  0
POINT
  5
30F
100
AcDbEntity
  8
DEFPOINTS
 62
     0
100
AcDbPoint
 10
1300.0
 20
-7.940000057
 30
0.0
  0
POINT
  5
310
100
AcDbEntity
  8
DEFPOINTS
 62
     0
100
AcDbPoint
 10
1375.0
 20
-107.940000057
 30
0.0
  0
ENDBLK
  5
311
100
AcDbEntity
  8
0
100
AcDbBlockEnd
  0
BLOCK
  5
321
100
AcDbEntity
 67
     1
  8
0
100
AcDbBlockBegin
  2
*D11
 70
     0
 10
0.0
 20
0.0
 30
0.0
  3
*D11
  1

  0
LINE
  5
322
100
AcDbEntity
  8
0
100
AcDbLine
 10
-155.0
 20
-1161.900024414
 30
0.0
 11
-270.0
 21
-1161.900024414
 31
0.0
  0
LINE
  5
323
100
AcDbEntity
  8
0
100
AcDbLine
 10
-155.0
 20
-938.099975586
 30
0.0
 11
-270.0
 21
-938.099975586
 31
0.0
  0
TRACE
  5
324
100
AcDbEntity
  8
0
100
AcDbTrace
 10
-260.0
 20
-1161.900024414
 30
0.0
 11
-263.333333333
 21
-1141.900024414
 31
0.0
 12
-256.666666667
 22
-1141.900024414
 32
0.0
 13
-256.666666667
 23
-1141.900024414
 33
0.0
  0
TRACE
  5
325
100
AcDbEntity
  8
0
100
AcDbTrace
 10
-260.0
 20
-938.099975586
 30
0.0
 11
-256.666666667
 21
-958.099975586
 31
0.0
 12
-263.333333333
 22
-958.099975586
 32
0.0
 13
-263.333333333
 23
-958.099975586
 33
0.0
  0
LINE
  5
326
100
AcDbEntity
  8
0
100
AcDbLine
 10
-260.0
 20
-1141.900024414
 30
0.0
 11
-260.0
 21
-958.099975586
 31
0.0
  0
POINT
  5
327
100
AcDbEntity
  8
DEFPOINTS
  6
BYBLOCK
 62
     0
100
AcDbPoint
 10
-150.0
 20
-1161.900024414
 30
0.0
  0
POINT
  5
328
100
AcDbEntity
  8
DEFPOINTS
  6
BYBLOCK
 62
     0
100
AcDbPoint
 10
-150.0
 20
-938.099975586
 30
0.0
  0
MTEXT
  5
329
100
AcDbEntity
  8
REGUA80
 62
     4
100
AcDbMText
 10
-270.0
 20
-1050.0
 30
0.0
 40
20.0
 41
0.0
 71
     8
 72
     1
  1
224
 50
90.0
  0
ENDBLK
  5
32A
100
AcDbEntity
  8
0
100
AcDbBlockEnd
  0
BLOCK
  5
32D
100
AcDbEntity
 67
     1
  8
0
100
AcDbBlockBegin
  2
*D12
 70
     0
 10
0.0
 20
0.0
 30
0.0
  3
*D12
  1

  0
LINE
  5
32E
100
AcDbEntity
  8
0
100
AcDbLine
 10
-111.900001526
 20
-895.0
 30
0.0
 11
-111.900001526
 21
-780.0
 31
0.0
  0
LINE
  5
32F
100
AcDbEntity
  8
0
100
AcDbLine
 10
111.900001526
 20
-895.0
 30
0.0
 11
111.900001526
 21
-780.0
 31
0.0
  0
TRACE
  5
330
100
AcDbEntity
  8
0
100
AcDbTrace
 10
-111.900001526
 20
-790.0
 30
0.0
 11
-91.900001526
 21
-786.666666667
 31
0.0
 12
-91.900001526
 22
-793.333333333
 32
0.0
 13
-91.900001526
 23
-793.333333333
 33
0.0
  0
TRACE
  5
331
100
AcDbEntity
  8
0
100
AcDbTrace
 10
111.900001526
 20
-790.0
 30
0.0
 11
91.900001526
 21
-793.333333333
 31
0.0
 12
91.900001526
 22
-786.666666667
 32
0.0
 13
91.900001526
 23
-786.666666667
 33
0.0
  0
LINE
  5
332
100
AcDbEntity
  8
0
100
AcDbLine
 10
-91.900001526
 20
-790.0
 30
0.0
 11
91.900001526
 21
-790.0
 31
0.0
  0
MTEXT
  5
333
100
AcDbEntity
  8
REGUA80
 62
     4
100
AcDbMText
 10
0.0
 20
-780.0
 30
0.0
 40
20.0
 41
0.0
 71
     8
 72
     1
  1
224
 50
0.0
  0
POINT
  5
334
100
AcDbEntity
  8
DEFPOINTS
 62
     0
100
AcDbPoint
 10
-111.900001526
 20
-900.0
 30
0.0
  0
POINT
  5
335
100
AcDbEntity
  8
DEFPOINTS
 62
     0
100
AcDbPoint
 10
111.900001526
 20
-900.0
 30
0.0
  0
POINT
  5
336
100
AcDbEntity
  8
DEFPOINTS
 62
     0
100
AcDbPoint
 10
0.0
 20
-780.0
 30
0.0
  0
ENDBLK
  5
337
100
AcDbEntity
  8
0
100
AcDbBlockEnd
  0
BLOCK
  5
33E
100
AcDbEntity
 67
     1
  8
0
100
AcDbBlockBegin
  2
*D13
 70
     0
 10
0.0
 20
0.0
 30
0.0
  3
*D13
  1

  0
LINE
  5
33F
100
AcDbEntity
  8
0
100
AcDbLine
 10
1145.0
 20
-1200.0
 30
0.0
 11
1030.0
 21
-1200.0
 31
0.0
  0
LINE
  5
340
100
AcDbEntity
  8
0
100
AcDbLine
 10
1145.0
 20
-1161.900024414
 30
0.0
 11
1030.0
 21
-1161.900024414
 31
0.0
  0
TRACE
  5
341
100
AcDbEntity
  8
0
100
AcDbTrace
 10
1040.0
 20
-1200.0
 30
0.0
 11
1036.666666667
 21
-1180.0
 31
0.0
 12
1043.333333333
 22
-1180.0
 32
0.0
 13
1043.333333333
 23
-1180.0
 33
0.0
  0
TRACE
  5
342
100
AcDbEntity
  8
0
100
AcDbTrace
 10
1040.0
 20
-1161.900024414
 30
0.0
 11
1043.333333333
 21
-1181.900024414
 31
0.0
 12
1036.666666667
 22
-1181.900024414
 32
0.0
 13
1036.666666667
 23
-1181.900024414
 33
0.0
  0
LINE
  5
343
100
AcDbEntity
  8
0
100
AcDbLine
 10
1040.0
 20
-1180.0
 30
0.0
 11
1040.0
 21
-1181.900024414
 31
0.0
  0
POINT
  5
344
100
AcDbEntity
  8
DEFPOINTS
  6
BYBLOCK
 62
     0
100
AcDbPoint
 10
1150.0
 20
-1200.0
 30
0.0
  0
POINT
  5
345
100
AcDbEntity
  8
DEFPOINTS
  6
BYBLOCK
 62
     0
100
AcDbPoint
 10
1150.0
 20
-1161.900024414
 30
0.0
  0
MTEXT
  5
346
100
AcDbEntity
  8
REGUA80
 62
     4
100
AcDbMText
 10
1030.0
 20
-1180.950012207
 30
0.0
 40
20.0
 41
0.0
 71
     8
 72
     1
  1
38
 50
90.0
  0
ENDBLK
  5
347
100
AcDbEntity
  8
0
100
AcDbBlockEnd
  0
BLOCK
  5
34A
100
AcDbEntity
 67
     1
  8
0
100
AcDbBlockBegin
  2
*D14
 70
     0
 10
0.0
 20
0.0
 30
0.0
  3
*D14
  1

  0
LINE
  5
34B
100
AcDbEntity
  8
0
100
AcDbLine
 10
1145.0
 20
-1161.900024414
 30
0.0
 11
1030.0
 21
-1161.900024414
 31
0.0
  0
LINE
  5
34C
100
AcDbEntity
  8
0
100
AcDbLine
 10
1145.0
 20
-938.099975586
 30
0.0
 11
1030.0
 21
-938.099975586
 31
0.0
  0
TRACE
  5
34D
100
AcDbEntity
  8
0
100
AcDbTrace
 10
1040.0
 20
-1161.900024414
 30
0.0
 11
1036.666666667
 21
-1141.900024414
 31
0.0
 12
1043.333333333
 22
-1141.900024414
 32
0.0
 13
1043.333333333
 23
-1141.900024414
 33
0.0
  0
TRACE
  5
34E
100
AcDbEntity
  8
0
100
AcDbTrace
 10
1040.0
 20
-938.099975586
 30
0.0
 11
1043.333333333
 21
-958.099975586
 31
0.0
 12
1036.666666667
 22
-958.099975586
 32
0.0
 13
1036.666666667
 23
-958.099975586
 33
0.0
  0
LINE
  5
34F
100
AcDbEntity
  8
0
100
AcDbLine
 10
1040.0
 20
-1141.900024414
 30
0.0
 11
1040.0
 21
-958.099975586
 31
0.0
  0
POINT
  5
350
100
AcDbEntity
  8
DEFPOINTS
  6
BYBLOCK
 62
     0
100
AcDbPoint
 10
1150.0
 20
-1161.900024414
 30
0.0
  0
POINT
  5
351
100
AcDbEntity
  8
DEFPOINTS
  6
BYBLOCK
 62
     0
100
AcDbPoint
 10
1150.0
 20
-938.099975586
 30
0.0
  0
MTEXT
  5
352
100
AcDbEntity
  8
REGUA80
 62
     4
100
AcDbMText
 10
1030.0
 20
-1050.0
 30
0.0
 40
20.0
 41
0.0
 71
     8
 72
     1
  1
224
 50
90.0
  0
ENDBLK
  5
353
100
AcDbEntity
  8
0
100
AcDbBlockEnd
  0
BLOCK
  5
356
100
AcDbEntity
 67
     1
  8
0
100
AcDbBlockBegin
  2
*D15
 70
     0
 10
0.0
 20
0.0
 30
0.0
  3
*D15
  1

  0
LINE
  5
357
100
AcDbEntity
  8
0
100
AcDbLine
 10
1145.0
 20
-938.099975586
 30
0.0
 11
1030.0
 21
-938.099975586
 31
0.0
  0
LINE
  5
358
100
AcDbEntity
  8
0
100
AcDbLine
 10
1145.0
 20
-900.0
 30
0.0
 11
1030.0
 21
-900.0
 31
0.0
  0
TRACE
  5
359
100
AcDbEntity
  8
0
100
AcDbTrace
 10
1040.0
 20
-938.099975586
 30
0.0
 11
1036.666666667
 21
-918.099975586
 31
0.0
 12
1043.333333333
 22
-918.099975586
 32
0.0
 13
1043.333333333
 23
-918.099975586
 33
0.0
  0
TRACE
  5
35A
100
AcDbEntity
  8
0
100
AcDbTrace
 10
1040.0
 20
-900.0
 30
0.0
 11
1043.333333333
 21
-920.0
 31
0.0
 12
1036.666666667
 22
-920.0
 32
0.0
 13
1036.666666667
 23
-920.0
 33
0.0
  0
LINE
  5
35B
100
AcDbEntity
  8
0
100
AcDbLine
 10
1040.0
 20
-918.099975586
 30
0.0
 11
1040.0
 21
-920.0
 31
0.0
  0
POINT
  5
35C
100
AcDbEntity
  8
DEFPOINTS
  6
BYBLOCK
 62
     0
100
AcDbPoint
 10
1150.0
 20
-938.099975586
 30
0.0
  0
POINT
  5
35D
100
AcDbEntity
  8
DEFPOINTS
  6
BYBLOCK
 62
     0
100
AcDbPoint
 10
1150.0
 20
-900.0
 30
0.0
  0
MTEXT
  5
35E
100
AcDbEntity
  8
REGUA80
 62
     4
100
AcDbMText
 10
1030.0
 20
-919.049987793
 30
0.0
 40
20.0
 41
0.0
 71
     8
 72
     1
  1
38
 50
90.0
  0
ENDBLK
  5
35F
100
AcDbEntity
  8
0
100
AcDbBlockEnd
  0
BLOCK
  5
362
100
AcDbEntity
 67
     1
  8
0
100
AcDbBlockBegin
  2
*D16
 70
     0
 10
0.0
 20
0.0
 30
0.0
  3
*D16
  1

  0
LINE
  5
363
100
AcDbEntity
  8
0
100
AcDbLine
 10
1150.0
 20
-895.0
 30
0.0
 11
1150.0
 21
-780.0
 31
0.0
  0
LINE
  5
364
100
AcDbEntity
  8
0
100
AcDbLine
 10
1188.099975586
 20
-895.0
 30
0.0
 11
1188.099975586
 21
-780.0
 31
0.0
  0
TRACE
  5
365
100
AcDbEntity
  8
0
100
AcDbTrace
 10
1150.0
 20
-790.0
 30
0.0
 11
1170.0
 21
-786.666666667
 31
0.0
 12
1170.0
 22
-793.333333333
 32
0.0
 13
1170.0
 23
-793.333333333
 33
0.0
  0
TRACE
  5
366
100
AcDbEntity
  8
0
100
AcDbTrace
 10
1188.099975586
 20
-790.0
 30
0.0
 11
1168.099975586
 21
-793.333333333
 31
0.0
 12
1168.099975586
 22
-786.666666667
 32
0.0
 13
1168.099975586
 23
-786.666666667
 33
0.0
  0
LINE
  5
367
100
AcDbEntity
  8
0
100
AcDbLine
 10
1170.0
 20
-790.0
 30
0.0
 11
1168.099975586
 21
-790.0
 31
0.0
  0
MTEXT
  5
368
100
AcDbEntity
  8
REGUA80
 62
     4
100
AcDbMText
 10
1169.049987793
 20
-780.0
 30
0.0
 40
20.0
 41
0.0
 71
     8
 72
     1
  1
38
 50
0.0
  0
POINT
  5
369
100
AcDbEntity
  8
DEFPOINTS
 62
     0
100
AcDbPoint
 10
1150.0
 20
-900.0
 30
0.0
  0
POINT
  5
36A
100
AcDbEntity
  8
DEFPOINTS
 62
     0
100
AcDbPoint
 10
1188.099975586
 20
-900.0
 30
0.0
  0
POINT
  5
36B
100
AcDbEntity
  8
DEFPOINTS
 62
     0
100
AcDbPoint
 10
1169.049987793
 20
-780.0
 30
0.0
  0
ENDBLK
  5
36C
100
AcDbEntity
  8
0
100
AcDbBlockEnd
  0
BLOCK
  5
36F
100
AcDbEntity
 67
     1
  8
0
100
AcDbBlockBegin
  2
*D17
 70
     0
 10
0.0
 20
0.0
 30
0.0
  3
*D17
  1

  0
LINE
  5
370
100
AcDbEntity
  8
0
100
AcDbLine
 10
1188.099975586
 20
-895.0
 30
0.0
 11
1188.099975586
 21
-780.0
 31
0.0
  0
LINE
  5
371
100
AcDbEntity
  8
0
100
AcDbLine
 10
1411.900024414
 20
-895.0
 30
0.0
 11
1411.900024414
 21
-780.0
 31
0.0
  0
TRACE
  5
372
100
AcDbEntity
  8
0
100
AcDbTrace
 10
1188.099975586
 20
-790.0
 30
0.0
 11
1208.099975586
 21
-786.666666667
 31
0.0
 12
1208.099975586
 22
-793.333333333
 32
0.0
 13
1208.099975586
 23
-793.333333333
 33
0.0
  0
TRACE
  5
373
100
AcDbEntity
  8
0
100
AcDbTrace
 10
1411.900024414
 20
-790.0
 30
0.0
 11
1391.900024414
 21
-793.333333333
 31
0.0
 12
1391.900024414
 22
-786.666666667
 32
0.0
 13
1391.900024414
 23
-786.666666667
 33
0.0
  0
LINE
  5
374
100
AcDbEntity
  8
0
100
AcDbLine
 10
1208.099975586
 20
-790.0
 30
0.0
 11
1391.900024414
 21
-790.0
 31
0.0
  0
MTEXT
  5
375
100
AcDbEntity
  8
REGUA80
 62
     4
100
AcDbMText
 10
1300.0
 20
-780.0
 30
0.0
 40
20.0
 41
0.0
 71
     8
 72
     1
  1
224
 50
0.0
  0
POINT
  5
376
100
AcDbEntity
  8
DEFPOINTS
 62
     0
100
AcDbPoint
 10
1188.099975586
 20
-900.0
 30
0.0
  0
POINT
  5
377
100
AcDbEntity
  8
DEFPOINTS
 62
     0
100
AcDbPoint
 10
1411.900024414
 20
-900.0
 30
0.0
  0
POINT
  5
378
100
AcDbEntity
  8
DEFPOINTS
 62
     0
100
AcDbPoint
 10
1300.0
 20
-780.0
 30
0.0
  0
ENDBLK
  5
379
100
AcDbEntity
  8
0
100
AcDbBlockEnd
  0
BLOCK
  5
37C
100
AcDbEntity
 67
     1
  8
0
100
AcDbBlockBegin
  2
*D18
 70
     0
 10
0.0
 20
0.0
 30
0.0
  3
*D18
  1

  0
LINE
  5
37D
100
AcDbEntity
  8
0
100
AcDbLine
 10
1411.900024414
 20
-895.0
 30
0.0
 11
1411.900024414
 21
-780.0
 31
0.0
  0
LINE
  5
37E
100
AcDbEntity
  8
0
100
AcDbLine
 10
1450.0
 20
-895.0
 30
0.0
 11
1450.0
 21
-780.0
 31
0.0
  0
TRACE
  5
37F
100
AcDbEntity
  8
0
100
AcDbTrace
 10
1411.900024414
 20
-790.0
 30
0.0
 11
1431.900024414
 21
-786.666666667
 31
0.0
 12
1431.900024414
 22
-793.333333333
 32
0.0
 13
1431.900024414
 23
-793.333333333
 33
0.0
  0
TRACE
  5
380
100
AcDbEntity
  8
0
100
AcDbTrace
 10
1450.0
 20
-790.0
 30
0.0
 11
1430.0
 21
-793.333333333
 31
0.0
 12
1430.0
 22
-786.666666667
 32
0.0
 13
1430.0
 23
-786.666666667
 33
0.0
  0
LINE
  5
381
100
AcDbEntity
  8
0
100
AcDbLine
 10
1431.900024414
 20
-790.0
 30
0.0
 11
1430.0
 21
-790.0
 31
0.0
  0
MTEXT
  5
382
100
AcDbEntity
  8
REGUA80
 62
     4
100
AcDbMText
 10
1430.950012207
 20
-780.0
 30
0.0
 40
20.0
 41
0.0
 71
     8
 72
     1
  1
38
 50
0.0
  0
POINT
  5
383
100
AcDbEntity
  8
DEFPOINTS
 62
     0
100
AcDbPoint
 10
1411.900024414
 20
-900.0
 30
0.0
  0
POINT
  5
384
100
AcDbEntity
  8
DEFPOINTS
 62
     0
100
AcDbPoint
 10
1450.0
 20
-900.0
 30
0.0
  0
POINT
  5
385
100
AcDbEntity
  8
DEFPOINTS
 62
     0
100
AcDbPoint
 10
1430.950012207
 20
-780.0
 30
0.0
  0
ENDBLK
  5
386
100
AcDbEntity
  8
0
100
AcDbBlockEnd
  0
BLOCK
  5
389
100
AcDbEntity
 67
     1
  8
0
100
AcDbBlockBegin
  2
*D19
 70
     0
 10
0.0
 20
0.0
 30
0.0
  3
*D19
  1

  0
LINE
  5
38A
100
AcDbEntity
  8
0
100
AcDbLine
 10
1145.0
 20
-1200.0
 30
0.0
 11
960.0
 21
-1200.0
 31
0.0
  0
LINE
  5
38B
100
AcDbEntity
  8
0
100
AcDbLine
 10
1145.0
 20
-900.0
 30
0.0
 11
960.0
 21
-900.0
 31
0.0
  0
TRACE
  5
38C
100
AcDbEntity
  8
0
100
AcDbTrace
 10
970.0
 20
-1200.0
 30
0.0
 11
966.666666667
 21
-1180.0
 31
0.0
 12
973.333333333
 22
-1180.0
 32
0.0
 13
973.333333333
 23
-1180.0
 33
0.0
  0
TRACE
  5
38D
100
AcDbEntity
  8
0
100
AcDbTrace
 10
970.0
 20
-900.0
 30
0.0
 11
973.333333333
 21
-920.0
 31
0.0
 12
966.666666667
 22
-920.0
 32
0.0
 13
966.666666667
 23
-920.0
 33
0.0
  0
LINE
  5
38E
100
AcDbEntity
  8
0
100
AcDbLine
 10
970.0
 20
-1180.0
 30
0.0
 11
970.0
 21
-920.0
 31
0.0
  0
POINT
  5
38F
100
AcDbEntity
  8
DEFPOINTS
  6
BYBLOCK
 62
     0
100
AcDbPoint
 10
1150.0
 20
-1200.0
 30
0.0
  0
POINT
  5
390
100
AcDbEntity
  8
DEFPOINTS
  6
BYBLOCK
 62
     0
100
AcDbPoint
 10
1150.0
 20
-900.0
 30
0.0
  0
MTEXT
  5
391
100
AcDbEntity
  8
REGUA80
 62
     4
100
AcDbMText
 10
960.0
 20
-1050.0
 30
0.0
 40
20.0
 41
0.0
 71
     8
 72
     1
  1
300
 50
90.0
  0
ENDBLK
  5
392
100
AcDbEntity
  8
0
100
AcDbBlockEnd
  0
BLOCK
  5
395
100
AcDbEntity
 67
     1
  8
0
100
AcDbBlockBegin
  2
*D20
 70
     0
 10
0.0
 20
0.0
 30
0.0
  3
*D20
  1

  0
LINE
  5
396
100
AcDbEntity
  8
0
100
AcDbLine
 10
1150.0
 20
-895.0
 30
0.0
 11
1150.0
 21
-710.0
 31
0.0
  0
LINE
  5
397
100
AcDbEntity
  8
0
100
AcDbLine
 10
1450.0
 20
-895.0
 30
0.0
 11
1450.0
 21
-710.0
 31
0.0
  0
TRACE
  5
398
100
AcDbEntity
  8
0
100
AcDbTrace
 10
1150.0
 20
-720.0
 30
0.0
 11
1170.0
 21
-716.666666667
 31
0.0
 12
1170.0
 22
-723.333333333
 32
0.0
 13
1170.0
 23
-723.333333333
 33
0.0
  0
TRACE
  5
399
100
AcDbEntity
  8
0
100
AcDbTrace
 10
1450.0
 20
-720.0
 30
0.0
 11
1430.0
 21
-723.333333333
 31
0.0
 12
1430.0
 22
-716.666666667
 32
0.0
 13
1430.0
 23
-716.666666667
 33
0.0
  0
LINE
  5
39A
100
AcDbEntity
  8
0
100
AcDbLine
 10
1170.0
 20
-720.0
 30
0.0
 11
1430.0
 21
-720.0
 31
0.0
  0
MTEXT
  5
39B
100
AcDbEntity
  8
REGUA80
 62
     4
100
AcDbMText
 10
1300.0
 20
-710.0
 30
0.0
 40
20.0
 41
0.0
 71
     8
 72
     1
  1
300
 50
0.0
  0
POINT
  5
39C
100
AcDbEntity
  8
DEFPOINTS
 62
     0
100
AcDbPoint
 10
1150.0
 20
-900.0
 30
0.0
  0
POINT
  5
39D
100
AcDbEntity
  8
DEFPOINTS
 62
     0
100
AcDbPoint
 10
1450.0
 20
-900.0
 30
0.0
  0
POINT
  5
39E
100
AcDbEntity
  8
DEFPOINTS
 62
     0
100
AcDbPoint
 10
1300.0
 20
-710.0
 30
0.0
  0
ENDBLK
  5
39F
100
AcDbEntity
  8
0
100
AcDbBlockEnd
  0
ENDSEC
  0
SECTION
  2
ENTITIES
  0
MTEXT
  5
1ED
100
AcDbEntity
  8
REGUA120
 62
     2
100
AcDbMText
 10
-325.0
 20
614.9194
 30
0.0
 40
38.0
 41
0.0
 71
     7
 72
     1
  1
DET. DA BASE DOS PILARES
 50
0.0
  0
MTEXT
  5
1EE
100
AcDbEntity
  8
REGUA80
 62
     4
100
AcDbMText
 10
-324.7535
 20
568.7381
 30
0.0
 40
20.0
 41
0.0
 71
     7
 72
     1
  1
ESC.: 1:10
 50
0.0
  0
MTEXT
  5
1EF
100
AcDbEntity
  8
REGUA120
 62
     2
100
AcDbMText
 10
-1625.0
 20
62.4194
 30
0.0
 40
38.0
 41
0.0
 71
     7
 72
     1
  1
CHUMBADOR %%c19 L=600mm
 50
0.0
  0
MTEXT
  5
1F0
100
AcDbEntity
  8
REGUA80
 62
     4
100
AcDbMText
 10
-1624.7535
 20
16.2381
 30
0.0
 40
20.0
 41
0.0
 71
     7
 72
     1
  1
SAE 1020
 50
0.0
  0
LWPOLYLINE
  5
1F1
100
AcDbEntity
  8
PERFIL
100
AcDbPolyline
 90
        4
 70
     1
 43
0.0
 10
-1290.475000381
 20
-375.0
 10
-1290.475000381
 20
-975.0
 10
-1309.524999619
 20
-975.0
 10
-1309.524999619
 20
-375.0
  0
LINE
  5
1F2
100
AcDbEntity
  8
PERFIL
100
AcDbLine
 10
-1304.762499809
 20
-525.0
 30
0.0
 11
-1304.762499809
 21
-375.0
 31
0.0
  0
LINE
  5
1F3
100
AcDbEntity
  8
PERFIL
100
AcDbLine
 10
-1295.237500191
 20
-525.0
 30
0.0
 11
-1295.237500191
 21
-375.0
 31
0.0
  0
LINE
  5
1F4
100
AcDbEntity
  8
PERFIL
100
AcDbLine
 10
-1309.524999619
 20
-525.0
 30
0.0
 11
-1290.475000381
 21
-525.0
 31
0.0
  0
LINE
  5
1F5
100
AcDbEntity
  8
PERFIL
100
AcDbLine
 10
-1304.762499809
 20
-925.0
 30
0.0
 11
-1304.762499809
 21
-975.0
 31
0.0
  0
LINE
  5
1F6
100
AcDbEntity
  8
PERFIL
100
AcDbLine
 10
-1295.237500191
 20
-925.0
 30
0.0
 11
-1295.237500191
 21
-975.0
 31
0.0
  0
LINE
  5
1F7
100
AcDbEntity
  8
PERFIL
100
AcDbLine
 10
-1309.524999619
 20
-925.0
 30
0.0
 11
-1290.475000381
 21
-925.0
 31
0.0
  0
LWPOLYLINE
  5
1F8
100
AcDbEntity
  8
EIXO
100
AcDbPolyline
 90
        2
 70
     0
 43
0.0
 10
-1300.0
 20
-241.650005341
 10
-1300.0
 20
-1032.149997711
  0
ARC
  5
1F9
100
AcDbEntity
  8
CHU-CHUMBADOR
  6
CONTINUOUS
100
AcDbCircle
 10
-1295.502081714
 20
-344.377419389
 30
0.0
 40
11.096335013
100
AcDbArc
 50
270.0
 51
293.913168486
  0
ARC
  5
1FA
100
AcDbEntity
  8
CHU-CHUMBADOR
  6
CONTINUOUS
100
AcDbCircle
 10
-1295.502081714
 20
-348.4725829
 30
0.0
 40
11.096335013
100
AcDbArc
 50
66.086831514
 51
90.0
  0
LINE
  5
1FB
100
AcDbEntity
  8
CHU-CHUMBADOR
100
AcDbLine
 10
-1313.493754857
 20
-355.473754401
 30
0.0
 11
-1286.506245143
 21
-355.473754401
 31
0.0
  0
LINE
  5
1FC
100
AcDbEntity
  8
CHU-CHUMBADOR
100
AcDbLine
 10
-1313.493754857
 20
-337.376247887
 30
0.0
 11
-1286.506245143
 21
-337.376247887
 31
0.0
  0
ARC
  5
1FD
100
AcDbEntity
  8
CHU-CHUMBADOR
  6
CONTINUOUS
100
AcDbCircle
 10
-1304.497918286
 20
-344.377419389
 30
0.0
 40
11.096335013
100
AcDbArc
 50
246.086831514
 51
270.0
  0
ARC
  5
1FE
100
AcDbEntity
  8
CHU-CHUMBADOR
  6
CONTINUOUS
100
AcDbCircle
 10
-1313.493754857
 20
-344.377419389
 30
0.0
 40
11.096335013
100
AcDbArc
 50
246.086831514
 51
293.913168486
  0
LINE
  5
1FF
100
AcDbEntity
  8
CHU-CHUMBADOR
100
AcDbLine
 10
-1317.991673143
 20
-354.521254059
 30
0.0
 11
-1317.991673143
 21
-338.32874823
 31
0.0
  0
LINE
  5
200
100
AcDbEntity
  8
CHU-CHUMBADOR
100
AcDbLine
 10
-1308.995836571
 20
-354.521254059
 30
0.0
 11
-1308.995836571
 21
-338.32874823
 31
0.0
  0
ARC
  5
201
100
AcDbEntity
  8
CHU-CHUMBADOR
  6
CONTINUOUS
100
AcDbCircle
 10
-1313.493754857
 20
-348.4725829
 30
0.0
 40
11.096335013
100
AcDbArc
 50
66.086831514
 51
113.913168486
  0
ARC
  5
202
100
AcDbEntity
  8
CHU-CHUMBADOR
  6
CONTINUOUS
100
AcDbCircle
 10
-1304.497918286
 20
-348.4725829
 30
0.0
 40
11.096335013
100
AcDbArc
 50
90.0
 51
113.913168486
  0
ARC
  5
203
100
AcDbEntity
  8
CHU-CHUMBADOR
  6
CONTINUOUS
100
AcDbCircle
 10
-1286.506245143
 20
-344.377419389
 30
0.0
 40
11.096335013
100
AcDbArc
 50
246.086831514
 51
293.913168486
  0
LINE
  5
204
100
AcDbEntity
  8
CHU-CHUMBADOR
100
AcDbLine
 10
-1291.004163429
 20
-354.521254059
 30
0.0
 11
-1291.004163429
 21
-338.32874823
 31
0.0
  0
LINE
  5
205
100
AcDbEntity
  8
CHU-CHUMBADOR
100
AcDbLine
 10
-1282.008326857
 20
-354.521254059
 30
0.0
 11
-1282.008326857
 21
-338.32874823
 31
0.0
  0
ARC
  5
206
100
AcDbEntity
  8
CHU-CHUMBADOR
  6
CONTINUOUS
100
AcDbCircle
 10
-1286.506245143
 20
-348.4725829
 30
0.0
 40
11.096335013
100
AcDbArc
 50
66.086831514
 51
113.913168486
  0
LWPOLYLINE
  5
207
100
AcDbEntity
  8
CHU-CHUMBADOR
100
AcDbPolyline
 90
        4
 70
     1
 43
0.0
 10
-1321.907499123
 20
-328.327501869
 10
-1278.092500877
 20
-328.327501869
 10
-1278.092500877
 20
-326.422501945
 10
-1321.907499123
 20
-326.422501945
  0
ARC
  5
208
100
AcDbEntity
  8
CHU-CHUMBADOR
  6
CONTINUOUS
100
AcDbCircle
 10
-1295.502081714
 20
-306.277420915
 30
0.0
 40
11.096335013
100
AcDbArc
 50
270.0
 51
293.913168486
  0
ARC
  5
209
100
AcDbEntity
  8
CHU-CHUMBADOR
  6
CONTINUOUS
100
AcDbCircle
 10
-1295.502081714
 20
-310.372584426
 30
0.0
 40
11.096335013
100
AcDbArc
 50
66.086831514
 51
90.0
  0
LINE
  5
20A
100
AcDbEntity
  8
CHU-CHUMBADOR
100
AcDbLine
 10
-1313.493754857
 20
-317.373755927
 30
0.0
 11
-1286.506245143
 21
-317.373755927
 31
0.0
  0
LINE
  5
20B
100
AcDbEntity
  8
CHU-CHUMBADOR
100
AcDbLine
 10
-1313.493754857
 20
-299.276249413
 30
0.0
 11
-1286.506245143
 21
-299.276249413
 31
0.0
  0
ARC
  5
20C
100
AcDbEntity
  8
CHU-CHUMBADOR
  6
CONTINUOUS
100
AcDbCircle
 10
-1304.497918286
 20
-306.277420915
 30
0.0
 40
11.096335013
100
AcDbArc
 50
246.086831514
 51
270.0
  0
ARC
  5
20D
100
AcDbEntity
  8
CHU-CHUMBADOR
  6
CONTINUOUS
100
AcDbCircle
 10
-1313.493754857
 20
-306.277420915
 30
0.0
 40
11.096335013
100
AcDbArc
 50
246.086831514
 51
293.913168486
  0
LINE
  5
20E
100
AcDbEntity
  8
CHU-CHUMBADOR
100
AcDbLine
 10
-1317.991673143
 20
-316.421255585
 30
0.0
 11
-1317.991673143
 21
-300.228749756
 31
0.0
  0
LINE
  5
20F
100
AcDbEntity
  8
CHU-CHUMBADOR
100
AcDbLine
 10
-1308.995836571
 20
-316.421255585
 30
0.0
 11
-1308.995836571
 21
-300.228749756
 31
0.0
  0
ARC
  5
210
100
AcDbEntity
  8
CHU-CHUMBADOR
  6
CONTINUOUS
100
AcDbCircle
 10
-1313.493754857
 20
-310.372584426
 30
0.0
 40
11.096335013
100
AcDbArc
 50
66.086831514
 51
113.913168486
  0
ARC
  5
211
100
AcDbEntity
  8
CHU-CHUMBADOR
  6
CONTINUOUS
100
AcDbCircle
 10
-1304.497918286
 20
-310.372584426
 30
0.0
 40
11.096335013
100
AcDbArc
 50
90.0
 51
113.913168486
  0
ARC
  5
212
100
AcDbEntity
  8
CHU-CHUMBADOR
  6
CONTINUOUS
100
AcDbCircle
 10
-1286.506245143
 20
-306.277420915
 30
0.0
 40
11.096335013
100
AcDbArc
 50
246.086831514
 51
293.913168486
  0
LINE
  5
213
100
AcDbEntity
  8
CHU-CHUMBADOR
100
AcDbLine
 10
-1291.004163429
 20
-316.421255585
 30
0.0
 11
-1291.004163429
 21
-300.228749756
 31
0.0
  0
LINE
  5
214
100
AcDbEntity
  8
CHU-CHUMBADOR
100
AcDbLine
 10
-1282.008326857
 20
-316.421255585
 30
0.0
 11
-1282.008326857
 21
-300.228749756
 31
0.0
  0
ARC
  5
215
100
AcDbEntity
  8
CHU-CHUMBADOR
  6
CONTINUOUS
100
AcDbCircle
 10
-1286.506245143
 20
-310.372584426
 30
0.0
 40
11.096335013
100
AcDbArc
 50
66.086831514
 51
113.913168486
  0
ARC
  5
216
100
AcDbEntity
  8
CHU-CHUMBADOR
  6
CONTINUOUS
100
AcDbCircle
 10
-1295.502081714
 20
-268.177422441
 30
0.0
 40
11.096335013
100
AcDbArc
 50
270.0
 51
293.913168486
  0
ARC
  5
217
100
AcDbEntity
  8
CHU-CHUMBADOR
  6
CONTINUOUS
100
AcDbCircle
 10
-1295.502081714
 20
-272.272585952
 30
0.0
 40
11.096335013
100
AcDbArc
 50
66.086831514
 51
90.0
  0
LINE
  5
218
100
AcDbEntity
  8
CHU-CHUMBADOR
100
AcDbLine
 10
-1313.493754857
 20
-279.273757453
 30
0.0
 11
-1286.506245143
 21
-279.273757453
 31
0.0
  0
LINE
  5
219
100
AcDbEntity
  8
CHU-CHUMBADOR
100
AcDbLine
 10
-1313.493754857
 20
-261.176250939
 30
0.0
 11
-1286.506245143
 21
-261.176250939
 31
0.0
  0
ARC
  5
21A
100
AcDbEntity
  8
CHU-CHUMBADOR
  6
CONTINUOUS
100
AcDbCircle
 10
-1304.497918286
 20
-268.177422441
 30
0.0
 40
11.096335013
100
AcDbArc
 50
246.086831514
 51
270.0
  0
ARC
  5
21B
100
AcDbEntity
  8
CHU-CHUMBADOR
  6
CONTINUOUS
100
AcDbCircle
 10
-1313.493754857
 20
-268.177422441
 30
0.0
 40
11.096335013
100
AcDbArc
 50
246.086831514
 51
293.913168486
  0
LINE
  5
21C
100
AcDbEntity
  8
CHU-CHUMBADOR
100
AcDbLine
 10
-1317.991673143
 20
-278.32125711
 30
0.0
 11
-1317.991673143
 21
-262.128751282
 31
0.0
  0
LINE
  5
21D
100
AcDbEntity
  8
CHU-CHUMBADOR
100
AcDbLine
 10
-1308.995836571
 20
-278.32125711
 30
0.0
 11
-1308.995836571
 21
-262.128751282
 31
0.0
  0
ARC
  5
21E
100
AcDbEntity
  8
CHU-CHUMBADOR
  6
CONTINUOUS
100
AcDbCircle
 10
-1313.493754857
 20
-272.272585952
 30
0.0
 40
11.096335013
100
AcDbArc
 50
66.086831514
 51
113.913168486
  0
ARC
  5
21F
100
AcDbEntity
  8
CHU-CHUMBADOR
  6
CONTINUOUS
100
AcDbCircle
 10
-1304.497918286
 20
-272.272585952
 30
0.0
 40
11.096335013
100
AcDbArc
 50
90.0
 51
113.913168486
  0
ARC
  5
220
100
AcDbEntity
  8
CHU-CHUMBADOR
  6
CONTINUOUS
100
AcDbCircle
 10
-1286.506245143
 20
-268.177422441
 30
0.0
 40
11.096335013
100
AcDbArc
 50
246.086831514
 51
293.913168486
  0
LINE
  5
221
100
AcDbEntity
  8
CHU-CHUMBADOR
100
AcDbLine
 10
-1291.004163429
 20
-278.32125711
 30
0.0
 11
-1291.004163429
 21
-262.128751282
 31
0.0
  0
LINE
  5
222
100
AcDbEntity
  8
CHU-CHUMBADOR
100
AcDbLine
 10
-1282.008326857
 20
-278.32125711
 30
0.0
 11
-1282.008326857
 21
-262.128751282
 31
0.0
  0
ARC
  5
223
100
AcDbEntity
  8
CHU-CHUMBADOR
  6
CONTINUOUS
100
AcDbCircle
 10
-1286.506245143
 20
-272.272585952
 30
0.0
 40
11.096335013
100
AcDbArc
 50
66.086831514
 51
113.913168486
  0
LINE
  5
224
100
AcDbEntity
  8
0
100
AcDbLine
 10
-1437.159994507
 20
-545.0
 30
0.0
 11
-1162.840005493
 21
-545.0
 31
0.0
  0
HATCH
  5
225
100
AcDbEntity
  8
0
100
AcDbHatch
 10
0.0
 20
0.0
 30
0.0
210
0.0
220
0.0
230
1.0
  2
ANSI31
 70
     0
 71
     0
 91
     1
 92
     1
 93
     4
 72
     1
 10
-1437.159994507
 20
-545.0
 11
-1437.159994507
 21
-560.0
 72
     1
 10
-1437.159994507
 20
-560.0
 11
-1312.024999619
 21
-560.0
 72
     1
 10
-1312.024999619
 20
-560.0
 11
-1312.024999619
 21
-545.0
 72
     1
 10
-1312.024999619
 20
-545.0
 11
-1437.159994507
 21
-545.0
 97
     0
 75
     0
 76
     1
 52
0.0
 41
1.0
 77
     0
 78
     1
 53
45.0
 43
0.0
 44
0.0
 45
-2.24506403
 46
2.24506403
 79
     0
 98
     1
 10
0.0
 20
0.0
  0
HATCH
  5
226
100
AcDbEntity
  8
0
100
AcDbHatch
 10
0.0
 20
0.0
 30
0.0
210
0.0
220
0.0
230
1.0
  2
ANSI31
 70
     0
 71
     0
 91
     1
 92
     1
 93
     4
 72
     1
 10
-1162.840005493
 20
-545.0
 11
-1162.840005493
 21
-560.0
 72
     1
 10
-1162.840005493
 20
-560.0
 11
-1287.975000381
 21
-560.0
 72
     1
 10
-1287.975000381
 20
-560.0
 11
-1287.975000381
 21
-545.0
 72
     1
 10
-1287.975000381
 20
-545.0
 11
-1162.840005493
 21
-545.0
 97
     0
 75
     0
 76
     1
 52
0.0
 41
1.0
 77
     0
 78
     1
 53
45.0
 43
0.0
 44
0.0
 45
-2.24506403
 46
2.24506403
 79
     0
 98
     1
 10
0.0
 20
0.0
  0
TRACE
  5
227
100
AcDbEntity
  8
0
100
AcDbTrace
 10
-1181.89000473
 20
-545.0
 30
0.0
 11
-1186.056671397
 21
-520.0
 31
0.0
 12
-1177.723338064
 22
-520.0
 32
0.0
 13
-1177.723338064
 23
-520.0
 33
0.0
  0
MTEXT
  5
228
100
AcDbEntity
  8
0
 62
     4
100
AcDbMText
 10
-1161.89000473
 20
-422.5
 30
0.0
 40
25.0
 41
0.0
 71
     7
 72
     1
  1
TOPO DO CONCRETO BRUTO
 50
0.0
  0
LWPOLYLINE
  5
229
100
AcDbEntity
  8
0
100
AcDbPolyline
 90
        3
 70
     0
 43
0.0
 10
-1181.89000473
 20
-520.0
 10
-1181.89000473
 20
-435.0
 10
-1090.390665627
 20
-435.0
  0
DIMENSION
  5
235
100
AcDbEntity
  8
0
100
AcDbDimension
  2
*D0
 10
-1556.684994125
 20
-525.0
 30
0.0
 11
-1556.684994125
 21
-750.0
 31
0.0
 70
   160
 42
450.0
  1
450
  3
ISO-25
100
AcDbAlignedDimension
 13
-1309.524999619
 23
-975.0
 33
0.0
 14
-1309.524999619
 24
-525.0
 34
0.0
 50
90.0
100
AcDbRotatedDimension
1001
ACAD
1000
DSTYLE
1002
{
1070
    41
1040
20.0
1070
   147
1040
10.0
1070
   140
1040
20
1002
}
  0
DIMENSION
  5
241
100
AcDbEntity
  8
0
100
AcDbDimension
  2
*D1
 10
-1556.684994125
 20
-375.0
 30
0.0
 11
-1556.684994125
 21
-450.0
 31
0.0
 70
   160
 42
150.0
  1
150
  3
ISO-25
100
AcDbAlignedDimension
 13
-1309.524999619
 23
-525.0
 33
0.0
 14
-1309.524999619
 24
-375.0
 34
0.0
 50
90.0
100
AcDbRotatedDimension
1001
ACAD
1000
DSTYLE
1002
{
1070
    41
1040
20.0
1070
   147
1040
10.0
1070
   140
1040
20
1002
}
  0
DIMENSION
  5
24D
100
AcDbEntity
  8
0
100
AcDbDimension
  2
*D2
 10
-1626.684994125
 20
-375.0
 30
0.0
 11
-1626.684994125
 21
-675.0
 31
0.0
 70
   160
 42
600.0
  1
600
  3
ISO-25
100
AcDbAlignedDimension
 13
-1309.524999619
 23
-975.0
 33
0.0
 14
-1309.524999619
 24
-375.0
 34
0.0
 50
90.0
100
AcDbRotatedDimension
1001
ACAD
1000
DSTYLE
1002
{
1070
    41
1040
20.0
1070
   147
1040
10.0
1070
   140
1040
20
1002
}
  0
ARC
  5
24E
100
AcDbEntity
  8
CHU-CHUMBADOR
  6
CONTINUOUS
100
AcDbCircle
 10
-1295.502081714
 20
-1001.5274171
 30
0.0
 40
11.096335013
100
AcDbArc
 50
270.0
 51
293.913168486
  0
ARC
  5
24F
100
AcDbEntity
  8
CHU-CHUMBADOR
  6
CONTINUOUS
100
AcDbCircle
 10
-1295.502081714
 20
-1005.622580611
 30
0.0
 40
11.096335013
100
AcDbArc
 50
66.086831514
 51
90.0
  0
LINE
  5
250
100
AcDbEntity
  8
CHU-CHUMBADOR
100
AcDbLine
 10
-1313.493754857
 20
-1012.623752113
 30
0.0
 11
-1286.506245143
 21
-1012.623752113
 31
0.0
  0
LINE
  5
251
100
AcDbEntity
  8
CHU-CHUMBADOR
100
AcDbLine
 10
-1313.493754857
 20
-994.526245598
 30
0.0
 11
-1286.506245143
 21
-994.526245598
 31
0.0
  0
ARC
  5
252
100
AcDbEntity
  8
CHU-CHUMBADOR
  6
CONTINUOUS
100
AcDbCircle
 10
-1304.497918286
 20
-1001.5274171
 30
0.0
 40
11.096335013
100
AcDbArc
 50
246.086831514
 51
270.0
  0
ARC
  5
253
100
AcDbEntity
  8
CHU-CHUMBADOR
  6
CONTINUOUS
100
AcDbCircle
 10
-1313.493754857
 20
-1001.5274171
 30
0.0
 40
11.096335013
100
AcDbArc
 50
246.086831514
 51
293.913168486
  0
LINE
  5
254
100
AcDbEntity
  8
CHU-CHUMBADOR
100
AcDbLine
 10
-1317.991673143
 20
-1011.67125177
 30
0.0
 11
-1317.991673143
 21
-995.478745941
 31
0.0
  0
LINE
  5
255
100
AcDbEntity
  8
CHU-CHUMBADOR
100
AcDbLine
 10
-1308.995836571
 20
-1011.67125177
 30
0.0
 11
-1308.995836571
 21
-995.478745941
 31
0.0
  0
ARC
  5
256
100
AcDbEntity
  8
CHU-CHUMBADOR
  6
CONTINUOUS
100
AcDbCircle
 10
-1313.493754857
 20
-1005.622580611
 30
0.0
 40
11.096335013
100
AcDbArc
 50
66.086831514
 51
113.913168486
  0
ARC
  5
257
100
AcDbEntity
  8
CHU-CHUMBADOR
  6
CONTINUOUS
100
AcDbCircle
 10
-1304.497918286
 20
-1005.622580611
 30
0.0
 40
11.096335013
100
AcDbArc
 50
90.0
 51
113.913168486
  0
ARC
  5
258
100
AcDbEntity
  8
CHU-CHUMBADOR
  6
CONTINUOUS
100
AcDbCircle
 10
-1286.506245143
 20
-1001.5274171
 30
0.0
 40
11.096335013
100
AcDbArc
 50
246.086831514
 51
293.913168486
  0
LINE
  5
259
100
AcDbEntity
  8
CHU-CHUMBADOR
100
AcDbLine
 10
-1291.004163429
 20
-1011.67125177
 30
0.0
 11
-1291.004163429
 21
-995.478745941
 31
0.0
  0
LINE
  5
25A
100
AcDbEntity
  8
CHU-CHUMBADOR
100
AcDbLine
 10
-1282.008326857
 20
-1011.67125177
 30
0.0
 11
-1282.008326857
 21
-995.478745941
 31
0.0
  0
ARC
  5
25B
100
AcDbEntity
  8
CHU-CHUMBADOR
  6
CONTINUOUS
100
AcDbCircle
 10
-1286.506245143
 20
-1005.622580611
 30
0.0
 40
11.096335013
100
AcDbArc
 50
66.086831514
 51
113.913168486
  0
TRACE
  5
25C
100
AcDbEntity
  8
0
100
AcDbTrace
 10
-1282.008326857
 20
-1003.574998856
 30
0.0
 11
-1267.276935583
 21
-982.951051071
 31
0.0
 12
-1261.384379073
 22
-988.843607581
 32
0.0
 13
-1261.384379073
 23
-988.843607581
 33
0.0
  0
MTEXT
  5
25D
100
AcDbEntity
  8
0
 62
     4
100
AcDbMText
 10
-1172.008326857
 20
-893.574998856
 30
0.0
 40
25.0
 41
0.0
 71
     4
 72
     1
  1
PORCA\P%%c19
 50
0.0
  0
LWPOLYLINE
  5
25E
100
AcDbEntity
  8
0
100
AcDbPolyline
 90
        3
 70
     0
 43
0.0
 10
-1264.330657328
 20
-985.897329326
 10
-1172.008326857
 20
-893.574998856
 10
-1093.258477061
 20
-893.574998856
  0
TRACE
  5
25F
100
AcDbEntity
  8
0
100
AcDbTrace
 10
-1309.524999619
 20
-750.0
 30
0.0
 11
-1334.524999619
 21
-754.166666667
 31
0.0
 12
-1334.524999619
 22
-745.833333333
 32
0.0
 13
-1334.524999619
 23
-745.833333333
 33
0.0
  0
MTEXT
  5
260
100
AcDbEntity
  8
0
 62
     4
100
AcDbMText
 10
-1469.524999619
 20
-737.5
 30
0.0
 40
25.0
 41
0.0
 71
     9
 72
     1
  1
%%c19
 50
0.0
  0
LWPOLYLINE
  5
261
100
AcDbEntity
  8
0
100
AcDbPolyline
 90
        3
 70
     0
 43
0.0
 10
-1334.524999619
 20
-750.0
 10
-1379.524999619
 20
-750.0
 10
-1456.524919525
 20
-750.0
  0
TRACE
  5
262
100
AcDbEntity
  8
0
100
AcDbTrace
 10
-1282.008326857
 20
-346.425001144
 30
0.0
 11
-1267.276935583
 21
-325.80105336
 31
0.0
 12
-1261.384379073
 22
-331.69360987
 32
0.0
 13
-1261.384379073
 23
-331.69360987
 33
0.0
  0
MTEXT
  5
263
100
AcDbEntity
  8
0
 62
     4
100
AcDbMText
 10
-1172.008326857
 20
-236.425001144
 30
0.0
 40
25.0
 41
0.0
 71
     4
 72
     1
  1
PORCA E CONTRA-PORCA\P%%c19
 50
0.0
  0
LWPOLYLINE
  5
264
100
AcDbEntity
  8
0
100
AcDbPolyline
 90
        3
 70
     0
 43
0.0
 10
-1264.330657328
 20
-328.747331615
 10
-1172.008326857
 20
-236.425001144
 10
-1082.008927672
 20
-236.425001144
  0
TRACE
  5
265
100
AcDbEntity
  8
0
100
AcDbTrace
 10
-1282.008326857
 20
-308.32500267
 30
0.0
 11
-1263.361769183
 21
-291.159135433
 31
0.0
 12
-1258.802382926
 22
-298.134552368
 32
0.0
 13
-1258.802382926
 23
-298.134552368
 33
0.0
  0
LWPOLYLINE
  5
266
100
AcDbEntity
  8
0
100
AcDbPolyline
 90
        2
 70
     0
 43
0.0
 10
-1261.082076054
 20
-294.646843901
 10
-1172.008326857
 20
-236.425001144
  0
TRACE
  5
267
100
AcDbEntity
  8
0
100
AcDbTrace
 10
-1282.008326857
 20
-270.225004196
 30
0.0
 11
-1259.334866333
 21
-258.899135621
 31
0.0
 12
-1256.887204121
 22
-266.864899498
 32
0.0
 13
-1256.887204121
 23
-266.864899498
 33
0.0
  0
LWPOLYLINE
  5
268
100
AcDbEntity
  8
0
100
AcDbPolyline
 90
        2
 70
     0
 43
0.0
 10
-1258.111035227
 20
-262.88201756
 10
-1172.008326857
 20
-236.425001144
  0
TRACE
  5
269
100
AcDbEntity
  8
0
100
AcDbTrace
 10
-1321.907499123
 20
-327.375001907
 30
0.0
 11
-1342.531446907
 21
-312.643610633
 31
0.0
 12
-1336.638890397
 22
-306.751054123
 32
0.0
 13
-1336.638890397
 23
-306.751054123
 33
0.0
  0
MTEXT
  5
26A
100
AcDbEntity
  8
0
 62
     4
100
AcDbMText
 10
-1521.907499123
 20
-204.875001907
 30
0.0
 40
25.0
 41
0.0
 71
     9
 72
     1
  1
ARRUELA %%c19
 50
0.0
  0
LWPOLYLINE
  5
26B
100
AcDbEntity
  8
0
100
AcDbPolyline
 90
        3
 70
     0
 43
0.0
 10
-1339.585168652
 20
-309.697332378
 10
-1431.907499123
 20
-217.375001907
 10
-1514.907178703
 20
-217.375001907
  0
LINE
  5
26C
100
AcDbEntity
  8
PERFIL
100
AcDbLine
 10
-76.0
 20
7.940000057
 30
0.0
 11
-76.0
 21
225.0
 31
0.0
  0
LINE
  5
26D
100
AcDbEntity
  8
PERFIL
100
AcDbLine
 10
-69.400001526
 20
7.940000057
 30
0.0
 11
-69.400001526
 21
225.0
 31
0.0
  0
LINE
  5
26E
100
AcDbEntity
  8
PERFIL
100
AcDbLine
 10
76.0
 20
7.940000057
 30
0.0
 11
76.0
 21
225.0
 31
0.0
  0
LINE
  5
26F
100
AcDbEntity
  8
PERFIL
100
AcDbLine
 10
69.400001526
 20
7.940000057
 30
0.0
 11
69.400001526
 21
225.0
 31
0.0
  0
LWPOLYLINE
  5
270
100
AcDbEntity
  8
EIXO
100
AcDbPolyline
 90
        6
 70
     0
 43
0.0
 10
-85.120002747
 20
225.0
 10
-15.199999809
 20
225.0
 10
-3.039999962
 20
247.800003052
 10
3.039999962
 20
202.199996948
 10
15.199999809
 20
225.0
 10
85.120002747
 20
225.0
  0
LWPOLYLINE
  5
271
100
AcDbEntity
  8
FAB-CHAPA
100
AcDbPolyline
 90
        4
 70
     1
 43
0.0
 10
-150.0
 20
-7.940000057
 10
150.0
 20
-7.940000057
 10
150.0
 20
7.940000057
 10
-150.0
 20
7.940000057
  0
TRACE
  5
272
100
AcDbEntity
  8
0
 62
   255
100
AcDbTrace
 10
101.375
 20
-7.940000057
 30
0.0
 11
122.425003052
 21
-7.940000057
 31
0.0
 12
101.375
 22
7.940000057
 32
0.0
 13
122.425003052
 23
7.940000057
 33
0.0
  0
LWPOLYLINE
  5
273
100
AcDbEntity
  8
FAB-CHAPA
100
AcDbPolyline
 90
        4
 70
     1
 43
0.0
 10
101.375
 20
-7.940000057
 10
122.425003052
 20
-7.940000057
 10
122.425003052
 20
7.940000057
 10
101.375
 20
7.940000057
  0
LINE
  5
274
100
AcDbEntity
  8
EIXO
100
AcDbLine
 10
111.900001526
 20
-23.819999695
 30
0.0
 11
111.900001526
 21
23.819999695
 31
0.0
  0
TRACE
  5
275
100
AcDbEntity
  8
0
 62
   255
100
AcDbTrace
 10
-122.425003052
 20
-7.940000057
 30
0.0
 11
-101.375
 21
-7.940000057
 31
0.0
 12
-122.425003052
 22
7.940000057
 32
0.0
 13
-101.375
 23
7.940000057
 33
0.0
  0
LWPOLYLINE
  5
276
100
AcDbEntity
  8
FAB-CHAPA
100
AcDbPolyline
 90
        4
 70
     1
 43
0.0
 10
-122.425003052
 20
-7.940000057
 10
-101.375
 20
-7.940000057
 10
-101.375
 20
7.940000057
 10
-122.425003052
 20
7.940000057
  0
LINE
  5
277
100
AcDbEntity
  8
EIXO
100
AcDbLine
 10
-111.900001526
 20
-23.819999695
 30
0.0
 11
-111.900001526
 21
23.819999695
 31
0.0
  0
TRACE
  5
278
100
AcDbEntity
  8
0
 62
   255
100
AcDbTrace
 10
101.375
 20
-7.940000057
 30
0.0
 11
122.425003052
 21
-7.940000057
 31
0.0
 12
101.375
 22
7.940000057
 32
0.0
 13
122.425003052
 23
7.940000057
 33
0.0
  0
LWPOLYLINE
  5
279
100
AcDbEntity
  8
FAB-CHAPA
100
AcDbPolyline
 90
        4
 70
     1
 43
0.0
 10
101.375
 20
-7.940000057
 10
122.425003052
 20
-7.940000057
 10
122.425003052
 20
7.940000057
 10
101.375
 20
7.940000057
  0
LINE
  5
27A
100
AcDbEntity
  8
EIXO
100
AcDbLine
 10
111.900001526
 20
-23.819999695
 30
0.0
 11
111.900001526
 21
23.819999695
 31
0.0
  0
TRACE
  5
27B
100
AcDbEntity
  8
0
 62
   255
100
AcDbTrace
 10
-122.425003052
 20
-7.940000057
 30
0.0
 11
-101.375
 21
-7.940000057
 31
0.0
 12
-122.425003052
 22
7.940000057
 32
0.0
 13
-101.375
 23
7.940000057
 33
0.0
  0
LWPOLYLINE
  5
27C
100
AcDbEntity
  8
FAB-CHAPA
100
AcDbPolyline
 90
        4
 70
     1
 43
0.0
 10
-122.425003052
 20
-7.940000057
 10
-101.375
 20
-7.940000057
 10
-101.375
 20
7.940000057
 10
-122.425003052
 20
7.940000057
  0
LINE
  5
27D
100
AcDbEntity
  8
EIXO
100
AcDbLine
 10
-111.900001526
 20
-23.819999695
 30
0.0
 11
-111.900001526
 21
23.819999695
 31
0.0
  0
LINE
  5
27E
100
AcDbEntity
  8
0
 62
     4
100
AcDbLine
 10
-150.0
 20
-7.940000057
 30
0.0
 11
-180.0
 21
-37.940000057
 31
0.0
  0
LINE
  5
27F
100
AcDbEntity
  8
0
 62
     4
100
AcDbLine
 10
150.0
 20
-7.940000057
 30
0.0
 11
180.0
 21
-37.940000057
 31
0.0
  0
TRACE
  5
280
100
AcDbEntity
  8
0
100
AcDbTrace
 10
-310.0
 20
-37.940000057
 30
0.0
 11
-314.166666667
 21
-12.940000057
 31
0.0
 12
-305.833333333
 22
-12.940000057
 32
0.0
 13
-305.833333333
 23
-12.940000057
 33
0.0
  0
MTEXT
  5
281
100
AcDbEntity
  8
0
 62
     4
100
AcDbMText
 10
-400.0
 20
112.059999943
 30
0.0
 40
25.0
 41
0.0
 71
     6
 72
     1
  1
TOPO DO \PCONCRETO
 50
0.0
  0
LWPOLYLINE
  5
282
100
AcDbEntity
  8
0
100
AcDbPolyline
 90
        3
 70
     0
 43
0.0
 10
-310.0
 20
-12.940000057
 10
-310.0
 20
112.059999943
 10
-390.999759674
 20
112.059999943
  0
LINE
  5
283
100
AcDbEntity
  8
0
100
AcDbLine
 10
-330.0
 20
-37.940000057
 30
0.0
 11
300.0
 21
-37.940000057
 31
0.0
  0
DIMENSION
  5
290
100
AcDbEntity
  8
0
100
AcDbDimension
  2
*D3
 10
-76.0
 20
182.5
 30
0.0
 11
0.0
 21
182.5
 31
0.0
 70
    32
  1
152
  3
ISO-25
100
AcDbAlignedDimension
 13
76.0
 23
157.5
 33
0.0
 14
-76.0
 24
157.5
 34
0.0
100
AcDbRotatedDimension
1001
ACAD
1000
DSTYLE
1002
{
1070
    41
1040
20.0
1070
   147
1040
10.0
1070
   140
1040
20
1002
}
  0
TRACE
  5
291
100
AcDbEntity
  8
0
100
AcDbTrace
 10
76.0
 20
135.0
 30
0.0
 11
101.0
 21
139.166666667
 31
0.0
 12
101.0
 22
130.833333333
 32
0.0
 13
101.0
 23
130.833333333
 33
0.0
  0
LWPOLYLINE
  5
292
100
AcDbEntity
  8
0
100
AcDbPolyline
 90
        2
 70
     0
 43
0.0
 10
101.0
 20
135.0
 10
146.0
 20
135.0
  0
TEXT
  5
293
100
AcDbEntity
  8
REGUA140
  6
CONTINUOUS
 62
     2
100
AcDbText
 10
146.0
 20
141.7856
 30
0.0
 40
23.0
  1
PILAR
 50
0.0
 41
0.8
  7
STANDARD
 72
     0
100
AcDbText
  0
MTEXT
  5
294
100
AcDbEntity
  8
REGUA80
100
AcDbMText
 10
146.0
 20
104.8406
 30
0.0
 40
20.3
 41
0.0
 71
     7
 72
     1
  1
W 150 22.5
 50
0.0
  0
MTEXT
  5
295
100
AcDbEntity
  8
REGUA80
100
AcDbMText
 10
146.0
 20
71.9499
 30
0.0
 40
20.3
 41
0.0
 71
     7
 72
     1
  1
ASTM A572 GR50
 50
0.0
  0
DIMENSION
  5
2A1
100
AcDbEntity
  8
0
100
AcDbDimension
  2
*D4
 10
-260.0
 20
-7.940000057
 30
0.0
 11
-260.0
 21
-22.940000057
 31
0.0
 70
   160
 42
30.0
  1
30
  3
ISO-25
100
AcDbAlignedDimension
 13
-150.0
 23
-37.940000057
 33
0.0
 14
-150.0
 24
-7.940000057
 34
0.0
 50
90.0
100
AcDbRotatedDimension
1001
ACAD
1000
DSTYLE
1002
{
1070
    41
1040
20.0
1070
   147
1040
10.0
1070
   140
1040
20
1002
}
  0
DIMENSION
  5
2AD
100
AcDbEntity
  8
0
100
AcDbDimension
  2
*D5
 10
-260.0
 20
7.940000057
 30
0.0
 11
-260.0
 21
0.0
 31
0.0
 70
   160
 42
15.880000114
  1
16
  3
ISO-25
100
AcDbAlignedDimension
 13
-150.0
 23
-7.940000057
 33
0.0
 14
-150.0
 24
7.940000057
 34
0.0
 50
90.0
100
AcDbRotatedDimension
1001
ACAD
1000
DSTYLE
1002
{
1070
    41
1040
20.0
1070
   147
1040
10.0
1070
   140
1040
20
1002
}
  0
TRACE
  5
2AE
100
AcDbEntity
  8
0
 62
   255
100
AcDbTrace
 10
-30.4
 20
7.940000057
 30
0.0
 11
-45.891419768
 21
27.999337651
 31
0.0
 12
-38.548314615
 22
31.939293381
 32
0.0
 13
-38.548314615
 23
31.939293381
 33
0.0
  0
LWPOLYLINE
  5
2AF
100
AcDbEntity
  8
0
 62
   255
100
AcDbPolyline
 90
        2
 70
     0
 43
0.0
 10
-42.219867191
 20
29.969315516
 10
-186.0
 20
297.940000057
  0
MTEXT
  5
2B0
100
AcDbEntity
  8
DIM-1
100
AcDbMText
 10
-319.0
 20
297.940000057
 30
0.0
 40
15.0
 41
0.0
 71
     5
 72
     1
  1
TIP
 50
0.0
  0
LINE
  5
2B1
100
AcDbEntity
  8
G-SIMBOLO
100
AcDbLine
 10
-186.0
 20
297.940000057
 30
0.0
 11
-286.0
 21
297.940000057
 31
0.0
  0
LINE
  5
2B2
100
AcDbEntity
  8
G-SIMBOLO
100
AcDbLine
 10
-286.0
 20
297.940000057
 30
0.0
 11
-300.1421
 21
312.082100057
 31
0.0
  0
LINE
  5
2B3
100
AcDbEntity
  8
G-SIMBOLO
100
AcDbLine
 10
-286.0
 20
297.940000057
 30
0.0
 11
-300.1421
 21
283.797900057
 31
0.0
  0
LINE
  5
2B4
100
AcDbEntity
  8
G-SIMBOLO
100
AcDbLine
 10
-233.3501
 20
319.714700057
 30
0.0
 11
-233.3501
 21
276.165300057
 31
0.0
  0
LINE
  5
2B5
100
AcDbEntity
  8
G-SIMBOLO
100
AcDbLine
 10
-233.3501
 20
276.165300057
 30
0.0
 11
-208.071
 21
297.940000057
 31
0.0
  0
LINE
  5
2B6
100
AcDbEntity
  8
G-SIMBOLO
100
AcDbLine
 10
-233.3501
 20
319.714700057
 30
0.0
 11
-208.071
 21
297.940000057
 31
0.0
  0
MTEXT
  5
2B7
100
AcDbEntity
  8
DIM-1
100
AcDbMText
 10
-250.1717
 20
282.877400057
 30
0.0
 40
15.0
 41
0.0
 71
     5
 72
     1
  1
8
 50
0.0
  0
LWPOLYLINE
  5
2B8
100
AcDbEntity
  8
FAB-CHAPA
100
AcDbPolyline
 90
        4
 70
     1
 43
0.0
 10
1150.0
 20
-7.940000057
 10
1450.0
 20
-7.940000057
 10
1450.0
 20
7.940000057
 10
1150.0
 20
7.940000057
  0
TRACE
  5
2B9
100
AcDbEntity
  8
0
 62
   255
100
AcDbTrace
 10
1177.574951172
 20
-7.940000057
 30
0.0
 11
1198.625
 21
-7.940000057
 31
0.0
 12
1177.574951172
 22
7.940000057
 32
0.0
 13
1198.625
 23
7.940000057
 33
0.0
  0
LWPOLYLINE
  5
2BA
100
AcDbEntity
  8
FAB-CHAPA
100
AcDbPolyline
 90
        4
 70
     1
 43
0.0
 10
1177.574951172
 20
-7.940000057
 10
1198.625
 20
-7.940000057
 10
1198.625
 20
7.940000057
 10
1177.574951172
 20
7.940000057
  0
LINE
  5
2BB
100
AcDbEntity
  8
EIXO
100
AcDbLine
 10
1188.099975586
 20
-23.819999695
 30
0.0
 11
1188.099975586
 21
23.819999695
 31
0.0
  0
TRACE
  5
2BC
100
AcDbEntity
  8
0
 62
   255
100
AcDbTrace
 10
1177.574951172
 20
-7.940000057
 30
0.0
 11
1198.625
 21
-7.940000057
 31
0.0
 12
1177.574951172
 22
7.940000057
 32
0.0
 13
1198.625
 23
7.940000057
 33
0.0
  0
LWPOLYLINE
  5
2BD
100
AcDbEntity
  8
FAB-CHAPA
100
AcDbPolyline
 90
        4
 70
     1
 43
0.0
 10
1177.574951172
 20
-7.940000057
 10
1198.625
 20
-7.940000057
 10
1198.625
 20
7.940000057
 10
1177.574951172
 20
7.940000057
  0
LINE
  5
2BE
100
AcDbEntity
  8
EIXO
100
AcDbLine
 10
1188.099975586
 20
-23.819999695
 30
0.0
 11
1188.099975586
 21
23.819999695
 31
0.0
  0
TRACE
  5
2BF
100
AcDbEntity
  8
0
 62
   255
100
AcDbTrace
 10
1401.375
 20
-7.940000057
 30
0.0
 11
1422.425048828
 21
-7.940000057
 31
0.0
 12
1401.375
 22
7.940000057
 32
0.0
 13
1422.425048828
 23
7.940000057
 33
0.0
  0
LWPOLYLINE
  5
2C0
100
AcDbEntity
  8
FAB-CHAPA
100
AcDbPolyline
 90
        4
 70
     1
 43
0.0
 10
1401.375
 20
-7.940000057
 10
1422.425048828
 20
-7.940000057
 10
1422.425048828
 20
7.940000057
 10
1401.375
 20
7.940000057
  0
LINE
  5
2C1
100
AcDbEntity
  8
EIXO
100
AcDbLine
 10
1411.900024414
 20
-23.819999695
 30
0.0
 11
1411.900024414
 21
23.819999695
 31
0.0
  0
TRACE
  5
2C2
100
AcDbEntity
  8
0
 62
   255
100
AcDbTrace
 10
1401.375
 20
-7.940000057
 30
0.0
 11
1422.425048828
 21
-7.940000057
 31
0.0
 12
1401.375
 22
7.940000057
 32
0.0
 13
1422.425048828
 23
7.940000057
 33
0.0
  0
LWPOLYLINE
  5
2C3
100
AcDbEntity
  8
FAB-CHAPA
100
AcDbPolyline
 90
        4
 70
     1
 43
0.0
 10
1401.375
 20
-7.940000057
 10
1422.425048828
 20
-7.940000057
 10
1422.425048828
 20
7.940000057
 10
1401.375
 20
7.940000057
  0
LINE
  5
2C4
100
AcDbEntity
  8
EIXO
100
AcDbLine
 10
1411.900024414
 20
-23.819999695
 30
0.0
 11
1411.900024414
 21
23.819999695
 31
0.0
  0
LINE
  5
2C5
100
AcDbEntity
  8
PERFIL
100
AcDbLine
 10
1224.0
 20
9.527999878
 30
0.0
 11
1224.0
 21
270.0
 31
0.0
  0
LINE
  5
2C6
100
AcDbEntity
  8
PERFIL
100
AcDbLine
 10
1376.0
 20
9.527999878
 30
0.0
 11
1376.0
 21
270.0
 31
0.0
  0
LINE
  5
2C7
100
AcDbEntity
  8
L-HIDDEN
100
AcDbLine
 10
1297.099975586
 20
9.527999878
 30
0.0
 11
1297.099975586
 21
270.0
 31
0.0
  0
LINE
  5
2C8
100
AcDbEntity
  8
L-HIDDEN
100
AcDbLine
 10
1302.900024414
 20
9.527999878
 30
0.0
 11
1302.900024414
 21
270.0
 31
0.0
  0
LWPOLYLINE
  5
2C9
100
AcDbEntity
  8
EIXO
100
AcDbPolyline
 90
        6
 70
     0
 43
0.0
 10
1214.880004883
 20
270.0
 10
1284.800048828
 20
270.0
 10
1296.959960938
 20
292.799987793
 10
1303.040039063
 20
247.199996948
 10
1315.199951172
 20
270.0
 10
1385.119995117
 20
270.0
  0
DIMENSION
  5
2D6
100
AcDbEntity
  8
0
100
AcDbDimension
  2
*D6
 10
1224.0
 20
182.5
 30
0.0
 11
1300.0
 21
182.5
 31
0.0
 70
    32
  1
152
  3
ISO-25
100
AcDbAlignedDimension
 13
1376.0
 23
157.5
 33
0.0
 14
1224.0
 24
157.5
 34
0.0
100
AcDbRotatedDimension
1001
ACAD
1000
DSTYLE
1002
{
1070
    41
1040
20.0
1070
   147
1040
10.0
1070
   140
1040
20
1002
}
  0
TRACE
  5
2D7
100
AcDbEntity
  8
0
100
AcDbTrace
 10
1376.0
 20
135.0
 30
0.0
 11
1401.0
 21
139.166666667
 31
0.0
 12
1401.0
 22
130.833333333
 32
0.0
 13
1401.0
 23
130.833333333
 33
0.0
  0
MTEXT
  5
2D8
100
AcDbEntity
  8
0
 62
     4
100
AcDbMText
 10
1466.0
 20
147.5
 30
0.0
 40
25.0
 41
0.0
 71
     7
 72
     1
  1
PILAR
 50
0.0
  0
LWPOLYLINE
  5
2D9
100
AcDbEntity
  8
0
100
AcDbPolyline
 90
        3
 70
     0
 43
0.0
 10
1401.0
 20
135.0
 10
1446.0
 20
135.0
 10
1524.499859825
 20
135.0
  0
DIMENSION
  5
2E5
100
AcDbEntity
  8
0
100
AcDbDimension
  2
*D7
 10
1040.0
 20
-7.940000057
 30
0.0
 11
1040.0
 21
-22.940000057
 31
0.0
 70
   160
 42
30.0
  1
30
  3
ISO-25
100
AcDbAlignedDimension
 13
1150.0
 23
-37.940000057
 33
0.0
 14
1150.0
 24
-7.940000057
 34
0.0
 50
90.0
100
AcDbRotatedDimension
1001
ACAD
1000
DSTYLE
1002
{
1070
    41
1040
20.0
1070
   147
1040
10.0
1070
   140
1040
20
1002
}
  0
DIMENSION
  5
2F1
100
AcDbEntity
  8
0
100
AcDbDimension
  2
*D8
 10
1040.0
 20
7.940000057
 30
0.0
 11
1040.0
 21
0.0
 31
0.0
 70
   160
 42
15.880000114
  1
16
  3
ISO-25
100
AcDbAlignedDimension
 13
1150.0
 23
-7.940000057
 33
0.0
 14
1150.0
 24
7.940000057
 34
0.0
 50
90.0
100
AcDbRotatedDimension
1001
ACAD
1000
DSTYLE
1002
{
1070
    41
1040
20.0
1070
   147
1040
10.0
1070
   140
1040
20
1002
}
  0
LINE
  5
2F2
100
AcDbEntity
  8
0
 62
     4
100
AcDbLine
 10
1150.0
 20
-7.940000057
 30
0.0
 11
1120.0
 21
-37.940000057
 31
0.0
  0
LINE
  5
2F3
100
AcDbEntity
  8
0
 62
     4
100
AcDbLine
 10
1450.0
 20
-7.940000057
 30
0.0
 11
1480.0
 21
-37.940000057
 31
0.0
  0
TRACE
  5
2F4
100
AcDbEntity
  8
0
100
AcDbTrace
 10
960.0
 20
-37.940000057
 30
0.0
 11
955.833333333
 21
-12.940000057
 31
0.0
 12
964.166666667
 22
-12.940000057
 32
0.0
 13
964.166666667
 23
-12.940000057
 33
0.0
  0
MTEXT
  5
2F5
100
AcDbEntity
  8
0
 62
     4
100
AcDbMText
 10
870.0
 20
112.059999943
 30
0.0
 40
25.0
 41
0.0
 71
     6
 72
     1
  1
TOPO DO \PCONCRETO
 50
0.0
  0
LWPOLYLINE
  5
2F6
100
AcDbEntity
  8
0
100
AcDbPolyline
 90
        3
 70
     0
 43
0.0
 10
960.0
 20
-12.940000057
 10
960.0
 20
112.059999943
 10
879.000240326
 20
112.059999943
  0
LINE
  5
2F7
100
AcDbEntity
  8
0
100
AcDbLine
 10
950.0
 20
-37.940000057
 30
0.0
 11
1650.0
 21
-37.940000057
 31
0.0
  0
HATCH
  5
2F8
100
AcDbEntity
  8
0
100
AcDbHatch
 10
0.0
 20
0.0
 30
0.0
210
0.0
220
0.0
230
1.0
  2
ANSI31
 70
     0
 71
     0
 91
     1
 92
     1
 93
     4
 72
     1
 10
950.0
 20
-37.940000057
 11
950.0
 21
-57.940000057
 72
     1
 10
950.0
 20
-57.940000057
 11
1650.0
 21
-57.940000057
 72
     1
 10
1650.0
 20
-57.940000057
 11
1650.0
 21
-37.940000057
 72
     1
 10
1650.0
 20
-37.940000057
 11
950.0
 21
-37.940000057
 97
     0
 75
     0
 76
     1
 52
0.0
 41
1.0
 77
     0
 78
     1
 53
45.0
 43
0.0
 44
0.0
 45
-2.24506403
 46
2.24506403
 79
     0
 98
     1
 10
0.0
 20
0.0
  0
DIMENSION
  5
305
100
AcDbEntity
  8
0
100
AcDbDimension
  2
*D9
 10
1300.0
 20
-117.940000057
 30
0.0
 11
1225.0
 21
-117.940000057
 31
0.0
 70
    32
  1
150
  3
ISO-25
100
AcDbAlignedDimension
 13
1150.0
 23
-7.940000057
 33
0.0
 14
1300.0
 24
-7.940000057
 34
0.0
100
AcDbRotatedDimension
1001
ACAD
1000
DSTYLE
1002
{
1070
    41
1040
20.0
1070
   147
1040
10.0
1070
   140
1040
20
1002
}
  0
DIMENSION
  5
312
100
AcDbEntity
  8
0
100
AcDbDimension
  2
*D10
 10
1450.0
 20
-117.940000057
 30
0.0
 11
1375.0
 21
-117.940000057
 31
0.0
 70
    32
  1
150
  3
ISO-25
100
AcDbAlignedDimension
 13
1300.0
 23
-7.940000057
 33
0.0
 14
1450.0
 24
-7.940000057
 34
0.0
100
AcDbRotatedDimension
1001
ACAD
1000
DSTYLE
1002
{
1070
    41
1040
20.0
1070
   147
1040
10.0
1070
   140
1040
20
1002
}
  0
LWPOLYLINE
  5
313
100
AcDbEntity
  8
FAB-CHAPA
100
AcDbPolyline
 90
        4
 70
     1
 43
0.0
 10
-150.0
 20
-1200.0
 10
150.0
 20
-1200.0
 10
150.0
 20
-900.0
 10
-150.0
 20
-900.0
  0
CIRCLE
  5
314
100
AcDbEntity
  8
FAB-CHAPA
  6
CONTINUOUS
100
AcDbCircle
 10
111.900001526
 20
-1161.900024414
 30
0.0
 40
10.524999619
  0
LWPOLYLINE
  5
315
100
AcDbEntity
  8
0
100
AcDbPolyline
 90
        2
 70
     1
 43
10.524999619
 10
106.637501717
 20
-1161.900024414
 42
1.0
 10
117.162501335
 20
-1161.900024414
 42
1.0
  0
CIRCLE
  5
316
100
AcDbEntity
  8
FAB-CHAPA
  6
CONTINUOUS
100
AcDbCircle
 10
-111.900001526
 20
-1161.900024414
 30
0.0
 40
10.524999619
  0
LWPOLYLINE
  5
317
100
AcDbEntity
  8
0
100
AcDbPolyline
 90
        2
 70
     1
 43
10.524999619
 10
-117.162501335
 20
-1161.900024414
 42
1.0
 10
-106.637501717
 20
-1161.900024414
 42
1.0
  0
CIRCLE
  5
318
100
AcDbEntity
  8
FAB-CHAPA
  6
CONTINUOUS
100
AcDbCircle
 10
111.900001526
 20
-938.099975586
 30
0.0
 40
10.524999619
  0
LWPOLYLINE
  5
319
100
AcDbEntity
  8
0
100
AcDbPolyline
 90
        2
 70
     1
 43
10.524999619
 10
106.637501717
 20
-938.099975586
 42
1.0
 10
117.162501335
 20
-938.099975586
 42
1.0
  0
CIRCLE
  5
31A
100
AcDbEntity
  8
FAB-CHAPA
  6
CONTINUOUS
100
AcDbCircle
 10
-111.900001526
 20
-938.099975586
 30
0.0
 40
10.524999619
  0
LWPOLYLINE
  5
31B
100
AcDbEntity
  8
0
100
AcDbPolyline
 90
        2
 70
     1
 43
10.524999619
 10
-117.162501335
 20
-938.099975586
 42
1.0
 10
-106.637501717
 20
-938.099975586
 42
1.0
  0
LINE
  5
31C
100
AcDbEntity
  8
EIXO
100
AcDbLine
 10
-150.0
 20
-1161.900024414
 30
0.0
 11
150.0
 21
-1161.900024414
 31
0.0
  0
LINE
  5
31D
100
AcDbEntity
  8
EIXO
100
AcDbLine
 10
-150.0
 20
-938.099975586
 30
0.0
 11
150.0
 21
-938.099975586
 31
0.0
  0
LINE
  5
31E
100
AcDbEntity
  8
EIXO
100
AcDbLine
 10
-111.900001526
 20
-1200.0
 30
0.0
 11
-111.900001526
 21
-900.0
 31
0.0
  0
LINE
  5
31F
100
AcDbEntity
  8
EIXO
100
AcDbLine
 10
111.900001526
 20
-1200.0
 30
0.0
 11
111.900001526
 21
-900.0
 31
0.0
  0
DIMENSION
  5
32B
100
AcDbEntity
  8
0
100
AcDbDimension
  2
*D11
 10
-260.0
 20
-938.099975586
 30
0.0
 11
-260.0
 21
-1050.0
 31
0.0
 70
   160
 42
223.800048828
  1
224
  3
ISO-25
100
AcDbAlignedDimension
 13
-150.0
 23
-1161.900024414
 33
0.0
 14
-150.0
 24
-938.099975586
 34
0.0
 50
90.0
100
AcDbRotatedDimension
1001
ACAD
1000
DSTYLE
1002
{
1070
    41
1040
20.0
1070
   147
1040
10.0
1070
   140
1040
20
1002
}
  0
DIMENSION
  5
338
100
AcDbEntity
  8
0
100
AcDbDimension
  2
*D12
 10
-111.900001526
 20
-790.0
 30
0.0
 11
0.0
 21
-790.0
 31
0.0
 70
    32
  1
224
  3
ISO-25
100
AcDbAlignedDimension
 13
111.900001526
 23
-900.0
 33
0.0
 14
-111.900001526
 24
-900.0
 34
0.0
100
AcDbRotatedDimension
1001
ACAD
1000
DSTYLE
1002
{
1070
    41
1040
20.0
1070
   147
1040
10.0
1070
   140
1040
20
1002
}
  0
TRACE
  5
339
100
AcDbEntity
  8
0
100
AcDbTrace
 10
150.0
 20
-900.0
 30
0.0
 11
164.731391275
 21
-879.376052215
 31
0.0
 12
170.623947785
 22
-885.268608725
 32
0.0
 13
170.623947785
 23
-885.268608725
 33
0.0
  0
MTEXT
  5
33A
100
AcDbEntity
  8
0
 62
     4
100
AcDbMText
 10
240.0
 20
-817.5
 30
0.0
 40
25.0
 41
0.0
 71
     7
 72
     1
  1
CH-A
 50
0.0
  0
LWPOLYLINE
  5
33B
100
AcDbEntity
  8
0
100
AcDbPolyline
 90
        3
 70
     0
 43
0.0
 10
167.67766953
 20
-882.32233047
 10
220.0
 20
-830.0
 10
297.999879837
 20
-830.0
  0
LWPOLYLINE
  5
33C
100
AcDbEntity
  8
PERFIL
100
AcDbPolyline
 90
       17
 70
     1
 43
0.0
 10
76.0
 20
-974.0
 10
76.0
 20
-1126.0
 10
69.400001526
 20
-1126.0
 10
69.400001526
 20
-1059.5
 42
0.414213562
 10
62.799999237
 20
-1052.900024414
 10
-62.799999237
 20
-1052.900024414
 42
0.414213562
 10
-69.400001526
 20
-1059.5
 10
-69.400001526
 20
-1126.0
 10
-76.0
 20
-1126.0
 10
-76.0
 20
-974.0
 10
-69.400001526
 20
-974.0
 10
-69.400001526
 20
-1040.5
 42
0.414213562
 10
-62.799999237
 20
-1047.099975586
 10
62.799999237
 20
-1047.099975586
 42
0.414213562
 10
69.400001526
 20
-1040.5
 10
69.400001526
 20
-974.0
 10
76.0
 20
-974.0
  0
DIMENSION
  5
348
100
AcDbEntity
  8
0
100
AcDbDimension
  2
*D13
 10
1040.0
 20
-1161.900024414
 30
0.0
 11
1040.0
 21
-1180.950012207
 31
0.0
 70
   160
 42
38.099975586
  1
38
  3
ISO-25
100
AcDbAlignedDimension
 13
1150.0
 23
-1200.0
 33
0.0
 14
1150.0
 24
-1161.900024414
 34
0.0
 50
90.0
100
AcDbRotatedDimension
1001
ACAD
1000
DSTYLE
1002
{
1070
    41
1040
20.0
1070
   147
1040
10.0
1070
   140
1040
20
1002
}
  0
DIMENSION
  5
354
100
AcDbEntity
  8
0
100
AcDbDimension
  2
*D14
 10
1040.0
 20
-938.099975586
 30
0.0
 11
1040.0
 21
-1050.0
 31
0.0
 70
   160
 42
223.800048828
  1
224
  3
ISO-25
100
AcDbAlignedDimension
 13
1150.0
 23
-1161.900024414
 33
0.0
 14
1150.0
 24
-938.099975586
 34
0.0
 50
90.0
100
AcDbRotatedDimension
1001
ACAD
1000
DSTYLE
1002
{
1070
    41
1040
20.0
1070
   147
1040
10.0
1070
   140
1040
20
1002
}
  0
DIMENSION
  5
360
100
AcDbEntity
  8
0
100
AcDbDimension
  2
*D15
 10
1040.0
 20
-900.0
 30
0.0
 11
1040.0
 21
-919.049987793
 31
0.0
 70
   160
 42
38.099975586
  1
38
  3
ISO-25
100
AcDbAlignedDimension
 13
1150.0
 23
-938.099975586
 33
0.0
 14
1150.0
 24
-900.0
 34
0.0
 50
90.0
100
AcDbRotatedDimension
1001
ACAD
1000
DSTYLE
1002
{
1070
    41
1040
20.0
1070
   147
1040
10.0
1070
   140
1040
20
1002
}
  0
DIMENSION
  5
36D
100
AcDbEntity
  8
0
100
AcDbDimension
  2
*D16
 10
1150.0
 20
-790.0
 30
0.0
 11
1169.049987793
 21
-790.0
 31
0.0
 70
    32
  1
38
  3
ISO-25
100
AcDbAlignedDimension
 13
1188.099975586
 23
-900.0
 33
0.0
 14
1150.0
 24
-900.0
 34
0.0
100
AcDbRotatedDimension
1001
ACAD
1000
DSTYLE
1002
{
1070
    41
1040
20.0
1070
   147
1040
10.0
1070
   140
1040
20
1002
}
  0
DIMENSION
  5
37A
100
AcDbEntity
  8
0
100
AcDbDimension
  2
*D17
 10
1188.099975586
 20
-790.0
 30
0.0
 11
1300.0
 21
-790.0
 31
0.0
 70
    32
  1
224
  3
ISO-25
100
AcDbAlignedDimension
 13
1411.900024414
 23
-900.0
 33
0.0
 14
1188.099975586
 24
-900.0
 34
0.0
100
AcDbRotatedDimension
1001
ACAD
1000
DSTYLE
1002
{
1070
    41
1040
20.0
1070
   147
1040
10.0
1070
   140
1040
20
1002
}
  0
DIMENSION
  5
387
100
AcDbEntity
  8
0
100
AcDbDimension
  2
*D18
 10
1411.900024414
 20
-790.0
 30
0.0
 11
1430.950012207
 21
-790.0
 31
0.0
 70
    32
  1
38
  3
ISO-25
100
AcDbAlignedDimension
 13
1450.0
 23
-900.0
 33
0.0
 14
1411.900024414
 24
-900.0
 34
0.0
100
AcDbRotatedDimension
1001
ACAD
1000
DSTYLE
1002
{
1070
    41
1040
20.0
1070
   147
1040
10.0
1070
   140
1040
20
1002
}
  0
DIMENSION
  5
393
100
AcDbEntity
  8
0
100
AcDbDimension
  2
*D19
 10
970.0
 20
-900.0
 30
0.0
 11
970.0
 21
-1050.0
 31
0.0
 70
   160
 42
300.0
  1
300
  3
ISO-25
100
AcDbAlignedDimension
 13
1150.0
 23
-1200.0
 33
0.0
 14
1150.0
 24
-900.0
 34
0.0
 50
90.0
100
AcDbRotatedDimension
1001
ACAD
1000
DSTYLE
1002
{
1070
    41
1040
20.0
1070
   147
1040
10.0
1070
   140
1040
20
1002
}
  0
DIMENSION
  5
3A0
100
AcDbEntity
  8
0
100
AcDbDimension
  2
*D20
 10
1150.0
 20
-720.0
 30
0.0
 11
1300.0
 21
-720.0
 31
0.0
 70
    32
  1
300
  3
ISO-25
100
AcDbAlignedDimension
 13
1450.0
 23
-900.0
 33
0.0
 14
1150.0
 24
-900.0
 34
0.0
100
AcDbRotatedDimension
1001
ACAD
1000
DSTYLE
1002
{
1070
    41
1040
20.0
1070
   147
1040
10.0
1070
   140
1040
20
1002
}
  0
LINE
  5
3A1
100
AcDbEntity
  8
EIXO
100
AcDbLine
 10
1150.0
 20
-1161.900024414
 30
0.0
 11
1450.0
 21
-1161.900024414
 31
0.0
  0
LINE
  5
3A2
100
AcDbEntity
  8
EIXO
100
AcDbLine
 10
1150.0
 20
-938.099975586
 30
0.0
 11
1450.0
 21
-938.099975586
 31
0.0
  0
LINE
  5
3A3
100
AcDbEntity
  8
EIXO
100
AcDbLine
 10
1188.099975586
 20
-1200.0
 30
0.0
 11
1188.099975586
 21
-900.0
 31
0.0
  0
LINE
  5
3A4
100
AcDbEntity
  8
EIXO
100
AcDbLine
 10
1411.900024414
 20
-1200.0
 30
0.0
 11
1411.900024414
 21
-900.0
 31
0.0
  0
LWPOLYLINE
  5
3A5
100
AcDbEntity
  8
FAB-CHAPA
100
AcDbPolyline
 90
        4
 70
     1
 43
0.0
 10
1150.0
 20
-1200.0
 10
1450.0
 20
-1200.0
 10
1450.0
 20
-900.0
 10
1150.0
 20
-900.0
  0
CIRCLE
  5
3A6
100
AcDbEntity
  8
FAB-CHAPA
  6
CONTINUOUS
100
AcDbCircle
 10
1411.900024414
 20
-1161.900024414
 30
0.0
 40
10.524999619
  0
LWPOLYLINE
  5
3A7
100
AcDbEntity
  8
0
100
AcDbPolyline
 90
        2
 70
     1
 43
10.524999619
 10
1406.637524605
 20
-1161.900024414
 42
1.0
 10
1417.162524223
 20
-1161.900024414
 42
1.0
  0
CIRCLE
  5
3A8
100
AcDbEntity
  8
FAB-CHAPA
  6
CONTINUOUS
100
AcDbCircle
 10
1188.099975586
 20
-1161.900024414
 30
0.0
 40
10.524999619
  0
LWPOLYLINE
  5
3A9
100
AcDbEntity
  8
0
100
AcDbPolyline
 90
        2
 70
     1
 43
10.524999619
 10
1182.837475777
 20
-1161.900024414
 42
1.0
 10
1193.362475395
 20
-1161.900024414
 42
1.0
  0
CIRCLE
  5
3AA
100
AcDbEntity
  8
FAB-CHAPA
  6
CONTINUOUS
100
AcDbCircle
 10
1411.900024414
 20
-938.099975586
 30
0.0
 40
10.524999619
  0
LWPOLYLINE
  5
3AB
100
AcDbEntity
  8
0
100
AcDbPolyline
 90
        2
 70
     1
 43
10.524999619
 10
1406.637524605
 20
-938.099975586
 42
1.0
 10
1417.162524223
 20
-938.099975586
 42
1.0
  0
CIRCLE
  5
3AC
100
AcDbEntity
  8
FAB-CHAPA
  6
CONTINUOUS
100
AcDbCircle
 10
1188.099975586
 20
-938.099975586
 30
0.0
 40
10.524999619
  0
LWPOLYLINE
  5
3AD
100
AcDbEntity
  8
0
100
AcDbPolyline
 90
        2
 70
     1
 43
10.524999619
 10
1182.837475777
 20
-938.099975586
 42
1.0
 10
1193.362475395
 20
-938.099975586
 42
1.0
  0
TRACE
  5
3AE
100
AcDbEntity
  8
0
100
AcDbTrace
 10
1225.0
 20
-1200.0
 30
0.0
 11
1229.166666667
 21
-1225.0
 31
0.0
 12
1220.833333333
 22
-1225.0
 32
0.0
 13
1220.833333333
 23
-1225.0
 33
0.0
  0
MTEXT
  5
3AF
100
AcDbEntity
  8
0
 62
     4
100
AcDbMText
 10
1225.0
 20
-1290.0
 30
0.0
 40
25.0
 41
0.0
 71
     4
 72
     1
  1
CH. 15.88\PASTM A36
 50
0.0
  0
LWPOLYLINE
  5
3B0
100
AcDbEntity
  8
0
100
AcDbPolyline
 90
        3
 70
     0
 43
0.0
 10
1225.0
 20
-1225.0
 10
1225.0
 20
-1290.0
 10
1305.999759674
 20
-1290.0
  0
LINE
  5
3B1
100
AcDbEntity
  8
EIXO
100
AcDbLine
 10
1450.0
 20
-938.099998474
 30
0.0
 11
1570.0
 21
-938.099998474
 31
0.0
  0
TRACE
  5
3B2
100
AcDbEntity
  8
0
100
AcDbTrace
 10
1550.0
 20
-938.099998474
 30
0.0
 11
1545.833333333
 21
-913.099998474
 31
0.0
 12
1554.166666667
 22
-913.099998474
 32
0.0
 13
1554.166666667
 23
-913.099998474
 33
0.0
  0
LWPOLYLINE
  5
3B3
100
AcDbEntity
  8
0
100
AcDbPolyline
 90
        2
 70
     0
 43
0.0
 10
1550.0
 20
-913.099998474
 10
1550.0
 20
-720.0
  0
LINE
  5
3B4
100
AcDbEntity
  8
0
100
AcDbLine
 10
1550.0
 20
-720.0
 30
0.0
 11
1590.7806
 21
-720.0
 31
0.0
  0
LWPOLYLINE
  5
3B5
100
AcDbEntity
  8
0
 62
     4
100
AcDbPolyline
 90
        4
 70
     1
 43
0.0
 10
1656.1312
 20
-720.0
 10
1623.4559
 20
-687.3247
 10
1590.7806
 20
-720.0
 10
1623.4559
 20
-752.6753
  0
MTEXT
  5
3B6
100
AcDbEntity
  8
0
 62
     4
100
AcDbMText
 10
1583.3544
 20
-700.7829
 30
0.0
 40
25.4
 41
0.0
 71
     7
 72
     1
  1
%%c
 50
0.0
  0
MTEXT
  5
3B7
100
AcDbEntity
  8
0
100
AcDbMText
 10
1623.4559
 20
-720.0
 30
0.0
 40
20.0
 41
0.0
 71
     5
 72
     1
  1
21
 50
0.0
  0
LINE
  5
3B8
100
AcDbEntity
  8
0
 62
     4
100
AcDbLine
 10
1656.1312
 20
-720.0
 30
0.0
 11
1903.1312
 21
-720.0
 31
0.0
  0
MTEXT
  5
3B9
100
AcDbEntity
  8
0
 62
     4
100
AcDbMText
 10
1666.1312
 20
-715.0
 30
0.0
 40
20.3
 41
0.0
 71
     7
 72
     1
  1
PARAFUSO %%c19.05
 50
0.0
  0
MTEXT
  5
3BA
100
AcDbEntity
  8
0
 62
     4
100
AcDbMText
 10
1666.1312
 20
-725.0
 30
0.0
 40
20.3
 41
0.0
 71
     1
 72
     1
  1
SAE 1020
 50
0.0
  0
LINE
  5
3BB
100
AcDbEntity
  8
EIXO
100
AcDbLine
 10
1450.0
 20
-1161.900001526
 30
0.0
 11
1570.0
 21
-1161.900001526
 31
0.0
  0
TRACE
  5
3BC
100
AcDbEntity
  8
0
100
AcDbTrace
 10
1550.0
 20
-1161.900001526
 30
0.0
 11
1545.833333333
 21
-1136.900001526
 31
0.0
 12
1554.166666667
 22
-1136.900001526
 32
0.0
 13
1554.166666667
 23
-1136.900001526
 33
0.0
  0
LWPOLYLINE
  5
3BD
100
AcDbEntity
  8
0
100
AcDbPolyline
 90
        2
 70
     0
 43
0.0
 10
1550.0
 20
-1136.900001526
 10
1550.0
 20
-938.099998474
  0
MTEXT
  5
3BE
100
AcDbEntity
  8
REGUA120
 62
     2
100
AcDbMText
 10
1300.0
 20
-615.0
 30
0.0
 40
37.5
 41
0.0
 71
     5
 72
     1
  1
CHAPA "A"
  7
REGUA100
 50
0.0
  0
LINE
  5
3BF
100
AcDbEntity
  8
EIXO
100
AcDbLine
 10
-111.900001526
 20
-7.940000057
 30
0.0
 11
-111.900001526
 21
-900.0
 31
0.0
  0
TRACE
  5
3C0
100
AcDbEntity
  8
0
100
AcDbTrace
 10
-102.375001907
 20
-153.970000029
 30
0.0
 11
-77.375001907
 21
-149.803333362
 31
0.0
 12
-77.375001907
 22
-158.136666695
 32
0.0
 13
-77.375001907
 23
-158.136666695
 33
0.0
  0
LWPOLYLINE
  5
3C1
100
AcDbEntity
  8
0
100
AcDbPolyline
 90
        2
 70
     0
 43
0.0
 10
-77.375001907
 20
-153.970000029
 10
111.900001526
 20
-153.970000029
  0
LWPOLYLINE
  5
3C2
100
AcDbEntity
  8
PERFIL
100
AcDbPolyline
 90
        4
 70
     1
 43
0.0
 10
-102.375001907
 20
101.826000214
 10
-102.375001907
 20
-498.173999786
 10
-121.425001144
 20
-498.173999786
 10
-121.425001144
 20
101.826000214
  0
LINE
  5
3C3
100
AcDbEntity
  8
PERFIL
100
AcDbLine
 10
-116.662501335
 20
-48.173999786
 30
0.0
 11
-116.662501335
 21
101.826000214
 31
0.0
  0
LINE
  5
3C4
100
AcDbEntity
  8
PERFIL
100
AcDbLine
 10
-107.137501717
 20
-48.173999786
 30
0.0
 11
-107.137501717
 21
101.826000214
 31
0.0
  0
LINE
  5
3C5
100
AcDbEntity
  8
PERFIL
100
AcDbLine
 10
-121.425001144
 20
-48.173999786
 30
0.0
 11
-102.375001907
 21
-48.173999786
 31
0.0
  0
LINE
  5
3C6
100
AcDbEntity
  8
PERFIL
100
AcDbLine
 10
-116.662501335
 20
-448.173999786
 30
0.0
 11
-116.662501335
 21
-498.173999786
 31
0.0
  0
LINE
  5
3C7
100
AcDbEntity
  8
PERFIL
100
AcDbLine
 10
-107.137501717
 20
-448.173999786
 30
0.0
 11
-107.137501717
 21
-498.173999786
 31
0.0
  0
LINE
  5
3C8
100
AcDbEntity
  8
PERFIL
100
AcDbLine
 10
-121.425001144
 20
-448.173999786
 30
0.0
 11
-102.375001907
 21
-448.173999786
 31
0.0
  0
LWPOLYLINE
  5
3C9
100
AcDbEntity
  8
EIXO
100
AcDbPolyline
 90
        2
 70
     0
 43
0.0
 10
-111.900001526
 20
120.875999451
 10
-111.900001526
 20
-517.223999023
  0
ARC
  5
3CA
100
AcDbEntity
  8
CHU-CHUMBADOR
  6
CONTINUOUS
100
AcDbCircle
 10
-107.40208324
 20
-20.892418302
 30
0.0
 40
11.096335013
100
AcDbArc
 50
270.0
 51
293.913168486
  0
ARC
  5
3CB
100
AcDbEntity
  8
CHU-CHUMBADOR
  6
CONTINUOUS
100
AcDbCircle
 10
-107.40208324
 20
-24.987581813
 30
0.0
 40
11.096335013
100
AcDbArc
 50
66.086831514
 51
90.0
  0
LINE
  5
3CC
100
AcDbEntity
  8
CHU-CHUMBADOR
100
AcDbLine
 10
-125.393756383
 20
-31.988753314
 30
0.0
 11
-98.406246669
 21
-31.988753314
 31
0.0
  0
LINE
  5
3CD
100
AcDbEntity
  8
CHU-CHUMBADOR
100
AcDbLine
 10
-125.393756383
 20
-13.8912468
 30
0.0
 11
-98.406246669
 21
-13.8912468
 31
0.0
  0
ARC
  5
3CE
100
AcDbEntity
  8
CHU-CHUMBADOR
  6
CONTINUOUS
100
AcDbCircle
 10
-116.397919812
 20
-20.892418302
 30
0.0
 40
11.096335013
100
AcDbArc
 50
246.086831514
 51
270.0
  0
ARC
  5
3CF
100
AcDbEntity
  8
CHU-CHUMBADOR
  6
CONTINUOUS
100
AcDbCircle
 10
-125.393756383
 20
-20.892418302
 30
0.0
 40
11.096335013
100
AcDbArc
 50
246.086831514
 51
293.913168486
  0
LINE
  5
3D0
100
AcDbEntity
  8
CHU-CHUMBADOR
100
AcDbLine
 10
-129.891674669
 20
-31.036252971
 30
0.0
 11
-129.891674669
 21
-14.843747143
 31
0.0
  0
LINE
  5
3D1
100
AcDbEntity
  8
CHU-CHUMBADOR
100
AcDbLine
 10
-120.895838097
 20
-31.036252972
 30
0.0
 11
-120.895838097
 21
-14.843747143
 31
0.0
  0
ARC
  5
3D2
100
AcDbEntity
  8
CHU-CHUMBADOR
  6
CONTINUOUS
100
AcDbCircle
 10
-125.393756383
 20
-24.987581813
 30
0.0
 40
11.096335013
100
AcDbArc
 50
66.086831514
 51
113.913168486
  0
ARC
  5
3D3
100
AcDbEntity
  8
CHU-CHUMBADOR
  6
CONTINUOUS
100
AcDbCircle
 10
-116.397919812
 20
-24.987581813
 30
0.0
 40
11.096335013
100
AcDbArc
 50
90.0
 51
113.913168486
  0
ARC
  5
3D4
100
AcDbEntity
  8
CHU-CHUMBADOR
  6
CONTINUOUS
100
AcDbCircle
 10
-98.406246669
 20
-20.892418302
 30
0.0
 40
11.096335013
100
AcDbArc
 50
246.086831514
 51
293.913168486
  0
LINE
  5
3D5
100
AcDbEntity
  8
CHU-CHUMBADOR
100
AcDbLine
 10
-102.904164954
 20
-31.036252972
 30
0.0
 11
-102.904164954
 21
-14.843747143
 31
0.0
  0
LINE
  5
3D6
100
AcDbEntity
  8
CHU-CHUMBADOR
100
AcDbLine
 10
-93.908328383
 20
-31.036252972
 30
0.0
 11
-93.908328383
 21
-14.843747143
 31
0.0
  0
ARC
  5
3D7
100
AcDbEntity
  8
CHU-CHUMBADOR
  6
CONTINUOUS
100
AcDbCircle
 10
-98.406246669
 20
-24.987581813
 30
0.0
 40
11.096335013
100
AcDbArc
 50
66.086831514
 51
113.913168486
  0
ARC
  5
3D8
100
AcDbEntity
  8
CHU-CHUMBADOR
  6
CONTINUOUS
100
AcDbCircle
 10
-107.40208324
 20
38.562580668
 30
0.0
 40
11.096335013
100
AcDbArc
 50
270.0
 51
293.913168486
  0
ARC
  5
3D9
100
AcDbEntity
  8
CHU-CHUMBADOR
  6
CONTINUOUS
100
AcDbCircle
 10
-107.40208324
 20
34.467417157
 30
0.0
 40
11.096335013
100
AcDbArc
 50
66.086831514
 51
90.0
  0
LINE
  5
3DA
100
AcDbEntity
  8
CHU-CHUMBADOR
100
AcDbLine
 10
-125.393756383
 20
27.466245656
 30
0.0
 11
-98.406246669
 21
27.466245656
 31
0.0
  0
LINE
  5
3DB
100
AcDbEntity
  8
CHU-CHUMBADOR
100
AcDbLine
 10
-125.393756383
 20
45.56375217
 30
0.0
 11
-98.406246669
 21
45.56375217
 31
0.0
  0
ARC
  5
3DC
100
AcDbEntity
  8
CHU-CHUMBADOR
  6
CONTINUOUS
100
AcDbCircle
 10
-116.397919812
 20
38.562580668
 30
0.0
 40
11.096335013
100
AcDbArc
 50
246.086831514
 51
270.0
  0
ARC
  5
3DD
100
AcDbEntity
  8
CHU-CHUMBADOR
  6
CONTINUOUS
100
AcDbCircle
 10
-125.393756383
 20
38.562580668
 30
0.0
 40
11.096335013
100
AcDbArc
 50
246.086831514
 51
293.913168486
  0
LINE
  5
3DE
100
AcDbEntity
  8
CHU-CHUMBADOR
100
AcDbLine
 10
-129.891674669
 20
28.418745999
 30
0.0
 11
-129.891674669
 21
44.611251827
 31
0.0
  0
LINE
  5
3DF
100
AcDbEntity
  8
CHU-CHUMBADOR
100
AcDbLine
 10
-120.895838097
 20
28.418745999
 30
0.0
 11
-120.895838097
 21
44.611251827
 31
0.0
  0
ARC
  5
3E0
100
AcDbEntity
  8
CHU-CHUMBADOR
  6
CONTINUOUS
100
AcDbCircle
 10
-125.393756383
 20
34.467417157
 30
0.0
 40
11.096335013
100
AcDbArc
 50
66.086831514
 51
113.913168486
  0
ARC
  5
3E1
100
AcDbEntity
  8
CHU-CHUMBADOR
  6
CONTINUOUS
100
AcDbCircle
 10
-116.397919812
 20
34.467417157
 30
0.0
 40
11.096335013
100
AcDbArc
 50
90.0
 51
113.913168486
  0
ARC
  5
3E2
100
AcDbEntity
  8
CHU-CHUMBADOR
  6
CONTINUOUS
100
AcDbCircle
 10
-98.406246669
 20
38.562580668
 30
0.0
 40
11.096335013
100
AcDbArc
 50
246.086831514
 51
293.913168486
  0
LINE
  5
3E3
100
AcDbEntity
  8
CHU-CHUMBADOR
100
AcDbLine
 10
-102.904164954
 20
28.418745999
 30
0.0
 11
-102.904164954
 21
44.611251827
 31
0.0
  0
LINE
  5
3E4
100
AcDbEntity
  8
CHU-CHUMBADOR
100
AcDbLine
 10
-93.908328383
 20
28.418745999
 30
0.0
 11
-93.908328383
 21
44.611251827
 31
0.0
  0
ARC
  5
3E5
100
AcDbEntity
  8
CHU-CHUMBADOR
  6
CONTINUOUS
100
AcDbCircle
 10
-98.406246669
 20
34.467417157
 30
0.0
 40
11.096335013
100
AcDbArc
 50
66.086831514
 51
113.913168486
  0
ARC
  5
3E6
100
AcDbEntity
  8
CHU-CHUMBADOR
  6
CONTINUOUS
100
AcDbCircle
 10
-107.40208324
 20
67.137579524
 30
0.0
 40
11.096335013
100
AcDbArc
 50
270.0
 51
293.913168486
  0
ARC
  5
3E7
100
AcDbEntity
  8
CHU-CHUMBADOR
  6
CONTINUOUS
100
AcDbCircle
 10
-107.40208324
 20
63.042416013
 30
0.0
 40
11.096335013
100
AcDbArc
 50
66.086831514
 51
90.0
  0
LINE
  5
3E8
100
AcDbEntity
  8
CHU-CHUMBADOR
100
AcDbLine
 10
-125.393756383
 20
56.041244511
 30
0.0
 11
-98.406246669
 21
56.041244511
 31
0.0
  0
LINE
  5
3E9
100
AcDbEntity
  8
CHU-CHUMBADOR
100
AcDbLine
 10
-125.393756383
 20
74.138751026
 30
0.0
 11
-98.406246669
 21
74.138751026
 31
0.0
  0
ARC
  5
3EA
100
AcDbEntity
  8
CHU-CHUMBADOR
  6
CONTINUOUS
100
AcDbCircle
 10
-116.397919812
 20
67.137579524
 30
0.0
 40
11.096335013
100
AcDbArc
 50
246.086831514
 51
270.0
  0
ARC
  5
3EB
100
AcDbEntity
  8
CHU-CHUMBADOR
  6
CONTINUOUS
100
AcDbCircle
 10
-125.393756383
 20
67.137579524
 30
0.0
 40
11.096335013
100
AcDbArc
 50
246.086831514
 51
293.913168486
  0
LINE
  5
3EC
100
AcDbEntity
  8
CHU-CHUMBADOR
100
AcDbLine
 10
-129.891674669
 20
56.993744854
 30
0.0
 11
-129.891674669
 21
73.186250683
 31
0.0
  0
LINE
  5
3ED
100
AcDbEntity
  8
CHU-CHUMBADOR
100
AcDbLine
 10
-120.895838097
 20
56.993744854
 30
0.0
 11
-120.895838097
 21
73.186250683
 31
0.0
  0
ARC
  5
3EE
100
AcDbEntity
  8
CHU-CHUMBADOR
  6
CONTINUOUS
100
AcDbCircle
 10
-125.393756383
 20
63.042416013
 30
0.0
 40
11.096335013
100
AcDbArc
 50
66.086831514
 51
113.913168486
  0
ARC
  5
3EF
100
AcDbEntity
  8
CHU-CHUMBADOR
  6
CONTINUOUS
100
AcDbCircle
 10
-116.397919812
 20
63.042416013
 30
0.0
 40
11.096335013
100
AcDbArc
 50
90.0
 51
113.913168486
  0
ARC
  5
3F0
100
AcDbEntity
  8
CHU-CHUMBADOR
  6
CONTINUOUS
100
AcDbCircle
 10
-98.406246669
 20
67.137579524
 30
0.0
 40
11.096335013
100
AcDbArc
 50
246.086831514
 51
293.913168486
  0
LINE
  5
3F1
100
AcDbEntity
  8
CHU-CHUMBADOR
100
AcDbLine
 10
-102.904164954
 20
56.993744854
 30
0.0
 11
-102.904164954
 21
73.186250683
 31
0.0
  0
LINE
  5
3F2
100
AcDbEntity
  8
CHU-CHUMBADOR
100
AcDbLine
 10
-93.908328383
 20
56.993744854
 30
0.0
 11
-93.908328383
 21
73.186250683
 31
0.0
  0
ARC
  5
3F3
100
AcDbEntity
  8
CHU-CHUMBADOR
  6
CONTINUOUS
100
AcDbCircle
 10
-98.406246669
 20
63.042416013
 30
0.0
 40
11.096335013
100
AcDbArc
 50
66.086831514
 51
113.913168486
  0
LWPOLYLINE
  5
3F4
100
AcDbEntity
  8
CHU-CHUMBADOR
100
AcDbPolyline
 90
        4
 70
     1
 43
0.0
 10
-133.807500648
 20
16.512499714
 10
-89.992502403
 20
16.512499714
 10
-89.992502403
 20
18.417499638
 10
-133.807500648
 20
18.417499638
  0
ARC
  5
3F5
100
AcDbEntity
  8
CHU-CHUMBADOR
  6
CONTINUOUS
100
AcDbCircle
 10
-107.40208324
 20
-471.126418365
 30
0.0
 40
11.096335013
100
AcDbArc
 50
270.0
 51
293.913168486
  0
ARC
  5
3F6
100
AcDbEntity
  8
CHU-CHUMBADOR
  6
CONTINUOUS
100
AcDbCircle
 10
-107.40208324
 20
-475.221581876
 30
0.0
 40
11.096335013
100
AcDbArc
 50
66.086831514
 51
90.0
  0
LINE
  5
3F7
100
AcDbEntity
  8
CHU-CHUMBADOR
100
AcDbLine
 10
-125.393756383
 20
-482.222753377
 30
0.0
 11
-98.406246669
 21
-482.222753377
 31
0.0
  0
LINE
  5
3F8
100
AcDbEntity
  8
CHU-CHUMBADOR
100
AcDbLine
 10
-125.393756383
 20
-464.125246863
 30
0.0
 11
-98.406246669
 21
-464.125246863
 31
0.0
  0
ARC
  5
3F9
100
AcDbEntity
  8
CHU-CHUMBADOR
  6
CONTINUOUS
100
AcDbCircle
 10
-116.397919812
 20
-471.126418365
 30
0.0
 40
11.096335013
100
AcDbArc
 50
246.086831514
 51
270.0
  0
ARC
  5
3FA
100
AcDbEntity
  8
CHU-CHUMBADOR
  6
CONTINUOUS
100
AcDbCircle
 10
-125.393756383
 20
-471.126418365
 30
0.0
 40
11.096335013
100
AcDbArc
 50
246.086831514
 51
293.913168486
  0
LINE
  5
3FB
100
AcDbEntity
  8
CHU-CHUMBADOR
100
AcDbLine
 10
-129.891674669
 20
-481.270253034
 30
0.0
 11
-129.891674669
 21
-465.077747206
 31
0.0
  0
LINE
  5
3FC
100
AcDbEntity
  8
CHU-CHUMBADOR
100
AcDbLine
 10
-120.895838097
 20
-481.270253034
 30
0.0
 11
-120.895838097
 21
-465.077747206
 31
0.0
  0
ARC
  5
3FD
100
AcDbEntity
  8
CHU-CHUMBADOR
  6
CONTINUOUS
100
AcDbCircle
 10
-125.393756383
 20
-475.221581876
 30
0.0
 40
11.096335013
100
AcDbArc
 50
66.086831514
 51
113.913168486
  0
ARC
  5
3FE
100
AcDbEntity
  8
CHU-CHUMBADOR
  6
CONTINUOUS
100
AcDbCircle
 10
-116.397919812
 20
-475.221581876
 30
0.0
 40
11.096335013
100
AcDbArc
 50
90.0
 51
113.913168486
  0
ARC
  5
3FF
100
AcDbEntity
  8
CHU-CHUMBADOR
  6
CONTINUOUS
100
AcDbCircle
 10
-98.406246669
 20
-471.126418365
 30
0.0
 40
11.096335013
100
AcDbArc
 50
246.086831514
 51
293.913168486
  0
LINE
  5
400
100
AcDbEntity
  8
CHU-CHUMBADOR
100
AcDbLine
 10
-102.904164954
 20
-481.270253034
 30
0.0
 11
-102.904164954
 21
-465.077747206
 31
0.0
  0
LINE
  5
401
100
AcDbEntity
  8
CHU-CHUMBADOR
100
AcDbLine
 10
-93.908328383
 20
-481.270253034
 30
0.0
 11
-93.908328383
 21
-465.077747206
 31
0.0
  0
ARC
  5
402
100
AcDbEntity
  8
CHU-CHUMBADOR
  6
CONTINUOUS
100
AcDbCircle
 10
-98.406246669
 20
-475.221581876
 30
0.0
 40
11.096335013
100
AcDbArc
 50
66.086831514
 51
113.913168486
  0
LINE
  5
403
100
AcDbEntity
  8
EIXO
100
AcDbLine
 10
111.900001526
 20
-7.940000057
 30
0.0
 11
111.900001526
 21
-900.0
 31
0.0
  0
TRACE
  5
404
100
AcDbEntity
  8
0
100
AcDbTrace
 10
121.425001144
 20
-153.970000029
 30
0.0
 11
146.425001144
 21
-149.803333362
 31
0.0
 12
146.425001144
 22
-158.136666695
 32
0.0
 13
146.425001144
 23
-158.136666695
 33
0.0
  0
MTEXT
  5
405
100
AcDbEntity
  8
0
 62
     4
100
AcDbMText
 10
201.900001526
 20
-141.470000029
 30
0.0
 40
25.0
 41
0.0
 71
     7
 72
     1
  1
CHUMBADORES
 50
0.0
  0
LWPOLYLINE
  5
406
100
AcDbEntity
  8
0
100
AcDbPolyline
 90
        3
 70
     0
 43
0.0
 10
146.425001144
 20
-153.970000029
 10
181.900001526
 20
-153.970000029
 10
265.149671078
 20
-153.970000029
  0
LWPOLYLINE
  5
407
100
AcDbEntity
  8
PERFIL
100
AcDbPolyline
 90
        4
 70
     1
 43
0.0
 10
121.425001144
 20
101.826000214
 10
121.425001144
 20
-498.173999786
 10
102.375001907
 20
-498.173999786
 10
102.375001907
 20
101.826000214
  0
LINE
  5
408
100
AcDbEntity
  8
PERFIL
100
AcDbLine
 10
107.137501717
 20
-48.173999786
 30
0.0
 11
107.137501717
 21
101.826000214
 31
0.0
  0
LINE
  5
409
100
AcDbEntity
  8
PERFIL
100
AcDbLine
 10
116.662501335
 20
-48.173999786
 30
0.0
 11
116.662501335
 21
101.826000214
 31
0.0
  0
LINE
  5
40A
100
AcDbEntity
  8
PERFIL
100
AcDbLine
 10
102.375001907
 20
-48.173999786
 30
0.0
 11
121.425001144
 21
-48.173999786
 31
0.0
  0
LINE
  5
40B
100
AcDbEntity
  8
PERFIL
100
AcDbLine
 10
107.137501717
 20
-448.173999786
 30
0.0
 11
107.137501717
 21
-498.173999786
 31
0.0
  0
LINE
  5
40C
100
AcDbEntity
  8
PERFIL
100
AcDbLine
 10
116.662501335
 20
-448.173999786
 30
0.0
 11
116.662501335
 21
-498.173999786
 31
0.0
  0
LINE
  5
40D
100
AcDbEntity
  8
PERFIL
100
AcDbLine
 10
102.375001907
 20
-448.173999786
 30
0.0
 11
121.425001144
 21
-448.173999786
 31
0.0
  0
LWPOLYLINE
  5
40E
100
AcDbEntity
  8
EIXO
100
AcDbPolyline
 90
        2
 70
     0
 43
0.0
 10
111.900001526
 20
120.875999451
 10
111.900001526
 20
-517.223999023
  0
ARC
  5
40F
100
AcDbEntity
  8
CHU-CHUMBADOR
  6
CONTINUOUS
100
AcDbCircle
 10
116.397919812
 20
-20.892418302
 30
0.0
 40
11.096335013
100
AcDbArc
 50
270.0
 51
293.913168486
  0
ARC
  5
410
100
AcDbEntity
  8
CHU-CHUMBADOR
  6
CONTINUOUS
100
AcDbCircle
 10
116.397919812
 20
-24.987581813
 30
0.0
 40
11.096335013
100
AcDbArc
 50
66.086831514
 51
90.0
  0
LINE
  5
411
100
AcDbEntity
  8
CHU-CHUMBADOR
100
AcDbLine
 10
98.406246669
 20
-31.988753314
 30
0.0
 11
125.393756383
 21
-31.988753314
 31
0.0
  0
LINE
  5
412
100
AcDbEntity
  8
CHU-CHUMBADOR
100
AcDbLine
 10
98.406246669
 20
-13.8912468
 30
0.0
 11
125.393756383
 21
-13.8912468
 31
0.0
  0
ARC
  5
413
100
AcDbEntity
  8
CHU-CHUMBADOR
  6
CONTINUOUS
100
AcDbCircle
 10
107.40208324
 20
-20.892418302
 30
0.0
 40
11.096335013
100
AcDbArc
 50
246.086831514
 51
270.0
  0
ARC
  5
414
100
AcDbEntity
  8
CHU-CHUMBADOR
  6
CONTINUOUS
100
AcDbCircle
 10
98.406246669
 20
-20.892418302
 30
0.0
 40
11.096335013
100
AcDbArc
 50
246.086831514
 51
293.913168486
  0
LINE
  5
415
100
AcDbEntity
  8
CHU-CHUMBADOR
100
AcDbLine
 10
93.908328383
 20
-31.036252971
 30
0.0
 11
93.908328383
 21
-14.843747143
 31
0.0
  0
LINE
  5
416
100
AcDbEntity
  8
CHU-CHUMBADOR
100
AcDbLine
 10
102.904164954
 20
-31.036252972
 30
0.0
 11
102.904164954
 21
-14.843747143
 31
0.0
  0
ARC
  5
417
100
AcDbEntity
  8
CHU-CHUMBADOR
  6
CONTINUOUS
100
AcDbCircle
 10
98.406246669
 20
-24.987581813
 30
0.0
 40
11.096335013
100
AcDbArc
 50
66.086831514
 51
113.913168486
  0
ARC
  5
418
100
AcDbEntity
  8
CHU-CHUMBADOR
  6
CONTINUOUS
100
AcDbCircle
 10
107.40208324
 20
-24.987581813
 30
0.0
 40
11.096335013
100
AcDbArc
 50
90.0
 51
113.913168486
  0
ARC
  5
419
100
AcDbEntity
  8
CHU-CHUMBADOR
  6
CONTINUOUS
100
AcDbCircle
 10
125.393756383
 20
-20.892418302
 30
0.0
 40
11.096335013
100
AcDbArc
 50
246.086831514
 51
293.913168486
  0
LINE
  5
41A
100
AcDbEntity
  8
CHU-CHUMBADOR
100
AcDbLine
 10
120.895838097
 20
-31.036252972
 30
0.0
 11
120.895838097
 21
-14.843747143
 31
0.0
  0
LINE
  5
41B
100
AcDbEntity
  8
CHU-CHUMBADOR
100
AcDbLine
 10
129.891674669
 20
-31.036252972
 30
0.0
 11
129.891674669
 21
-14.843747143
 31
0.0
  0
ARC
  5
41C
100
AcDbEntity
  8
CHU-CHUMBADOR
  6
CONTINUOUS
100
AcDbCircle
 10
125.393756383
 20
-24.987581813
 30
0.0
 40
11.096335013
100
AcDbArc
 50
66.086831514
 51
113.913168486
  0
ARC
  5
41D
100
AcDbEntity
  8
CHU-CHUMBADOR
  6
CONTINUOUS
100
AcDbCircle
 10
116.397919812
 20
38.562580668
 30
0.0
 40
11.096335013
100
AcDbArc
 50
270.0
 51
293.913168486
  0
ARC
  5
41E
100
AcDbEntity
  8
CHU-CHUMBADOR
  6
CONTINUOUS
100
AcDbCircle
 10
116.397919812
 20
34.467417157
 30
0.0
 40
11.096335013
100
AcDbArc
 50
66.086831514
 51
90.0
  0
LINE
  5
41F
100
AcDbEntity
  8
CHU-CHUMBADOR
100
AcDbLine
 10
98.406246669
 20
27.466245656
 30
0.0
 11
125.393756383
 21
27.466245656
 31
0.0
  0
LINE
  5
420
100
AcDbEntity
  8
CHU-CHUMBADOR
100
AcDbLine
 10
98.406246669
 20
45.56375217
 30
0.0
 11
125.393756383
 21
45.56375217
 31
0.0
  0
ARC
  5
421
100
AcDbEntity
  8
CHU-CHUMBADOR
  6
CONTINUOUS
100
AcDbCircle
 10
107.40208324
 20
38.562580668
 30
0.0
 40
11.096335013
100
AcDbArc
 50
246.086831514
 51
270.0
  0
ARC
  5
422
100
AcDbEntity
  8
CHU-CHUMBADOR
  6
CONTINUOUS
100
AcDbCircle
 10
98.406246669
 20
38.562580668
 30
0.0
 40
11.096335013
100
AcDbArc
 50
246.086831514
 51
293.913168486
  0
LINE
  5
423
100
AcDbEntity
  8
CHU-CHUMBADOR
100
AcDbLine
 10
93.908328383
 20
28.418745999
 30
0.0
 11
93.908328383
 21
44.611251827
 31
0.0
  0
LINE
  5
424
100
AcDbEntity
  8
CHU-CHUMBADOR
100
AcDbLine
 10
102.904164954
 20
28.418745999
 30
0.0
 11
102.904164954
 21
44.611251827
 31
0.0
  0
ARC
  5
425
100
AcDbEntity
  8
CHU-CHUMBADOR
  6
CONTINUOUS
100
AcDbCircle
 10
98.406246669
 20
34.467417157
 30
0.0
 40
11.096335013
100
AcDbArc
 50
66.086831514
 51
113.913168486
  0
ARC
  5
426
100
AcDbEntity
  8
CHU-CHUMBADOR
  6
CONTINUOUS
100
AcDbCircle
 10
107.40208324
 20
34.467417157
 30
0.0
 40
11.096335013
100
AcDbArc
 50
90.0
 51
113.913168486
  0
ARC
  5
427
100
AcDbEntity
  8
CHU-CHUMBADOR
  6
CONTINUOUS
100
AcDbCircle
 10
125.393756383
 20
38.562580668
 30
0.0
 40
11.096335013
100
AcDbArc
 50
246.086831514
 51
293.913168486
  0
LINE
  5
428
100
AcDbEntity
  8
CHU-CHUMBADOR
100
AcDbLine
 10
120.895838097
 20
28.418745999
 30
0.0
 11
120.895838097
 21
44.611251827
 31
0.0
  0
LINE
  5
429
100
AcDbEntity
  8
CHU-CHUMBADOR
100
AcDbLine
 10
129.891674669
 20
28.418745999
 30
0.0
 11
129.891674669
 21
44.611251827
 31
0.0
  0
ARC
  5
42A
100
AcDbEntity
  8
CHU-CHUMBADOR
  6
CONTINUOUS
100
AcDbCircle
 10
125.393756383
 20
34.467417157
 30
0.0
 40
11.096335013
100
AcDbArc
 50
66.086831514
 51
113.913168486
  0
ARC
  5
42B
100
AcDbEntity
  8
CHU-CHUMBADOR
  6
CONTINUOUS
100
AcDbCircle
 10
116.397919812
 20
67.137579524
 30
0.0
 40
11.096335013
100
AcDbArc
 50
270.0
 51
293.913168486
  0
ARC
  5
42C
100
AcDbEntity
  8
CHU-CHUMBADOR
  6
CONTINUOUS
100
AcDbCircle
 10
116.397919812
 20
63.042416013
 30
0.0
 40
11.096335013
100
AcDbArc
 50
66.086831514
 51
90.0
  0
LINE
  5
42D
100
AcDbEntity
  8
CHU-CHUMBADOR
100
AcDbLine
 10
98.406246669
 20
56.041244511
 30
0.0
 11
125.393756383
 21
56.041244511
 31
0.0
  0
LINE
  5
42E
100
AcDbEntity
  8
CHU-CHUMBADOR
100
AcDbLine
 10
98.406246669
 20
74.138751026
 30
0.0
 11
125.393756383
 21
74.138751026
 31
0.0
  0
ARC
  5
42F
100
AcDbEntity
  8
CHU-CHUMBADOR
  6
CONTINUOUS
100
AcDbCircle
 10
107.40208324
 20
67.137579524
 30
0.0
 40
11.096335013
100
AcDbArc
 50
246.086831514
 51
270.0
  0
ARC
  5
430
100
AcDbEntity
  8
CHU-CHUMBADOR
  6
CONTINUOUS
100
AcDbCircle
 10
98.406246669
 20
67.137579524
 30
0.0
 40
11.096335013
100
AcDbArc
 50
246.086831514
 51
293.913168486
  0
LINE
  5
431
100
AcDbEntity
  8
CHU-CHUMBADOR
100
AcDbLine
 10
93.908328383
 20
56.993744854
 30
0.0
 11
93.908328383
 21
73.186250683
 31
0.0
  0
LINE
  5
432
100
AcDbEntity
  8
CHU-CHUMBADOR
100
AcDbLine
 10
102.904164954
 20
56.993744854
 30
0.0
 11
102.904164954
 21
73.186250683
 31
0.0
  0
ARC
  5
433
100
AcDbEntity
  8
CHU-CHUMBADOR
  6
CONTINUOUS
100
AcDbCircle
 10
98.406246669
 20
63.042416013
 30
0.0
 40
11.096335013
100
AcDbArc
 50
66.086831514
 51
113.913168486
  0
ARC
  5
434
100
AcDbEntity
  8
CHU-CHUMBADOR
  6
CONTINUOUS
100
AcDbCircle
 10
107.40208324
 20
63.042416013
 30
0.0
 40
11.096335013
100
AcDbArc
 50
90.0
 51
113.913168486
  0
ARC
  5
435
100
AcDbEntity
  8
CHU-CHUMBADOR
  6
CONTINUOUS
100
AcDbCircle
 10
125.393756383
 20
67.137579524
 30
0.0
 40
11.096335013
100
AcDbArc
 50
246.086831514
 51
293.913168486
  0
LINE
  5
436
100
AcDbEntity
  8
CHU-CHUMBADOR
100
AcDbLine
 10
120.895838097
 20
56.993744854
 30
0.0
 11
120.895838097
 21
73.186250683
 31
0.0
  0
LINE
  5
437
100
AcDbEntity
  8
CHU-CHUMBADOR
100
AcDbLine
 10
129.891674669
 20
56.993744854
 30
0.0
 11
129.891674669
 21
73.186250683
 31
0.0
  0
ARC
  5
438
100
AcDbEntity
  8
CHU-CHUMBADOR
  6
CONTINUOUS
100
AcDbCircle
 10
125.393756383
 20
63.042416013
 30
0.0
 40
11.096335013
100
AcDbArc
 50
66.086831514
 51
113.913168486
  0
LWPOLYLINE
  5
439
100
AcDbEntity
  8
CHU-CHUMBADOR
100
AcDbPolyline
 90
        4
 70
     1
 43
0.0
 10
89.992502403
 20
16.512499714
 10
133.807500648
 20
16.512499714
 10
133.807500648
 20
18.417499638
 10
89.992502403
 20
18.417499638
  0
ARC
  5
43A
100
AcDbEntity
  8
CHU-CHUMBADOR
  6
CONTINUOUS
100
AcDbCircle
 10
116.397919812
 20
-471.126418365
 30
0.0
 40
11.096335013
100
AcDbArc
 50
270.0
 51
293.913168486
  0
ARC
  5
43B
100
AcDbEntity
  8
CHU-CHUMBADOR
  6
CONTINUOUS
100
AcDbCircle
 10
116.397919812
 20
-475.221581876
 30
0.0
 40
11.096335013
100
AcDbArc
 50
66.086831514
 51
90.0
  0
LINE
  5
43C
100
AcDbEntity
  8
CHU-CHUMBADOR
100
AcDbLine
 10
98.406246669
 20
-482.222753377
 30
0.0
 11
125.393756383
 21
-482.222753377
 31
0.0
  0
LINE
  5
43D
100
AcDbEntity
  8
CHU-CHUMBADOR
100
AcDbLine
 10
98.406246669
 20
-464.125246863
 30
0.0
 11
125.393756383
 21
-464.125246863
 31
0.0
  0
ARC
  5
43E
100
AcDbEntity
  8
CHU-CHUMBADOR
  6
CONTINUOUS
100
AcDbCircle
 10
107.40208324
 20
-471.126418365
 30
0.0
 40
11.096335013
100
AcDbArc
 50
246.086831514
 51
270.0
  0
ARC
  5
43F
100
AcDbEntity
  8
CHU-CHUMBADOR
  6
CONTINUOUS
100
AcDbCircle
 10
98.406246669
 20
-471.126418365
 30
0.0
 40
11.096335013
100
AcDbArc
 50
246.086831514
 51
293.913168486
  0
LINE
  5
440
100
AcDbEntity
  8
CHU-CHUMBADOR
100
AcDbLine
 10
93.908328383
 20
-481.270253034
 30
0.0
 11
93.908328383
 21
-465.077747206
 31
0.0
  0
LINE
  5
441
100
AcDbEntity
  8
CHU-CHUMBADOR
100
AcDbLine
 10
102.904164954
 20
-481.270253034
 30
0.0
 11
102.904164954
 21
-465.077747206
 31
0.0
  0
ARC
  5
442
100
AcDbEntity
  8
CHU-CHUMBADOR
  6
CONTINUOUS
100
AcDbCircle
 10
98.406246669
 20
-475.221581876
 30
0.0
 40
11.096335013
100
AcDbArc
 50
66.086831514
 51
113.913168486
  0
ARC
  5
443
100
AcDbEntity
  8
CHU-CHUMBADOR
  6
CONTINUOUS
100
AcDbCircle
 10
107.40208324
 20
-475.221581876
 30
0.0
 40
11.096335013
100
AcDbArc
 50
90.0
 51
113.913168486
  0
ARC
  5
444
100
AcDbEntity
  8
CHU-CHUMBADOR
  6
CONTINUOUS
100
AcDbCircle
 10
125.393756383
 20
-471.126418365
 30
0.0
 40
11.096335013
100
AcDbArc
 50
246.086831514
 51
293.913168486
  0
LINE
  5
445
100
AcDbEntity
  8
CHU-CHUMBADOR
100
AcDbLine
 10
120.895838097
 20
-481.270253034
 30
0.0
 11
120.895838097
 21
-465.077747206
 31
0.0
  0
LINE
  5
446
100
AcDbEntity
  8
CHU-CHUMBADOR
100
AcDbLine
 10
129.891674669
 20
-481.270253034
 30
0.0
 11
129.891674669
 21
-465.077747206
 31
0.0
  0
ARC
  5
447
100
AcDbEntity
  8
CHU-CHUMBADOR
  6
CONTINUOUS
100
AcDbCircle
 10
125.393756383
 20
-475.221581876
 30
0.0
 40
11.096335013
100
AcDbArc
 50
66.086831514
 51
113.913168486
  0
ENDSEC
  0
SECTION
  2
OBJECTS
  0
DICTIONARY
  5
124
100
AcDbDictionary
  3
ACAD_GROUP
350
125
  3
ACAD_MLINESTYLE
350
126
  0
DICTIONARY
  5
125
102
{ACAD_REACTORS
330
124
102
}
100
AcDbDictionary
  0
DICTIONARY
  5
126
102
{ACAD_REACTORS
330
124
102
}
100
AcDbDictionary
  3
STANDARD
350
127
  0
MLINESTYLE
  5
127
102
{ACAD_REACTORS
330
126
102
}
100
AcDbMlineStyle
  2
STANDARD
 70
     0
  3

 62
   256
 51
90.0
 52
90.0
 71
     2
 49
0.5
 62
   256
  6
BYLAYER
 49
-0.5
 62
   256
  6
BYLAYER
  0
ENDSEC
  0
EOF
